<?xml version="1.0" encoding="UTF-8" standalone="no"?>
<!-- Created with Inkscape (http://www.inkscape.org/) -->

<svg
   width="75.601929mm"
   height="75.601929mm"
   viewBox="0 0 75.601929 75.601929"
   version="1.1"
   id="svg1"
   inkscape:version="1.3.2 (091e20e, 2023-11-25)"
   sodipodi:docname="lat_lon.svg"
   xmlns:inkscape="http://www.inkscape.org/namespaces/inkscape"
   xmlns:sodipodi="http://sodipodi.sourceforge.net/DTD/sodipodi-0.dtd"
   xmlns="http://www.w3.org/2000/svg"
   xmlns:svg="http://www.w3.org/2000/svg">
  <sodipodi:namedview
     id="namedview1"
     pagecolor="#ffffff"
     bordercolor="#000000"
     borderopacity="0.25"
     inkscape:showpageshadow="2"
     inkscape:pageopacity="0.0"
     inkscape:pagecheckerboard="0"
     inkscape:deskcolor="#d1d1d1"
     inkscape:document-units="mm"
     inkscape:zoom="0.5946522"
     inkscape:cx="126.96497"
     inkscape:cy="160.59808"
     inkscape:window-width="1512"
     inkscape:window-height="834"
     inkscape:window-x="0"
     inkscape:window-y="38"
     inkscape:window-maximized="1"
     inkscape:current-layer="layer1" />
  <defs
     id="defs1">
    <clipPath
       id="clip-0">
      <path
         clip-rule="nonzero"
         d="m 224,416 h 13 v 9 h -13 z m 0,0"
         id="path136" />
    </clipPath>
    <clipPath
       id="clip-1">
      <path
         clip-rule="nonzero"
         d="m 146.26953,507.69922 c 0,58.90234 47.74609,106.65234 106.65234,106.65234 58.90235,0 106.64844,-47.75 106.64844,-106.65234 0,-58.90235 -47.74609,-106.65235 -106.64844,-106.65235 -58.90625,0 -106.65234,47.75 -106.65234,106.65235"
         id="path137" />
    </clipPath>
    <clipPath
       id="clip-2">
      <path
         clip-rule="nonzero"
         d="m 214,424 h 14 v 16 h -14 z m 0,0"
         id="path138" />
    </clipPath>
    <clipPath
       id="clip-3">
      <path
         clip-rule="nonzero"
         d="m 146.26953,507.69922 c 0,58.90234 47.74609,106.65234 106.65234,106.65234 58.90235,0 106.64844,-47.75 106.64844,-106.65234 0,-58.90235 -47.74609,-106.65235 -106.64844,-106.65235 -58.90625,0 -106.65234,47.75 -106.65234,106.65235"
         id="path139" />
    </clipPath>
    <clipPath
       id="clip-4">
      <path
         clip-rule="nonzero"
         d="m 216,419 h 5 v 6 h -5 z m 0,0"
         id="path140" />
    </clipPath>
    <clipPath
       id="clip-5">
      <path
         clip-rule="nonzero"
         d="m 146.26953,507.69922 c 0,58.90234 47.74609,106.65234 106.65234,106.65234 58.90235,0 106.64844,-47.75 106.64844,-106.65234 0,-58.90235 -47.74609,-106.65235 -106.64844,-106.65235 -58.90625,0 -106.65234,47.75 -106.65234,106.65235"
         id="path141" />
    </clipPath>
    <clipPath
       id="clip-6">
      <path
         clip-rule="nonzero"
         d="m 204,434 h 4 v 4 h -4 z m 0,0"
         id="path142" />
    </clipPath>
    <clipPath
       id="clip-7">
      <path
         clip-rule="nonzero"
         d="m 146.26953,507.69922 c 0,58.90234 47.74609,106.65234 106.65234,106.65234 58.90235,0 106.64844,-47.75 106.64844,-106.65234 0,-58.90235 -47.74609,-106.65235 -106.64844,-106.65235 -58.90625,0 -106.65234,47.75 -106.65234,106.65235"
         id="path143" />
    </clipPath>
    <clipPath
       id="clip-8">
      <path
         clip-rule="nonzero"
         d="m 203,419 h 6 v 4 h -6 z m 0,0"
         id="path144" />
    </clipPath>
    <clipPath
       id="clip-9">
      <path
         clip-rule="nonzero"
         d="m 146.26953,507.69922 c 0,58.90234 47.74609,106.65234 106.65234,106.65234 58.90235,0 106.64844,-47.75 106.64844,-106.65234 0,-58.90235 -47.74609,-106.65235 -106.64844,-106.65235 -58.90625,0 -106.65234,47.75 -106.65234,106.65235"
         id="path145" />
    </clipPath>
    <clipPath
       id="clip-10">
      <path
         clip-rule="nonzero"
         d="m 285,412 h 75 v 80 h -75 z m 0,0"
         id="path146" />
    </clipPath>
    <clipPath
       id="clip-11">
      <path
         clip-rule="nonzero"
         d="m 146.26953,507.69922 c 0,58.90234 47.74609,106.65234 106.65234,106.65234 58.90235,0 106.64844,-47.75 106.64844,-106.65234 0,-58.90235 -47.74609,-106.65235 -106.64844,-106.65235 -58.90625,0 -106.65234,47.75 -106.65234,106.65235"
         id="path147" />
    </clipPath>
    <clipPath
       id="clip-12">
      <path
         clip-rule="nonzero"
         d="m 292,470 h 66 v 114 h -66 z m 0,0"
         id="path148" />
    </clipPath>
    <clipPath
       id="clip-13">
      <path
         clip-rule="nonzero"
         d="m 146.26953,507.69922 c 0,58.90234 47.74609,106.65234 106.65234,106.65234 58.90235,0 106.64844,-47.75 106.64844,-106.65234 0,-58.90235 -47.74609,-106.65235 -106.64844,-106.65235 -58.90625,0 -106.65234,47.75 -106.65234,106.65235"
         id="path149" />
    </clipPath>
    <clipPath
       id="clip-14">
      <path
         clip-rule="nonzero"
         d="m 150,414 h 93 v 196 h -93 z m 0,0"
         id="path150" />
    </clipPath>
    <clipPath
       id="clip-15">
      <path
         clip-rule="nonzero"
         d="m 146.26953,507.69922 c 0,58.90234 47.74609,106.65234 106.65234,106.65234 58.90235,0 106.64844,-47.75 106.64844,-106.65234 0,-58.90235 -47.74609,-106.65235 -106.64844,-106.65235 -58.90625,0 -106.65234,47.75 -106.65234,106.65235"
         id="path151" />
    </clipPath>
    <clipPath
       id="clip-16">
      <path
         clip-rule="nonzero"
         d="M 141,395 H 363 V 620 H 141 Z m 0,0"
         id="path152" />
    </clipPath>
    <clipPath
       id="clip-17">
      <path
         clip-rule="nonzero"
         d="m 298,502 h 65 v 44 h -65 z m 0,0"
         id="path153" />
    </clipPath>
    <clipPath
       id="clip-18">
      <path
         clip-rule="nonzero"
         d="m 200,408 h 56 v 134 h -56 z m 0,0"
         id="path154" />
    </clipPath>
    <clipPath
       id="clip-19">
      <path
         clip-rule="nonzero"
         d="m 251.875,408.71875 c 0,0 0.0156,0.0156 0.0469,0.043 -53.66799,63.3945 -51.4219,132.39841 -51.4219,132.39841 56,8.74609 103.75,-1.06641 103.75,-1.06641 4.60937,-74.875 -50.51953,-129.55469 -52.32813,-131.33203 0.10547,-0.125 0.21875,-0.25781 0.32813,-0.38672 z m 0,0"
         id="path155" />
    </clipPath>
    <clipPath
       id="clip-20">
      <path
         clip-rule="nonzero"
         d="m 200,505 h 105 v 40 H 200 Z m 0,0"
         id="path156" />
    </clipPath>
    <clipPath
       id="clip-21">
      <path
         clip-rule="nonzero"
         d="m 251.875,408.71875 c 0,0 0.0156,0.0156 0.0469,0.043 -53.66799,63.3945 -51.4219,132.39841 -51.4219,132.39841 56,8.74609 103.75,-1.06641 103.75,-1.06641 4.60937,-74.875 -50.51953,-129.55469 -52.32813,-131.33203 0.10547,-0.125 0.21875,-0.25781 0.32813,-0.38672 z m 0,0"
         id="path157" />
    </clipPath>
    <clipPath
       id="clip-22">
      <path
         clip-rule="nonzero"
         d="m 200,500 h 105 v 45 H 200 Z m 0,0"
         id="path158" />
    </clipPath>
    <clipPath
       id="clip-23">
      <path
         clip-rule="nonzero"
         d="m 251.875,408.71875 c 0,0 0.0156,0.0156 0.0469,0.043 -53.66799,63.3945 -51.4219,132.39841 -51.4219,132.39841 56,8.74609 103.75,-1.06641 103.75,-1.06641 4.60937,-74.875 -50.51953,-129.55469 -52.32813,-131.33203 0.10547,-0.125 0.21875,-0.25781 0.32813,-0.38672 z m 0,0"
         id="path159" />
    </clipPath>
    <clipPath
       id="clip-24">
      <path
         clip-rule="nonzero"
         d="m 251,408 h 54 v 137 h -54 z m 0,0"
         id="path160" />
    </clipPath>
    <clipPath
       id="clip-25">
      <path
         clip-rule="nonzero"
         d="m 251.875,408.71875 c 0,0 0.0156,0.0156 0.0469,0.043 -53.66799,63.3945 -51.4219,132.39841 -51.4219,132.39841 56,8.74609 103.75,-1.06641 103.75,-1.06641 4.60937,-74.875 -50.51953,-129.55469 -52.32813,-131.33203 0.10547,-0.125 0.21875,-0.25781 0.32813,-0.38672 z m 0,0"
         id="path161" />
    </clipPath>
    <clipPath
       id="clip-26">
      <path
         clip-rule="nonzero"
         d="m 246,408 h 59 v 137 h -59 z m 0,0"
         id="path162" />
    </clipPath>
    <clipPath
       id="clip-27">
      <path
         clip-rule="nonzero"
         d="m 251.875,408.71875 c 0,0 0.0156,0.0156 0.0469,0.043 -53.66799,63.3945 -51.4219,132.39841 -51.4219,132.39841 56,8.74609 103.75,-1.06641 103.75,-1.06641 4.60937,-74.875 -50.51953,-129.55469 -52.32813,-131.33203 0.10547,-0.125 0.21875,-0.25781 0.32813,-0.38672 z m 0,0"
         id="path163" />
    </clipPath>
  </defs>
  <g
     inkscape:label="Layer 1"
     inkscape:groupmode="layer"
     id="layer1"
     transform="translate(-66.145833,-112.97709)">
    <path
       fill-rule="evenodd"
       fill="#918f90"
       fill-opacity="1"
       d="m 66.322222,150.77805 c 0,-20.77944 16.843759,-37.62458 37.623198,-37.62458 20.78082,0 37.62595,16.84514 37.62595,37.62458 0,20.77944 -16.84513,37.62458 -37.62595,37.62458 -20.779439,0 -37.623198,-16.84514 -37.623198,-37.62458"
       id="path165"
       style="stroke-width:0.352778" />
    <g
       clip-path="url(#clip-0)"
       id="g167"
       transform="matrix(0.35277777,0,0,0.35277777,14.721583,-28.326947)">
      <g
         clip-path="url(#clip-1)"
         id="g166">
        <path
           fill-rule="evenodd"
           fill="#ffffff"
           fill-opacity="1"
           d="m 228.375,423.53125 c -1.09375,0 -1.65625,0.625 -2.75,0.625 -0.59375,0 -1.25,-0.28125 -1.25,-0.875 0,-0.34375 0.1875,-0.5625 0.25,-0.875 1.0625,0 1.625,-0.3125 2.625,-0.625 0.46875,-0.15625 0.96875,0.125 1.25,-0.25 0.21875,-0.3125 0.34375,-0.65625 0.625,-0.875 0.75,-0.625 1.84375,-0.15625 2.375,-1 0.3125,-0.5 0.21875,-0.90625 0.25,-1.5 1.375,-0.21875 1.9375,-1.25 3.3125,-1.25 0.5,0 1.1875,0 1.1875,0.5 0,0.75 -0.8125,0.9375 -1,1.625 -0.25,0.8125 -0.21875,1.625 -1,2 -0.84375,0.40625 -1.46875,-0.15625 -2.375,0 -0.75,0.125 -0.875,0.9375 -1.5,1.375 -0.53125,0.375 -1.4375,0.8125 -2,1.125"
           id="path166" />
      </g>
    </g>
    <g
       clip-path="url(#clip-2)"
       id="g169"
       transform="matrix(0.35277777,0,0,0.35277777,14.721583,-28.326947)">
      <g
         clip-path="url(#clip-3)"
         id="g168">
        <path
           fill-rule="evenodd"
           fill="#ffffff"
           fill-opacity="1"
           d="m 223,436.53125 c -1,1 -0.71875,2.21875 -1.625,3.25 h -2.625 c 0,-0.875 0.125,-1.4375 -0.125,-2.25 -0.1875,-0.625 -1,-0.46875 -1.5,-0.875 -0.75,-0.625 -0.875,-1.4375 -0.875,-2.4375 h 4.5 c 0,-0.71875 -0.3125,-1.1875 0,-1.8125 0.125,-0.28125 0.625,-0.28125 0.625,-0.625 0,-0.84375 -0.0937,-1.71875 -0.875,-2 -0.53125,-0.1875 -0.96875,-0.0312 -1.5,-0.25 -1.375,-0.5625 -1.875,-1.875 -3.375,-1.875 -0.21875,0 -0.3125,0.1875 -0.5,0.25 0,-0.84375 -0.3125,-1.375 0,-2.125 0.3125,-0.6875 1,-0.875 1.75,-0.875 0.9375,0 1.03125,1.0625 1.625,1.75 0.40625,0.46875 0.90625,0.5 1.5,0.75 1.28125,0.59375 2.0625,1.0625 3.5,1.25 0.875,0.125 1.4375,0 2.25,0.25 0.8125,0.25 0.5625,1.28125 0.75,2.125 0.0937,0.46875 0.875,0.40625 1,0.875 0.0625,0.28125 0,0.5 0,0.8125 0,0.53125 -0.34375,0.8125 -0.5,1.3125 -0.21875,0.65625 -0.0625,1.0625 -0.125,1.75 -0.0625,0.8125 -0.9375,1.125 -1.75,1.125 -0.75,0 -1.40625,-0.21875 -2.125,-0.375"
           id="path167" />
      </g>
    </g>
    <g
       clip-path="url(#clip-4)"
       id="g171"
       transform="matrix(0.35277777,0,0,0.35277777,14.721583,-28.326947)">
      <g
         clip-path="url(#clip-5)"
         id="g170">
        <path
           fill-rule="evenodd"
           fill="#ffffff"
           fill-opacity="1"
           d="m 218,422.65625 c -1.0625,-0.84375 -1.1875,-1.78125 -1.375,-3.125 0.4375,-0.15625 0.75,-0.25 1.21875,-0.25 0.5,0 0.78125,0.0625 1.28125,0.125 0,1.28125 -0.1875,2.1875 0.5,3.25 0.375,0.5625 0.96875,0.65625 1.25,1.25 -0.28125,0.0312 -0.4375,0.125 -0.71875,0.125 -0.75,0 -1.625,-0.90625 -2.15625,-1.375"
           id="path169" />
      </g>
    </g>
    <g
       clip-path="url(#clip-6)"
       id="g173"
       transform="matrix(0.35277777,0,0,0.35277777,14.721583,-28.326947)">
      <g
         clip-path="url(#clip-7)"
         id="g172">
        <path
           fill-rule="evenodd"
           fill="#ffffff"
           fill-opacity="1"
           d="m 207.75,437.28125 c -0.46875,-0.21875 -0.625,-0.625 -1.125,-0.625 -0.84375,0 -1.0625,0.9375 -1.875,1.125 -0.0937,-0.3125 -0.25,-0.53125 -0.25,-0.875 0,-0.875 0.8125,-1.125 1.375,-1.75 0.3125,-0.34375 0.5,-0.75 1,-0.75 1.09375,0 0.875,1.78125 0.875,2.875"
           id="path171" />
      </g>
    </g>
    <g
       clip-path="url(#clip-8)"
       id="g175"
       transform="matrix(0.35277777,0,0,0.35277777,14.721583,-28.326947)">
      <g
         clip-path="url(#clip-9)"
         id="g174">
        <path
           fill-rule="evenodd"
           fill="#ffffff"
           fill-opacity="1"
           d="m 206.375,422.15625 c -0.46875,0 -0.75,0.125 -1.21875,0.125 -0.9375,0 -1.28125,-1.0625 -1.28125,-2 0,-0.84375 0.90625,-1.25 1.75,-1.25 0.75,0 1.09375,0.53125 1.625,1 0.40625,0.375 1,0.4375 1,1 0,0.65625 -1.25,0.96875 -1.875,1.125"
           id="path173" />
      </g>
    </g>
    <g
       clip-path="url(#clip-10)"
       id="g177"
       transform="matrix(0.35277777,0,0,0.35277777,14.721583,-28.326947)">
      <g
         clip-path="url(#clip-11)"
         id="g176">
        <path
           fill-rule="evenodd"
           fill="#ffffff"
           fill-opacity="1"
           d="m 359.875,490.65625 h -3.59375 c -0.78125,0 -1,-0.71875 -1.65625,-1.125 -0.96875,-0.59375 -1.71875,-0.96875 -2.375,-1.875 -1,-1.34375 -2.84375,-1.15625 -3.375,-2.75 -0.53125,-2.125 -2.03125,-2.625 -3.625,-4 -1.5,-1.3125 -2.53125,-1.96875 -3.625,-3.625 -0.46875,-0.71875 -1.09375,-0.9375 -1.625,-1.625 -0.875,-1.125 -1.28125,-1.9375 -2.375,-2.875 -1.4375,-1.25 -4,-0.96875 -4,-2.875 0,-1.46875 0.875,-2.21875 0.875,-3.6875 0,-2.03125 -1.5,-2.90625 -1.625,-4.9375 -0.0312,-0.75 0.15625,-1.34375 -0.375,-1.875 -1.09375,-1.09375 -2.53125,0.0937 -3.875,-0.625 -2.125,-1.15625 -3.3125,-2.375 -5.75,-2.375 -0.9375,0 -0.90625,1.1875 -1.375,2 -0.375,0.625 -0.75,1.0625 -0.75,1.8125 0,1.1875 0.9375,1.78125 2,2.3125 0.1875,0.0937 0.125,0.34375 0.25,0.5 0.6875,0.875 0.75,1.625 0.875,2.75 0.0312,0.4375 0.375,0.59375 0.375,1.03125 0,0.1875 -0.125,0.28125 -0.125,0.46875 -0.21875,0.0312 -0.28125,0.25 -0.5,0.25 -0.71875,0 -0.96875,-0.6875 -1.5,-1.125 -0.875,-0.75 -1.375,-1.4375 -2.5,-1.75 -0.8125,-0.21875 -1.40625,-0.15625 -2,-0.75 -0.59375,-0.59375 -0.5,-1.3125 -1,-2 -1.09375,-1.46875 -2.84375,-0.71875 -4.5,-1.5 -1.1875,-0.5625 -1.9375,-0.84375 -3.125,-1.375 -0.625,-0.28125 -0.8125,-1.125 -1.53125,-1.125 -0.5625,0 -0.90625,0.0312 -1.46875,0.0312 v 0.9375 c 0,1.03125 0.1875,2 1.125,2.40625 0.4375,0.1875 0.8125,0.0937 1.25,0.25 1.25,0.5 1.9375,1.0625 3.25,1.25 1.3125,0.1875 2.875,0.53125 2.875,1.875 0,2 -0.5625,3 -1.5,4.875 -1.53125,-0.96875 -0.59375,-2.875 -1.625,-4.375 -0.46875,-0.6875 -1.3125,-0.25 -2.125,-0.375 -0.5,-0.0937 -0.59375,-0.6875 -1.125,-0.75 -1.375,-0.1875 -2.125,-0.25 -3.5,-0.25 -0.78125,0 -1.15625,0.5 -1.9375,0.5 -0.875,0 -1.1875,-1 -2.0625,-1 -1.9375,0 -2.71875,1.5625 -4.125,2.875 -0.75,0.6875 -1.75,0.3125 -2.5,1 -0.625,0.5625 -0.25,1.5 -0.875,2.125 -1.0625,1.0625 -2.3125,0.625 -3.8125,0.625 -1.65625,0 -1.5,-2.1875 -2.0625,-3.75 -0.75,-2.0625 -1.75,-3.1875 -1.75,-5.375 0,-0.9375 0.90625,-1.1875 1.5,-1.875 1,-1.15625 1.28125,-2.125 2.25,-3.375 0.71875,-0.9375 1.59375,-1.34375 1.75,-2.5 0.0937,-0.65625 -0.125,-1.09375 0,-1.75 0.15625,-0.6875 0.625,-1.0625 0.75,-1.75 0.21875,-1.125 0.1875,-1.96875 0.875,-2.875 0.90625,-1.15625 2.34375,-0.4375 3.625,-1.125 1.21875,-0.65625 1.71875,-1.71875 3.125,-1.875 1.1875,-0.125 2.75,-0.125 2.75,-1.3125 0,-0.9375 -0.375,-1.5 -0.375,-2.4375 0,-0.875 0.375,-1.40625 0.375,-2.28125 0,-0.53125 -0.0625,-0.8125 -0.125,-1.34375 l -1,-0.125 c -0.71875,0.40625 -0.96875,1.03125 -1.5,1.625 -0.21875,0.25 -0.28125,0.625 -0.625,0.625 -0.96875,0 -0.78125,-1.40625 -0.875,-2.375 -0.0625,-0.71875 -0.71875,-1.25 -1.4375,-1.25 -0.71875,0 -1.5,0.3125 -1.5,1.03125 V 442 c 0,0.65625 -0.53125,1.28125 -1.1875,1.28125 -1.28125,0 -1.84375,-1 -3.125,-1 -0.625,0 -0.9375,0.5 -1.5625,0.5 -0.625,0 -0.8125,-0.65625 -1.3125,-1 -0.625,-0.4375 -1.625,-0.46875 -1.625,-1.25 0,-1.625 0.75,-2.46875 0.75,-4.09375 v -4.5625 c 0,-1.75 1.625,-2.28125 2.125,-3.96875 0.3125,-1.09375 -0.125,-2.125 0.75,-2.875 0.46875,-0.375 0.9375,-0.25 1.5625,-0.25 1.0625,0 1.875,-0.28125 2.6875,0.375 0.3125,0.25 0.3125,0.6875 0.625,1 0.84375,0.84375 2.09375,0.0312 3.125,0.625 -0.59375,0.75 -1.4375,0.78125 -1.875,1.625 0.4375,0.15625 0.71875,0.25 1.1875,0.25 1.71875,0 2.90625,0.25 4.3125,-0.75 0.9375,-0.65625 0.625,-1.71875 0.625,-2.875 0.625,0 1.34375,0.28125 1.625,-0.25 0.53125,-1.03125 0.75,-1.8125 0.75,-3 0,-0.9375 0.0625,-1.5 -0.25,-2.375 -0.125,-0.40625 -0.625,-0.5625 -0.625,-1 0,-2.5625 0.375,-5 2.875,-5.625 3.1875,1.25 4.4375,3 7.25,4.75 1.9375,1.1875 3.4375,1.25 5.5,2.25 4.0625,2 5.6875,4.3125 8.75,7.75 2.75,3.0625 3.5625,5.4375 6.25,8.5 4,4.5 6.8125,6.9375 9.25,12.5 2.6875,6.125 6.0625,8.6875 10,14 1.875,2.5 1.375,4.6875 2,7.75 1.75,8.375 2.625,12.75 4.75,21.25 z m 0,0"
           id="path175" />
      </g>
    </g>
    <g
       clip-path="url(#clip-12)"
       id="g179"
       transform="matrix(0.35277777,0,0,0.35277777,14.721583,-28.326947)">
      <g
         clip-path="url(#clip-13)"
         id="g178">
        <path
           fill-rule="evenodd"
           fill="#ffffff"
           fill-opacity="1"
           d="m 292.25,476.03125 c 1.125,-0.21875 1.9375,-0.25 2.875,-0.875 0.40625,-0.25 0.5625,-0.65625 1,-0.875 0.75,-0.375 1.28125,-0.34375 2,-0.75 0.59375,-0.34375 0.75,-0.8125 1.125,-1.375 0.46875,-0.6875 1.1875,-0.6875 2,-0.875 0.46875,-0.0937 0.65625,-0.5 1.15625,-0.5 h 2.4375 c 1.21875,0 1.8125,0.5 3.03125,0.625 1,0.125 1.8125,0.34375 2.25,1.25 0.875,1.75 1.09375,4 3.03125,4 2.46875,0 3.84375,-0.125 6.3125,-0.125 1.5625,0 2.4375,-1.125 3.15625,-2.5 0.5625,-1.09375 0.625,-2.625 1.875,-2.625 0.875,0 1.375,0.25 2.25,0.25 1.34375,0 1.90625,-1.25 3.25,-1.25 1.375,0 1.9375,1.1875 2.75,2.25 0.8125,1.0625 2,1.09375 2.875,2.125 1.75,2 3.25,2.65625 5,4.625 0.53125,0.625 0.5625,1.21875 1.125,1.875 1,1.1875 2.375,0.96875 3.375,2.125 2,2.25 1.59375,4.34375 3.75,6.5 1.40625,1.90625 3.6875,1 6,1.625 0.96875,0.25 1.28125,1.0625 1.625,2 0.5,1.40625 0.625,2.5 0.875,4 v 5.53125 c 0,1.5625 -0.875,2.28125 -1.5,3.71875 -0.6875,1.625 -0.65625,2.75 -1,4.5 -0.125,0.6875 -0.53125,1.0625 -0.625,1.75 -0.375,2.1875 -0.625,3.46875 -0.625,5.71875 v 4.0625 c 0,2.09375 -1.625,2.90625 -2.625,4.71875 -0.875,1.59375 -1.125,2.625 -1.75,4.375 -1.1875,3.28125 -2.3125,4.8125 -2.875,8.25 -0.3125,0.75 -0.375,1.25 -0.375,2.0625 0,1.59375 0.71875,2.46875 0.875,4.0625 0.375,3.4375 0.875,5.3125 0.875,8.75 0,2.90625 0.15625,4.6875 -1,7.375 -0.53125,1.25 -1.46875,1.6875 -2.125,2.875 -1,1.8125 -1.3125,3.0625 -2.375,4.875 -1.21875,2.0625 -2.4375,2.8125 -4.125,4.5 -1.125,1.125 -1.625,2.0625 -3.125,2.5 -1.15625,0.3125 -2.125,-0.0312 -3.125,0.625 -1.15625,0.75 -1.4375,1.59375 -2.5,2.5 -1.3125,1.125 -2.53125,0.9375 -4.125,1.625 -1.28125,0.53125 -1.96875,1.25 -3.375,1.25 -1.59375,0 -2.25,-1.84375 -2.25,-3.4375 0,-2.28125 1.375,-3.4375 1.375,-5.71875 v -3.6875 c 0,-0.78125 0.90625,-0.875 1.25,-1.53125 0.9375,-1.6875 1.03125,-2.90625 1.625,-4.75 0.375,-1.1875 1.5,-1.5625 1.5,-2.8125 0,-1.65625 -1.75,-2.1875 -1.75,-3.84375 v -2.3125 c 0,-1.90625 1.75,-2.6875 1.75,-4.59375 0,-2.0625 -0.28125,-3.4375 -1.5,-5.0625 -1.03125,-1.375 -2.625,-1.9375 -2.625,-3.6875 0,-1.125 0.4375,-1.71875 0.4375,-2.84375 v -3.4375 c 0,-1.21875 -0.65625,-1.78125 -1.3125,-2.78125 -0.59375,-0.4375 -1.09375,-0.625 -1.5,-1.25 -0.53125,-0.8125 -0.90625,-1.75 -1.90625,-1.75 h -2.4375 c -0.96875,0 -1.53125,-0.6875 -2.03125,-1.5 -0.53125,-0.84375 -0.40625,-2.125 -1.40625,-2.125 h -4.1875 c -0.9375,0 -1.75,0.15625 -2.40625,-0.5 -0.90625,-0.90625 -1.0625,-1.71875 -1.625,-2.875 -0.84375,-1.71875 -1.5,-2.71875 -2.375,-4.5 v -3.21875 c 0,-2.96875 -1,-4.5625 -1.25,-7.53125 -0.21875,-2.46875 -0.46875,-3.84375 -1.125,-6.25 -0.3125,-1.15625 -0.125,-1.875 -0.5,-3 -1.46875,-4.1875 -2.875,-6.59375 -2.875,-11.03125 v -2.4375 c 0,-1.25 -0.4375,-1.96875 -0.75,-3.15625 -0.59375,-2.3125 -1.15625,-3.53125 -2,-5.75 z m 0,0"
           id="path177" />
      </g>
    </g>
    <g
       clip-path="url(#clip-14)"
       id="g181"
       transform="matrix(0.35277777,0,0,0.35277777,14.721583,-28.326947)">
      <g
         clip-path="url(#clip-15)"
         id="g180">
        <path
           fill-rule="evenodd"
           fill="#ffffff"
           fill-opacity="1"
           d="m 202.125,525.15625 c 0.6875,0 1.15625,-0.3125 1.75,0 0.75,0.40625 0.8125,1.125 1.25,1.875 0.78125,1.34375 1,2.3125 1,3.875 0,1.84375 -0.625,2.84375 -0.625,4.6875 0,0.8125 -0.3125,1.6875 0.375,2.0625 0.3125,0.15625 0.65625,0.0312 1,0.125 1.21875,0.34375 1.78125,0.9375 3,1.25 1.53125,0.375 2.75,0.25 3.875,1.375 0.78125,0.78125 0.5,1.65625 0.625,2.75 0.15625,1.4375 0.78125,2.25 1.625,3.375 0.28125,0.375 0.0937,0.90625 0.5,1.125 1.375,0.75 2.5625,-0.0625 4.125,0.25 1.40625,0.28125 2.09375,1.25 3.53125,1.25 h 3.3125 c 0.90625,0 1.4375,0.375 2.34375,0.375 0.90625,0 1.65625,0.28125 2.3125,-0.375 0.34375,-0.34375 0.5,-0.75 1,-0.75 1.6875,0 1.71875,2.25 3.25,2.875 0.375,0.15625 0.6875,0 1.125,0 1.34375,0.0625 1.71875,1.25 3,1.625 1.03125,0.3125 1.875,1.03125 1.875,2.125 0,2.65625 -1.5,3.96875 -1.5,6.625 -0.125,0.90625 -0.1875,1.15625 -0.5,2 -0.28125,0.78125 -0.40625,1.46875 -1.125,1.875 -1.03125,0.59375 -1.90625,0.34375 -3,0.875 -0.8125,0.40625 -0.75,1.34375 -0.75,2.25 0,1.21875 -0.28125,2.03125 0.25,3.125 0.75,1.53125 1.375,2.4375 1.375,4.125 0,0.875 -0.34375,1.40625 -0.5,2.25 -0.28125,1.46875 0.0625,2.59375 -0.875,3.75 -0.59375,0.75 -1.40625,0.71875 -2.25,1.25 -1.75,1.125 -2.28125,2.46875 -3.5,4.125 -1.03125,1.40625 -1.53125,2.34375 -2.625,3.75 -0.96875,1.25 -2.125,1.625 -2.5,3.125 -0.28125,1.15625 0.0312,2.03125 -0.625,3 -0.9375,1.40625 -2.75,1.71875 -2.75,3.4375 0,1.0625 0.5,1.625 0.625,2.6875 0.0937,0.84375 -0.0312,1.34375 0.25,2.125 0.6875,1.78125 1.84375,2.4375 2.5,4.25 -1.875,-0.3125 -2.625,-1.28125 -4.25,-2.25 -0.875,-0.5 -1.59375,-0.40625 -2.625,-0.5 -0.90625,-0.0937 -1.34375,-0.625 -2.25,-0.75 -1.9375,-1.03125 -2.5625,-2.1875 -4.5,-3.25 -1.21875,-0.65625 -2.125,-0.625 -3.375,-1.25 -1.25,-0.625 -1.59375,-1.59375 -2.625,-2.5 -0.59375,-0.5 -1.03125,-0.875 -1.5,-1.5 -2.3125,-1.84375 -1.78125,-4.53125 -3.75,-6.75 -0.40625,-0.46875 -0.625,-0.875 -1.125,-1.25 -0.5625,-0.40625 -1.21875,-0.3125 -1.625,-0.875 -0.46875,-0.625 -0.25,-1.25 -0.375,-2 -0.0937,-0.71875 -0.5625,-1.09375 -0.875,-1.75 -0.34375,-0.6875 -0.3125,-1.1875 -0.625,-1.875 -0.875,-1.875 -1.0625,-3.1875 -2.125,-5 -0.125,-0.21875 -0.40625,-0.25 -0.5,-0.5 -0.46875,-1.28125 -0.15625,-2.15625 -0.375,-3.5 -0.28125,-1.8125 -1.3125,-2.59375 -2.125,-4.25 -0.46875,-0.9375 -1.15625,-1.15625 -1.875,-1.875 -1,-1 -1.46875,-1.71875 -2.25,-2.875 -0.71875,-1.0625 -1.84375,-1 -2.625,-2 -1.5625,-1.96875 -2.90625,-2.78125 -4.125,-5 -0.46875,-0.84375 -1.21875,-1.09375 -1.5,-2 -0.46875,-1.53125 -0.5,-2.5625 -1.25,-4 -0.90625,-1.75 -1.75,-2.6875 -3.375,-3.75 -1.15625,-0.75 -2.25,-0.875 -2.90625,-2.125 0.0312,-4.28125 0.0312,-6.71875 0,-11 0.375,-1.5 1.53125,-1.90625 2.40625,-3.125 0.5,-0.71875 0.71875,-1.28125 1.375,-1.875 2,-1 4,-1.625 4,-3.75 0,-1 -0.40625,-1.5 -0.5,-2.5 -0.125,-1.375 0.3125,-2.3125 -0.375,-3.5 -0.46875,-0.8125 -1.15625,-0.9375 -1.875,-1.5 -1.5,-1.21875 -2.8125,-1.4375 -4.75,-1.625 -0.59375,-0.0625 -1.09375,0 -1.5,-0.375 -0.59375,-0.53125 -0.375,-1.34375 -0.875,-2 -0.25,-0.34375 -0.65625,-0.46875 -0.875,-0.875 -0.46875,-0.875 -0.25,-1.59375 -0.375,-2.625 -0.1875,-1.5 -0.34375,-2.3125 -0.75,-3.75 -0.25,-0.90625 -0.65625,-1.34375 -0.875,-2.25 -0.25,-1 0.0312,-1.75 -0.5,-2.625 -1.03125,-1.6875 -2.375,-2.0625 -4,-3.125 -1.34375,-0.875 -1.40625,-2.15625 -2.5,-3.375 -1.53125,-1.71875 -1.75,-3.21875 -2,-5.5 -0.0937,-0.875 -0.65625,-1.28125 -0.875,-2.125 -0.46875,-1.65625 -0.25,-2.65625 -0.25,-4.375 0,-1.28125 -0.1875,-2 0,-3.25 0.1875,-1.21875 0.9375,-1.84375 0.9375,-3.09375 v -2.9375 c 0,-0.71875 -0.0937,-1.125 -0.0625,-1.84375 -0.21875,-0.0625 -0.375,-0.25 -0.625,-0.25 -0.625,0 -1.25,0.40625 -1.25,1.03125 v 3.6875 c 0,1.21875 -0.375,1.9375 -0.375,3.15625 l -0.625,-0.125 V 478.125 c 0,-0.4375 -0.3125,-0.6875 -0.375,-1.09375 -0.1875,-0.9375 0.21875,-1.625 -0.125,-2.5 -0.3125,-0.8125 -1.1875,-0.9375 -1.5,-1.75 -0.375,-0.96875 -0.375,-1.6875 -0.375,-2.75 0.21875,-3.0625 1.78125,-4.46875 2.75,-7.375 1.3125,-4 2.1875,-6.21875 4.375,-9.875 0.625,-1.0625 0.875,-1.75 1.625,-2.75 2.71875,-3.5 4.46875,-5.25 6.75,-9 0.90625,-1.53125 1.5,-2.4375 2.375,-4 1.15625,-2.03125 1.8125,-3.40625 3.75,-4.75 0.875,-0.59375 1.5,-0.75 2.25,-1.5 3.75,-3.75 5.875,-5.8125 9.375,-9.75 1.25,-1.40625 2.4375,-1.53125 4,-2.625 2.21875,-1.53125 3.71875,-2.15625 6.25,-3 1.40625,-0.46875 2.90625,-0.28125 4.3125,-0.96875 l 0.0625,-0.15625 c 0.53125,1.59375 2.75,1.6875 2.75,3.375 0,1.09375 -0.625,1.65625 -0.625,2.75 0,2.0625 0.71875,3.25 1.5,5.125 0.5,1.25 1.125,2.5 2.5,2.5 0.5,0 0.90625,-0.15625 1.125,-0.625 h 1.75 v 2.25 h 2.09375 c 1.0625,0 1.09375,-1.375 1.90625,-2 l 0.5,-0.125 c 0,0.84375 -0.9375,1.0625 -1.125,1.875 -0.25,1.0625 -0.40625,2.375 -1.5,2.375 -0.65625,0 -0.96875,-0.375 -1.625,-0.375 -1.09375,0 -1.65625,0.59375 -2.75,0.625 -0.875,0.0312 -1.375,-0.21875 -2.25,-0.125 -0.5,0.0625 -0.53125,0.75 -1.03125,0.75 H 199.375 c -0.40625,0.40625 -0.46875,0.875 -1,1 -2.1875,0.5 -5.375,-0.125 -5.375,2.125 0,0.46875 0.34375,0.71875 0.5,1.125 0.4375,1.0625 -0.28125,2.0625 0.375,3 0.0625,0.125 0.375,0.0312 0.5,0.125 0.5,0.40625 0.5625,0.9375 0.875,1.5 1,1.8125 3.125,2.28125 3.125,4.375 0,0.6875 -0.375,1.0625 -0.375,1.75 0,1.15625 1.0625,1.65625 2.125,2.125 0.65625,0.28125 1.03125,0.625 1.75,0.625 0.8125,0 0.8125,-1 1.125,-1.75 0.375,-0.90625 1.34375,-0.875 2,-1.625 0.5625,-0.65625 0.375,-1.375 0.625,-2.25 0.28125,-1.03125 0.90625,-1.5625 1.75,-2.125 0.5625,-0.375 0.9375,-0.71875 1.125,-1.375 0.1875,-0.6875 0,-1.28125 0.5,-1.75 0.28125,-0.25 0.6875,-0.1875 1,-0.375 0.375,-0.25 0.125,-0.875 0.5,-1.125 0.875,-0.625 1.40625,-1.25 2.5,-1.25 1.875,0 3,1.9375 3,3.8125 0,0.53125 -0.21875,0.90625 -0.5,1.3125 l 0.125,0.5625 c 0.84375,0.0625 1.28125,0 2.125,0 0,0.8125 -0.84375,1.125 -1.625,1.3125 V 445.25 c 0.625,0 0.96875,0.0312 1.59375,0.0312 0.84375,0 1.1875,-0.875 2.03125,-0.875 1.21875,0 1.1875,1.65625 1.25,2.875 0.0312,0.71875 0.65625,0.96875 0.875,1.625 0.375,1 0.84375,1.65625 1.75,2.25 0.625,0.40625 1.375,0.625 1.375,1.375 0,0.9375 -0.96875,1.125 -1.5,1.875 -0.8125,1.125 -1.59375,2 -3,2 -0.75,0 -1.15625,-0.28125 -1.875,-0.375 -1.1875,-0.1875 -2.0625,0.34375 -3.125,-0.25 -1.125,-0.625 -1.9375,-1 -3.25,-1 -1.21875,0 -1.9375,0.40625 -3,1 -0.53125,0.28125 -1,0.625 -1,1.25 0,0.53125 0.71875,0.59375 1.25,0.625 1.03125,0.0937 1.59375,0.125 2.625,0 0.0625,0.625 0,1 0,1.625 0,1.28125 2.5625,0.84375 2.5625,2.125 0,0.59375 -0.0937,0.90625 0,1.5 -0.90625,0.15625 -1.3125,0.71875 -2.21875,0.71875 -2.46875,0 -3.875,0.15625 -6.34375,0.15625 -0.53125,0.3125 -0.75,0.75 -1.375,0.75 -1.4375,0 -2,-1.375 -3.4375,-1.375 -1.125,0 -2.6875,0 -2.6875,1.125 0,0.3125 0.25,0.4375 0.25,0.75 0,0.59375 -0.78125,0.53125 -1.25,0.875 -0.6875,0.53125 -0.84375,1.09375 -1.375,1.75 -0.46875,0.59375 -0.9375,0.875 -1.375,1.5 -0.28125,0.40625 -0.40625,1 -0.9375,1 -1.15625,0 -1.125,-1.4375 -1.5625,-2.5 l -1.125,0.125 c 0,0.875 0.3125,1.59375 -0.25,2.25 -0.375,0.4375 -0.9375,0.40625 -1.25,0.875 -0.375,0.53125 -0.375,1.0625 -0.375,1.75 0,0.5 0.1875,1.03125 -0.25,1.25 -0.9375,0.46875 -1.65625,0.46875 -2.625,0.875 -1.46875,0.625 -2.09375,1.5625 -3.625,1.875 -0.8125,0.15625 -1.34375,0 -2.125,0.25 -0.96875,0.3125 -1.21875,1.125 -1.875,1.875 -0.34375,0.40625 -0.9375,0.53125 -0.9375,1.09375 v 7.03125 c -1.0625,0 -1.90625,0.15625 -2.6875,-0.5 -0.8125,-0.6875 -0.46875,-1.6875 -0.625,-2.75 -0.0937,-0.6875 -0.25,-1.15625 -0.25,-1.875 0,-1.90625 0.125,-2.96875 0.0312,-4.875 -0.3125,-1.78125 -1.625,-2.78125 -3.40625,-3.125 -0.0312,0.34375 -0.125,0.5625 -0.125,0.90625 0,0.46875 0.25,0.75 0.25,1.21875 0,0.40625 -0.15625,0.625 -0.25,1 -0.21875,0 -0.28125,0.25 -0.5,0.25 -0.75,0 -0.65625,-0.96875 -1,-1.625 -0.34375,-0.65625 -1,-0.875 -1.75,-0.875 -0.84375,0 -1.21875,0.5625 -2,0.875 -0.90625,0.34375 -1.4375,0.84375 -2,1.625 -0.75,1.03125 -1.375,1.59375 -2.125,2.625 -0.28125,0.375 -0.78125,0.53125 -0.875,1 -0.28125,1.21875 0,1.9375 0,3.1875 0,1.4375 -0.71875,2.53125 0.125,3.6875 0.59375,0.8125 1.53125,0.75 2.5625,0.75 0.5625,0 1.0625,0 1.4375,-0.375 0.375,-0.375 0.5,-0.875 1.03125,-0.875 H 171 v 0.90625 c 0,0.625 -0.59375,0.75 -1.125,1.09375 -1.21875,0.78125 -1.84375,1.34375 -3,2.25 -0.46875,0.34375 -0.1875,1 -0.25,1.625 -0.15625,1.4375 -0.875,2.1875 -0.875,3.625 0,0.84375 0.96875,0.96875 1.5,1.625 0.40625,0.53125 0.4375,1.0625 0.625,1.75 0.3125,1.125 0.90625,1.6875 1.125,2.875 0.46875,2.375 1.125,3.625 1.125,6 0,1.0625 -0.375,1.6875 -0.375,2.75 0,3.625 4.375,4.75 8,4.75 0.59375,0 0.8125,-0.59375 1,-1.125 0.46875,-1.25 1.78125,-1.28125 3.125,-1.375 -0.25,1.0625 -1.25,1.40625 -1.25,2.5 0,0.71875 0.34375,1.5 1.0625,1.5 0.53125,0 0.8125,-0.5 0.9375,-1 0.21875,-0.84375 0.15625,-1.375 0.25,-2.25 h 1.09375 c 0.78125,0 1.25,0.46875 1.65625,1.125 0.25,0.40625 0.15625,0.96875 0.625,1.125 0.40625,0.125 0.71875,0.0312 1.125,0.125 0.96875,0.25 1.09375,1.25 2,1.625 2.3125,1 3.625,1.46875 6.125,1.875 0.125,1.90625 1.21875,3.09375 2.875,4 1.5,0.84375 2.65625,0.375 4.375,0.5 z m 0,0"
           id="path179" />
      </g>
    </g>
    <g
       clip-path="url(#clip-16)"
       id="g182"
       transform="matrix(0.35277777,0,0,0.35277777,14.721583,-28.326947)">
      <path
         fill="none"
         stroke-width="1"
         stroke-linecap="butt"
         stroke-linejoin="miter"
         stroke="#918f90"
         stroke-opacity="1"
         stroke-miterlimit="3.864"
         d="M 0.00193125,9.8125e-4 C 0.00193125,58.903325 47.748025,106.65332 106.65037,106.65332 c 58.90625,0 106.65625,-47.749995 106.65625,-106.65233875 0,-58.90234425 -47.75,-106.65234125 -106.65625,-106.65234125 -58.902345,0 -106.64843875,47.749997 -106.64843875,106.65234125 z m 0,0"
         transform="matrix(1,0,0,-1,146.2676,507.7002)"
         id="path181" />
    </g>
    <g
       clip-path="url(#clip-17)"
       id="g183"
       transform="matrix(0.35277777,0,0,0.35277777,14.721583,-28.326947)">
      <path
         fill="none"
         stroke-width="1"
         stroke-linecap="butt"
         stroke-linejoin="miter"
         stroke="#d3d3d3"
         stroke-opacity="1"
         stroke-miterlimit="3.864"
         d="m -5e-5,-9.75e-4 c 0,0 39.28125,4.828125 56.03125,31.828125"
         transform="matrix(1,0,0,-1,303.5938,540.1084)"
         id="path182" />
    </g>
    <path
       fill="none"
       stroke-width="0.352778"
       stroke-linecap="butt"
       stroke-linejoin="miter"
       stroke="#d3d3d3"
       stroke-opacity="1"
       stroke-miterlimit="3.864"
       d="m 85.409429,162.58095 c 0,0 -13.185069,-0.92605 -19.005902,-10.53924"
       id="path183" />
    <path
       fill="none"
       stroke-width="0.352778"
       stroke-linecap="butt"
       stroke-linejoin="miter"
       stroke="#d3d3d3"
       stroke-opacity="1"
       stroke-miterlimit="3.864"
       d="m 122.01012,162.31637 c 0,0 1.01424,15.47812 -7.84931,24.73854"
       id="path184" />
    <g
       clip-path="url(#clip-18)"
       id="g186"
       transform="matrix(0.35277777,0,0,0.35277777,14.721583,-28.326947)">
      <g
         clip-path="url(#clip-19)"
         id="g185">
        <path
           fill-rule="evenodd"
           fill="#ffffff"
           fill-opacity="1"
           d="m 205.25,541.28125 -6.75,-1.25 1.75,-29.25 6.5,-32.75 11.5,-31.5 20,-30.75 16,-14.25 1.75,112.25 z m 0,0"
           id="path185" />
      </g>
    </g>
    <g
       clip-path="url(#clip-20)"
       id="g188"
       transform="matrix(0.35277777,0,0,0.35277777,14.721583,-28.326947)">
      <g
         clip-path="url(#clip-21)"
         id="g187">
        <path
           fill-rule="evenodd"
           fill="#f4f4f4"
           fill-opacity="1"
           d="m 200.5,541.03125 52.9375,-35.1875 54.4375,30.9375 0.25,10.125 -103.875,-0.5 z m 0,0"
           id="path186" />
      </g>
    </g>
    <g
       clip-path="url(#clip-22)"
       id="g190"
       transform="matrix(0.35277777,0,0,0.35277777,14.721583,-28.326947)">
      <g
         clip-path="url(#clip-23)"
         id="g189">
        <path
           fill="none"
           stroke-width="1"
           stroke-linecap="butt"
           stroke-linejoin="miter"
           stroke="#918f90"
           stroke-opacity="1"
           stroke-miterlimit="3.864"
           d="m 0,-9.5e-4 52.9375,35.1875 54.4375,-30.9375 0.25,-10.125 -103.875,0.5 z m 0,0"
           transform="matrix(1,0,0,-1,200.5,541.0303)"
           id="path188" />
      </g>
    </g>
    <g
       clip-path="url(#clip-24)"
       id="g192"
       transform="matrix(0.35277777,0,0,0.35277777,14.721583,-28.326947)">
      <g
         clip-path="url(#clip-25)"
         id="g191">
        <path
           fill-rule="evenodd"
           fill="#e9e9e9"
           fill-opacity="1"
           d="m 251.75,405.07031 v 101.96094 l 58.8125,37 3.1875,-39 -13.25,-33.75 -21.25,-38.5 -18,-22.5 z m 0,0"
           id="path190" />
      </g>
    </g>
    <g
       clip-path="url(#clip-26)"
       id="g194"
       transform="matrix(0.35277777,0,0,0.35277777,14.721583,-28.326947)">
      <g
         clip-path="url(#clip-27)"
         id="g193">
        <path
           fill="none"
           stroke-width="1"
           stroke-linecap="butt"
           stroke-linejoin="miter"
           stroke="#918f90"
           stroke-opacity="1"
           stroke-miterlimit="3.864"
           d="M 0,-1.25e-5 V -101.96095 l 58.8125,-37 3.1875,39 -13.25,33.75 -21.25,38.5 -18,22.5 z m 0,0"
           transform="matrix(1,0,0,-1,251.75,405.0703)"
           id="path192" />
      </g>
    </g>
    <path
       fill="none"
       stroke-width="0.352778"
       stroke-linecap="butt"
       stroke-linejoin="miter"
       stroke="#918f90"
       stroke-opacity="1"
       stroke-miterlimit="3.864"
       d="m 103.57748,115.85995 c 0,0 20.13038,19.49097 18.47674,46.34617 0,0 -16.84514,3.46164 -36.600698,0.37621 0,0 -0.79375,-24.44226 18.256248,-46.84365"
       id="path194" />
    <path
       fill-rule="evenodd"
       fill="#231f20"
       fill-opacity="1"
       d="m 102.96288,116.34501 c 0,-0.34864 0.2825,-0.63114 0.63114,-0.63114 0.34865,0 0.63114,0.2825 0.63114,0.63114 0,0.34864 -0.28249,0.63114 -0.63114,0.63114 -0.34864,0 -0.63114,-0.2825 -0.63114,-0.63114"
       id="path195"
       style="stroke-width:0.352778" />
    <path
       fill="none"
       stroke-width="0.306211"
       stroke-linecap="butt"
       stroke-linejoin="miter"
       stroke="#231f20"
       stroke-opacity="1"
       stroke-miterlimit="3.864"
       d="m 102.96287,116.34502 c 0,-0.34865 0.2825,-0.63115 0.63115,-0.63115 0.34864,0 0.63114,0.2825 0.63114,0.63115 0,0.34864 -0.2825,0.63114 -0.63114,0.63114 -0.34865,0 -0.63115,-0.2825 -0.63115,-0.63114 z m 0,0"
       id="path196" />
    <path
       fill="none"
       stroke-width="0.529167"
       stroke-linecap="butt"
       stroke-linejoin="miter"
       stroke="#918f90"
       stroke-opacity="1"
       stroke-dasharray="1, 1"
       stroke-miterlimit="3.864"
       d="m 90.30422,138.50387 13.18507,11.99444"
       id="path197" />
    <path
       fill-rule="evenodd"
       fill="#231f20"
       fill-opacity="1"
       d="m 89.376799,138.53005 c 0,-0.51814 0.420303,-0.93707 0.938446,-0.93707 0.519521,0 0.938445,0.41893 0.938445,0.93707 0,0.51952 -0.418924,0.93982 -0.938445,0.93982 -0.518143,0 -0.938446,-0.4203 -0.938446,-0.93982"
       id="path198"
       style="stroke-width:0.352778" />
    <path
       fill="none"
       stroke-width="0.456142"
       stroke-linecap="butt"
       stroke-linejoin="miter"
       stroke="#231f20"
       stroke-opacity="1"
       stroke-miterlimit="3.864"
       d="m 89.376801,138.53005 c 0,-0.51814 0.420301,-0.93707 0.938444,-0.93707 0.51952,0 0.938444,0.41893 0.938444,0.93707 0,0.51952 -0.418924,0.93982 -0.938444,0.93982 -0.518143,0 -0.938444,-0.4203 -0.938444,-0.93982 z m 0,0"
       id="path199" />
    <path
       fill-rule="evenodd"
       fill="#918f90"
       fill-opacity="1"
       d="m 92.509081,159.73668 0.358288,0.9977 -2.06981,-1.4249 2.497003,-0.28663 z m 0,0"
       id="path200"
       style="stroke-width:0.352778" />
    <path
       fill="none"
       stroke-width="0.352778"
       stroke-linecap="butt"
       stroke-linejoin="miter"
       stroke="#918f90"
       stroke-opacity="1"
       stroke-miterlimit="3.864"
       d="m 116.32158,159.03113 c 0,0 -11.66372,3.74826 -23.812499,0.70555"
       id="path201" />
    <g
       fill="#231f20"
       fill-opacity="1"
       id="g201"
       transform="matrix(0.35277777,0,0,0.35277777,14.721583,-28.326947)">
      <g
         id="use201"
         transform="translate(229.24609,531.74658)">
        <path
           d="m 4.625,-5.078125 c -1.84375,-0.0625 -3.59375,1.296875 -3.90625,3.265625 -0.203125,1.1875 0.4375,2.078125 1.59375,2.25 1,0.140625 1.96875,-0.5625 2.109375,-1.53125 0.1875,-1.15625 -0.46875,-1.859375 -1.390625,-1.984375 -0.421875,-0.0625 -0.828125,0 -1.140625,0.125 0.453125,-0.890625 1.40625,-1.59375 2.65625,-1.59375 z m -2.265625,4.96875 C 1.828125,-0.1875 1.375,-0.671875 1.484375,-1.4375 c 0.125,-0.859375 0.59375,-1.203125 1.28125,-1.109375 0.671875,0.09375 0.9375,0.703125 0.84375,1.3125 -0.09375,0.71875 -0.546875,1.21875 -1.25,1.125 z m 0,0"
           id="path263" />
      </g>
    </g>
    <g
       fill="#231f20"
       fill-opacity="1"
       id="g202"
       transform="matrix(0.35277777,0,0,0.35277777,14.721583,-28.326947)">
      <g
         id="use202"
         transform="translate(233.79491,532.41602)">
        <path
           d="m 2.265625,0.34375 c 1.125,0.125 2.046875,-0.96875 2.25,-2.78125 0.140625,-1.25 -0.28125,-2.84375 -1.625,-2.984375 -1.34375,-0.15625 -2.078125,1.3125 -2.21875,2.578125 -0.203125,1.796875 0.484375,3.0625 1.59375,3.1875 z m 0.0625,-0.5625 C 1.65625,-0.296875 1.328125,-1.125 1.5,-2.765625 1.65625,-4.203125 2.15625,-4.9375 2.828125,-4.859375 3.5,-4.796875 3.859375,-3.96875 3.703125,-2.53125 3.53125,-0.890625 3,-0.15625 2.328125,-0.21875 Z m 0,0"
           id="path260" />
      </g>
    </g>
    <g
       fill="#231f20"
       fill-opacity="1"
       id="g203"
       transform="matrix(0.35277777,0,0,0.35277777,14.721583,-28.326947)">
      <g
         id="use203"
         transform="translate(238.35941,532.89752)">
        <path
           d="M 1.8125,-3.046875 C 2.609375,-2.984375 3.15625,-3.5 3.21875,-4.234375 3.28125,-5.015625 2.671875,-5.515625 2,-5.5625 1.3125,-5.625 0.640625,-5.21875 0.578125,-4.4375 c -0.0625,0.734375 0.4375,1.328125 1.234375,1.390625 z M 1.828125,-3.375 C 1.28125,-3.421875 1.1875,-3.953125 1.21875,-4.390625 1.25,-4.8125 1.453125,-5.265625 1.96875,-5.21875 2.484375,-5.1875 2.625,-4.703125 2.59375,-4.28125 2.5625,-3.84375 2.375,-3.34375 1.828125,-3.375 Z m 0,0"
           id="path259" />
      </g>
    </g>
    <g
       fill="#231f20"
       fill-opacity="1"
       id="g205"
       transform="matrix(0.35277777,0,0,0.35277777,14.721583,-28.326947)">
      <g
         id="use205"
         transform="translate(243.748,533.26709)">
        <path
           d="M 0.671875,0.015625 3.78125,0.125 3.796875,-0.4375 1.46875,-0.515625 1.625,-5.546875 0.84375,-5.578125 Z m 0,0"
           id="path258" />
      </g>
    </g>
    <g
       fill="#231f20"
       fill-opacity="1"
       id="g206"
       transform="matrix(0.35277777,0,0,0.35277777,14.721583,-28.326947)">
      <g
         id="use206"
         transform="translate(247.58591,533.39447)">
        <path
           d="m 2.28125,0.09375 c 1.1875,0 1.984375,-0.90625 1.984375,-2.140625 0,-1.296875 -0.96875,-2.046875 -1.984375,-2.046875 -1,0 -1.96875,0.75 -1.96875,2.046875 0,1.234375 0.796875,2.140625 1.96875,2.140625 z m 0,-3.671875 c 0.90625,0 1.203125,0.8125 1.203125,1.53125 0,0.75 -0.25,1.625 -1.203125,1.625 -0.921875,0 -1.1875,-0.875 -1.1875,-1.625 0,-0.71875 0.296875,-1.53125 1.1875,-1.53125 z m 0,0"
           id="path257" />
      </g>
    </g>
    <g
       fill="#231f20"
       fill-opacity="1"
       id="g207"
       transform="matrix(0.35277777,0,0,0.35277777,14.721583,-28.326947)">
      <g
         id="use207"
         transform="translate(252.1895,533.39502)">
        <path
           d="m 1.15625,-4.046875 -0.703125,0.03125 0.140625,4 0.71875,-0.03125 -0.078125,-2.40625 C 1.203125,-3.21875 1.703125,-3.625 2.28125,-3.640625 2.921875,-3.671875 3.265625,-3.28125 3.296875,-2.53125 L 3.375,-0.109375 4.09375,-0.140625 4,-2.71875 c -0.03125,-1 -0.546875,-1.5 -1.46875,-1.46875 -0.421875,0.015625 -0.96875,0.21875 -1.359375,0.640625 z m 0,0"
           id="path249" />
      </g>
    </g>
    <g
       fill="#231f20"
       fill-opacity="1"
       id="g208"
       transform="matrix(0.35277777,0,0,0.35277777,14.721583,-28.326947)">
      <g
         id="use208"
         transform="translate(256.86331,533.23779)">
        <path
           d="m 2.1875,-0.578125 c -0.75,0.0625 -1.171875,-0.71875 -1.234375,-1.578125 -0.0625,-0.84375 0.25,-1.5 1.078125,-1.5625 0.796875,-0.046875 1.25,0.609375 1.296875,1.359375 C 3.390625,-1.46875 3.0625,-0.625 2.1875,-0.578125 Z m 1.71875,-3.6875 -0.703125,0.046875 0.03125,0.53125 H 3.21875 C 2.953125,-4.0625 2.4375,-4.265625 1.953125,-4.234375 c -1.140625,0.078125 -1.84375,1.125 -1.78125,2.171875 0.09375,1.28125 0.84375,2.09375 1.9375,2.015625 C 2.75,-0.09375 3.15625,-0.453125 3.40625,-0.859375 h 0.015625 l 0.046875,0.53125 C 3.53125,0.71875 3.046875,1.28125 2.234375,1.34375 1.734375,1.375 1.28125,1.328125 0.78125,1.078125 L 0.609375,1.5625 c 0.484375,0.265625 1.09375,0.328125 1.6875,0.296875 1.078125,-0.078125 1.96875,-0.75 1.859375,-2.28125 z m 0,0"
           id="path248" />
      </g>
    </g>
    <g
       fill="#231f20"
       fill-opacity="1"
       id="g209"
       transform="matrix(0.35277777,0,0,0.35277777,14.721583,-28.326947)">
      <g
         id="use209"
         transform="translate(261.59369,532.90381)">
        <path
           d="M 0.234375,-4.03125 0.59375,-0.046875 1.3125,-0.125 0.953125,-4.109375 Z m 0.28125,-0.859375 c 0.34375,-0.03125 0.4375,-0.328125 0.40625,-0.53125 C 0.90625,-5.625 0.71875,-5.84375 0.4375,-5.8125 0.140625,-5.796875 0,-5.546875 0.015625,-5.34375 c 0.03125,0.203125 0.140625,0.484375 0.5,0.453125 z m 0,0"
           id="path235" />
      </g>
    </g>
    <g
       fill="#231f20"
       fill-opacity="1"
       id="g210"
       transform="matrix(0.35277777,0,0,0.35277777,14.721583,-28.326947)">
      <g
         id="use210"
         transform="translate(263.4902,532.73682)">
        <path
           d="M 0.921875,-5.328125 0.234375,-5 0.34375,-4.0625 -0.21875,-4 l 0.046875,0.421875 0.5625,-0.0625 0.25,2.375 c 0.078125,0.8125 0.515625,1.234375 1.296875,1.15625 0.28125,-0.03125 0.5625,-0.15625 0.796875,-0.34375 L 2.5,-0.828125 C 2.390625,-0.75 2.234375,-0.671875 1.96875,-0.640625 1.53125,-0.59375 1.390625,-0.921875 1.328125,-1.46875 L 1.09375,-3.71875 2.140625,-3.828125 2.09375,-4.25 1.046875,-4.140625 Z m 0,0"
           id="path266" />
      </g>
    </g>
    <g
       fill="#231f20"
       fill-opacity="1"
       id="g211"
       transform="matrix(0.35277777,0,0,0.35277777,14.721583,-28.326947)">
      <g
         id="use211"
         transform="translate(266.24609,532.4541)">
        <path
           d="M 3.234375,-0.421875 3.9375,-0.515625 3.40625,-4.484375 2.6875,-4.390625 3,-2.0625 c 0.109375,0.75 -0.296875,1.25 -0.828125,1.328125 C 1.515625,-0.640625 1.15625,-1 1.0625,-1.734375 l -0.328125,-2.40625 -0.703125,0.09375 0.34375,2.5625 c 0.125,0.984375 0.6875,1.4375 1.59375,1.3125 0.53125,-0.0625 0.84375,-0.3125 1.203125,-0.71875 z m 0,0"
           id="path288" />
      </g>
    </g>
    <g
       fill="#231f20"
       fill-opacity="1"
       id="g212"
       transform="matrix(0.35277777,0,0,0.35277777,14.721583,-28.326947)">
      <g
         id="use212"
         transform="translate(270.78711,531.854)">
        <path
           d="m 2.125,-0.78125 c -0.734375,0.125 -1.25,-0.59375 -1.390625,-1.4375 -0.140625,-0.828125 0.09375,-1.546875 0.90625,-1.6875 0.78125,-0.125 1.3125,0.5 1.4375,1.25 0.140625,0.875 -0.09375,1.734375 -0.953125,1.875 z M 3.421875,-0.5625 4.125,-0.6875 3.15625,-6.484375 l -0.703125,0.125 0.390625,2.34375 H 2.828125 c -0.3125,-0.359375 -0.8125,-0.46875 -1.359375,-0.375 -1.078125,0.1875 -1.65625,1.296875 -1.484375,2.328125 0.203125,1.265625 1.03125,1.984375 2.09375,1.8125 0.65625,-0.109375 1.015625,-0.5 1.21875,-0.921875 H 3.3125 Z m 0,0"
           id="path299" />
      </g>
    </g>
    <g
       fill="#231f20"
       fill-opacity="1"
       id="g213"
       transform="matrix(0.35277777,0,0,0.35277777,14.721583,-28.326947)">
      <g
         id="use213"
         transform="translate(275.4707,531.07031)">
        <path
           d="M 3.296875,-2.65625 C 3.171875,-3.6875 2.578125,-4.6875 1.375,-4.453125 0.484375,-4.28125 -0.375,-3.46875 -0.09375,-2.09375 0.1875,-0.71875 1.140625,-0.125 2.359375,-0.375 2.765625,-0.453125 3.21875,-0.71875 3.5625,-1.109375 L 3.296875,-1.4375 c -0.234375,0.265625 -0.640625,0.484375 -1,0.5625 C 1.515625,-0.71875 0.8125,-1.34375 0.65625,-2.125 Z m -2.6875,0.046875 c -0.0625,-0.484375 0.09375,-1.1875 0.84375,-1.34375 0.625,-0.125 0.984375,0.34375 1.109375,0.953125 z m 0,0"
           id="path284" />
      </g>
    </g>
    <path
       fill-rule="evenodd"
       fill="#918f90"
       fill-opacity="1"
       d="m 93.732779,144.53416 -1.058333,0.0689 1.940278,-1.59577 -0.412034,2.47772 z m 0,0"
       id="path213"
       style="stroke-width:0.352778" />
    <path
       fill="none"
       stroke-width="0.352778"
       stroke-linecap="butt"
       stroke-linejoin="miter"
       stroke="#918f90"
       stroke-opacity="1"
       stroke-miterlimit="3.864"
       d="m 90.612901,158.6122 c 0,0 -0.451997,-7.94853 3.119878,-14.07804"
       id="path214" />
    <g
       fill="#231f20"
       fill-opacity="1"
       id="g214"
       transform="matrix(0.35277777,0,0,0.35277777,14.721583,-28.326947)">
      <g
         id="use214"
         transform="translate(212.6992,530.30078)">
        <path
           d="m -5.734375,-3.28125 0.015625,0.46875 3.75,2.734375 L -1.609375,-0.09375 -1.71875,-2.6875 -0.109375,-2.75 -0.140625,-3.5 -1.75,-3.4375 l -0.03125,-0.671875 -0.5625,0.03125 0.03125,0.671875 z m 3.515625,2.359375 -2.25,-1.640625 v -0.015625 l 2.1875,-0.078125 z m 0,0"
           id="path457" />
      </g>
    </g>
    <g
       fill="#231f20"
       fill-opacity="1"
       id="g215"
       transform="matrix(0.35277777,0,0,0.35277777,14.721583,-28.326947)">
      <g
         id="use215"
         transform="translate(212.5195,525.72607)">
        <path
           d="m 0.125,-2.296875 c 0.015625,-1.125 -1.140625,-1.953125 -2.96875,-1.96875 -1.265625,-0.015625 -2.8125,0.546875 -2.828125,1.890625 -0.015625,1.359375 1.5,1.96875 2.78125,1.984375 1.8125,0.015625 3,-0.78125 3.015625,-1.90625 z m -0.5625,0 C -0.453125,-1.625 -1.234375,-1.203125 -2.890625,-1.21875 -4.34375,-1.25 -5.125,-1.6875 -5.109375,-2.359375 c 0,-0.671875 0.796875,-1.109375 2.25,-1.078125 1.65625,0.015625 2.421875,0.46875 2.421875,1.140625 z m 0,0"
           id="path456" />
      </g>
    </g>
    <g
       fill="#231f20"
       fill-opacity="1"
       id="g216"
       transform="matrix(0.35277777,0,0,0.35277777,14.721583,-28.326947)">
      <g
         id="use216"
         transform="translate(212.5937,521.12793)">
        <path
           d="m -5.234375,-1.765625 c 0.015625,-0.40625 0.421875,-0.734375 0.8125,-0.71875 0.390625,0.03125 0.734375,0.40625 0.71875,0.796875 -0.015625,0.390625 -0.390625,0.75 -0.8125,0.71875 -0.40625,-0.015625 -0.734375,-0.375 -0.71875,-0.796875 z m 1.90625,0.09375 c 0.03125,-0.625 -0.453125,-1.15625 -1.078125,-1.203125 -0.625,-0.03125 -1.171875,0.46875 -1.203125,1.09375 -0.03125,0.625 0.46875,1.171875 1.078125,1.203125 0.625,0.046875 1.171875,-0.46875 1.203125,-1.09375 z m 0,0"
           id="path455" />
      </g>
    </g>
    <g
       fill="#231f20"
       fill-opacity="1"
       id="g218"
       transform="matrix(0.35277777,0,0,0.35277777,14.721583,-28.326947)">
      <g
         id="use218"
         transform="translate(212.93159,515.89398)">
        <path
           d="M 0.078125,-0.671875 0.4375,-3.75 -0.125,-3.8125 -0.390625,-1.5 l -5,-0.578125 -0.09375,0.765625 z m 0,0"
           id="path454" />
      </g>
    </g>
    <g
       fill="#231f20"
       fill-opacity="1"
       id="g219"
       transform="matrix(0.35277777,0,0,0.35277777,14.721583,-28.326947)">
      <g
         id="use219"
         transform="translate(213.37109,512.0542)">
        <path
           d="m -0.234375,-2.796875 c 0.25,0.046875 0.5,0.0625 0.6875,0 l 0.125,-0.765625 C 0.28125,-3.46875 -0.09375,-3.5 -0.390625,-3.546875 l -1.75,-0.28125 c -1.15625,-0.1875 -1.5,0.65625 -1.59375,1.25 -0.09375,0.546875 0,0.96875 0.328125,1.421875 L -3,-1.359375 c -0.203125,-0.34375 -0.34375,-0.65625 -0.265625,-1.09375 0.0625,-0.390625 0.4375,-0.734375 0.90625,-0.6875 l 0.15625,1 C -2.09375,-1.25 -1.75,-0.609375 -1.078125,-0.5 -0.34375,-0.375 0.21875,-0.75 0.328125,-1.421875 0.390625,-1.78125 0.1875,-2.171875 -0.046875,-2.5 Z M -1.875,-3.0625 c 1.25,0.109375 1.75,0.859375 1.671875,1.359375 -0.046875,0.28125 -0.34375,0.53125 -0.75,0.46875 -0.5,-0.078125 -0.75,-0.453125 -0.828125,-1.109375 z m 0,0"
           id="path453" />
      </g>
    </g>
    <g
       fill="#231f20"
       fill-opacity="1"
       id="g220"
       transform="matrix(0.35277777,0,0,0.35277777,14.721583,-28.326947)">
      <g
         id="use220"
         transform="translate(214.0273,508.13089)">
        <path
           d="m -4.796875,-2.515625 0.109375,0.75 0.921875,0.203125 -0.109375,0.546875 0.421875,0.078125 0.109375,-0.546875 2.34375,0.5 c 0.796875,0.15625 1.328125,-0.109375 1.484375,-0.890625 0.0625,-0.28125 0.03125,-0.59375 -0.078125,-0.859375 l -0.421875,0.09375 C 0.03125,-2.5 0.0625,-2.34375 0,-2.078125 c -0.078125,0.421875 -0.453125,0.46875 -0.984375,0.359375 l -2.21875,-0.46875 0.21875,-1.03125 -0.421875,-0.078125 -0.21875,1.03125 z m 0,0"
           id="path452" />
      </g>
    </g>
    <g
       fill="#231f20"
       fill-opacity="1"
       id="g221"
       transform="matrix(0.35277777,0,0,0.35277777,14.721583,-28.326947)">
      <g
         id="use221"
         transform="translate(214.5957,505.42679)">
        <path
           d="m -3.75,-1.515625 3.890625,0.9375 L 0.3125,-1.28125 -3.578125,-2.21875 Z M -4.46875,-2.0625 C -4.375,-2.40625 -4.640625,-2.5625 -4.828125,-2.609375 -5.03125,-2.65625 -5.296875,-2.5625 -5.375,-2.28125 c -0.0625,0.28125 0.140625,0.5 0.34375,0.546875 0.1875,0.046875 0.484375,0.015625 0.5625,-0.328125 z m 0,0"
           id="path451" />
      </g>
    </g>
    <g
       fill="#231f20"
       fill-opacity="1"
       id="g222"
       transform="matrix(0.35277777,0,0,0.35277777,14.721583,-28.326947)">
      <g
         id="use222"
         transform="translate(215.03909,503.56149)">
        <path
           d="m -4.609375,-2.828125 0.046875,0.765625 0.90625,0.25 -0.15625,0.53125 0.40625,0.109375 0.15625,-0.53125 2.3125,0.65625 c 0.78125,0.21875 1.34375,-0.015625 1.546875,-0.78125 0.078125,-0.28125 0.0625,-0.59375 -0.015625,-0.875 l -0.453125,0.0625 c 0.046875,0.15625 0.0625,0.3125 0,0.578125 -0.125,0.421875 -0.46875,0.421875 -1,0.265625 l -2.1875,-0.609375 0.28125,-1 -0.40625,-0.109375 -0.28125,1 z m 0,0"
           id="path450" />
      </g>
    </g>
    <g
       fill="#231f20"
       fill-opacity="1"
       id="g223"
       transform="matrix(0.35277777,0,0,0.35277777,14.721583,-28.326947)">
      <g
         id="use223"
         transform="translate(215.75,500.91019)">
        <path
           d="M 1.0625,-3.09375 1.28125,-3.75 -2.5,-5.046875 -2.734375,-4.375 l 2.21875,0.765625 c 0.71875,0.25 1.015625,0.828125 0.84375,1.34375 -0.21875,0.625 -0.6875,0.78125 -1.40625,0.53125 l -2.28125,-0.78125 -0.234375,0.6875 L -1.15625,-1 c 0.9375,0.328125 1.59375,0.03125 1.890625,-0.828125 C 0.90625,-2.328125 0.8125,-2.734375 0.625,-3.25 Z m 0,0"
           id="path449" />
      </g>
    </g>
    <g
       fill="#231f20"
       fill-opacity="1"
       id="g224"
       transform="matrix(0.35277777,0,0,0.35277777,14.721583,-28.326947)">
      <g
         id="use224"
         transform="translate(217.2305,496.57031)">
        <path
           d="M 0.5,-2.203125 C 0.203125,-1.515625 -0.671875,-1.5 -1.46875,-1.84375 -2.234375,-2.1875 -2.6875,-2.75 -2.34375,-3.515625 c 0.3125,-0.71875 1.125,-0.8125 1.8125,-0.515625 C 0.28125,-3.671875 0.859375,-3 0.5,-2.203125 Z m 0.90625,-0.96875 0.28125,-0.65625 -5.375,-2.375 -0.28125,0.65625 2.171875,0.96875 L -1.8125,-4.5625 c -0.453125,0.046875 -0.84375,0.421875 -1.0625,0.921875 -0.4375,1 0.171875,2.109375 1.125,2.53125 1.171875,0.515625 2.234375,0.21875 2.671875,-0.78125 C 1.1875,-2.484375 1.0625,-3 0.8125,-3.40625 l 0.015625,-0.015625 z m 0,0"
           id="path448" />
      </g>
    </g>
    <g
       fill="#231f20"
       fill-opacity="1"
       id="g225"
       transform="matrix(0.35277777,0,0,0.35277777,14.721583,-28.326947)">
      <g
         id="use225"
         transform="translate(219.166,492.21289)">
        <path
           d="M 0.125,-4.25 C -0.75,-4.8125 -1.90625,-5 -2.5,-3.9375 c -0.4375,0.796875 -0.375,1.984375 0.84375,2.65625 1.21875,0.6875 2.296875,0.328125 2.890625,-0.765625 0.21875,-0.359375 0.3125,-0.859375 0.25,-1.390625 L 1.03125,-3.453125 C 1.09375,-3.09375 0.984375,-2.625 0.796875,-2.3125 0.421875,-1.625 -0.5,-1.484375 -1.1875,-1.875 Z m -1.703125,2.09375 c -0.421875,-0.265625 -0.84375,-0.828125 -0.46875,-1.5 0.3125,-0.5625 0.890625,-0.546875 1.4375,-0.25 z m 0,0"
           id="path447" />
      </g>
    </g>
    <g
       fill="#ffffff"
       fill-opacity="1"
       id="g227"
       transform="matrix(0.35277777,0,0,0.35277777,14.721583,-28.326947)">
      <g
         id="use226"
         transform="translate(254.3125,409.4429)">
        <path
           d="M 4.1875,-4.203125 H 3.703125 v 3.34375 H 3.6875 c -0.28125,-0.40625 -1.828125,-2.25 -2.75,-3.34375 H 0.5 V 0 H 0.984375 V -3.34375 H 1 c 0.25,0.375 1.8125,2.25 2.71875,3.34375 H 4.1875 Z m 0,0"
           id="path446" />
      </g>
      <g
         id="use227"
         transform="translate(258.81851,409.4429)">
        <path
           d="m 1.71875,0.078125 c 0.890625,0 1.484375,-0.6875 1.484375,-1.609375 0,-0.984375 -0.734375,-1.546875 -1.484375,-1.546875 -0.765625,0 -1.484375,0.5625 -1.484375,1.546875 0,0.921875 0.59375,1.609375 1.484375,1.609375 z m 0,-2.765625 c 0.671875,0 0.890625,0.609375 0.890625,1.15625 0,0.5625 -0.1875,1.21875 -0.890625,1.21875 -0.703125,0 -0.890625,-0.65625 -0.890625,-1.21875 0,-0.546875 0.21875,-1.15625 0.890625,-1.15625 z m 0,0"
           id="path444" />
      </g>
    </g>
    <g
       fill="#ffffff"
       fill-opacity="1"
       id="g229"
       transform="matrix(0.35277777,0,0,0.35277777,14.721583,-28.326947)">
      <g
         id="use228"
         transform="translate(262.07651,409.4429)">
        <path
           d="M 0.96875,-3 H 0.4375 v 3 h 0.546875 v -1.609375 c 0,-0.671875 0.234375,-0.953125 0.5,-0.953125 0.140625,0 0.28125,0.0625 0.40625,0.125 l 0.25,-0.34375 c -0.171875,-0.1875 -0.375,-0.296875 -0.5,-0.296875 -0.125,0 -0.328125,0.09375 -0.453125,0.21875 L 0.96875,-2.625 Z m 0,0"
           id="path443" />
      </g>
      <g
         id="use229"
         transform="translate(264.16449,409.4429)">
        <path
           d="M 1.109375,-3.90625 0.5625,-3.71875 V -3 H 0.15625 v 0.3125 H 0.5625 v 1.796875 c 0,0.609375 0.296875,0.96875 0.890625,0.96875 C 1.65625,0.078125 1.890625,0 2.0625,-0.125 l -0.125,-0.296875 c -0.09375,0.0625 -0.21875,0.109375 -0.40625,0.109375 -0.34375,0 -0.421875,-0.25 -0.421875,-0.671875 V -2.6875 h 0.78125 V -3 h -0.78125 z m 0,0"
           id="path442" />
      </g>
    </g>
    <g
       fill="#ffffff"
       fill-opacity="1"
       id="g235"
       transform="matrix(0.35277777,0,0,0.35277777,14.721583,-28.326947)">
      <g
         id="use230"
         transform="translate(266.2345,409.4429)">
        <path
           d="M 0.984375,-4.40625 H 0.4375 V 0 h 0.546875 v -1.8125 c 0,-0.5625 0.390625,-0.859375 0.8125,-0.859375 0.484375,0 0.734375,0.296875 0.734375,0.859375 V 0 H 3.0625 v -1.9375 c 0,-0.75 -0.375,-1.140625 -1.0625,-1.140625 -0.3125,0 -0.734375,0.15625 -1.015625,0.453125 z m 0,0"
           id="path441" />
      </g>
      <g
         id="use231"
         transform="translate(269.56451,409.4429)" />
      <g
         id="use232"
         transform="translate(271.10651,409.4429)">
        <path
           d="m 1.09375,-3.78125 h 0.390625 c 0.625,0 0.890625,0.34375 0.890625,0.796875 0,0.625 -0.359375,0.921875 -0.921875,0.953125 l -0.1875,0.015625 v 0.375 h 0.1875 C 2.390625,-1.640625 3,-2.28125 3,-2.984375 3,-3.796875 2.453125,-4.203125 1.5625,-4.203125 H 0.5 V 0 h 0.59375 z m 0,0"
           id="path440" />
      </g>
      <g
         id="use233"
         transform="translate(274.1485,409.4429)">
        <path
           d="m 1.71875,0.078125 c 0.890625,0 1.484375,-0.6875 1.484375,-1.609375 0,-0.984375 -0.734375,-1.546875 -1.484375,-1.546875 -0.765625,0 -1.484375,0.5625 -1.484375,1.546875 0,0.921875 0.59375,1.609375 1.484375,1.609375 z m 0,-2.765625 c 0.671875,0 0.890625,0.609375 0.890625,1.15625 0,0.5625 -0.1875,1.21875 -0.890625,1.21875 -0.703125,0 -0.890625,-0.65625 -0.890625,-1.21875 0,-0.546875 0.21875,-1.15625 0.890625,-1.15625 z m 0,0"
           id="path445" />
      </g>
      <g
         id="use234"
         transform="translate(277.40649,409.4429)">
        <path
           d="M 0.984375,0 V -4.40625 H 0.4375 V 0 Z m 0,0"
           id="path439" />
      </g>
      <g
         id="use235"
         transform="translate(278.65451,409.4429)">
        <path
           d="M 2.8125,-1.46875 C 2.875,-2.25 2.578125,-3.078125 1.65625,-3.078125 c -0.671875,0 -1.421875,0.484375 -1.421875,1.515625 0,1.0625 0.625,1.640625 1.5625,1.640625 0.3125,0 0.6875,-0.125 1,-0.359375 L 2.640625,-0.5625 c -0.21875,0.15625 -0.546875,0.25 -0.828125,0.25 -0.59375,0 -1.015625,-0.546875 -1.015625,-1.15625 z M 0.828125,-1.828125 c 0.03125,-0.375 0.25,-0.859375 0.828125,-0.859375 0.46875,0 0.671875,0.390625 0.671875,0.859375 z m 0,0"
           id="path438" />
      </g>
    </g>
    <g
       fill="#231f20"
       fill-opacity="1"
       id="g236"
       transform="matrix(0.35277777,0,0,0.35277777,14.721583,-28.326947)">
      <g
         id="use236"
         transform="translate(317.1777,533.06299)">
        <path
           d="m 2.5,-6.484375 -2.40625,0.65625 0.484375,5.671875 2.6875,-0.75 L 3.21875,-1.421875 1.203125,-0.875 l -0.1875,-2.203125 1.6875,-0.46875 -0.046875,-0.53125 -1.671875,0.46875 -0.15625,-1.875 1.71875,-0.46875 z m 0,0"
           id="path437" />
      </g>
    </g>
    <g
       fill="#231f20"
       fill-opacity="1"
       id="g237"
       transform="matrix(0.35277777,0,0,0.35277777,14.721583,-28.326947)">
      <g
         id="use237"
         transform="translate(320.74799,532.0874)">
        <path
           d="m 2.453125,-3.734375 c 0.34375,1.40625 -0.1875,2.5 -0.8125,2.703125 -0.40625,0.140625 -0.75,-0.09375 -0.9375,-0.671875 -0.4375,-1.3125 0,-2.328125 0.765625,-2.578125 0.4375,-0.140625 0.921875,0.171875 0.984375,0.546875 z m 0.46875,-1.4375 -0.625,0.203125 0.0625,0.453125 H 2.34375 C 2.078125,-4.78125 1.65625,-4.859375 1.328125,-4.75 c -1.171875,0.390625 -1.734375,1.90625 -1.28125,3.28125 0.28125,0.828125 0.96875,1.234375 1.546875,1.046875 0.640625,-0.21875 1.046875,-0.984375 1.140625,-1.296875 L 2.75,-1.703125 3.109375,1.09375 3.71875,0.875 Z m 0,0"
           id="path436" />
      </g>
    </g>
    <g
       fill="#231f20"
       fill-opacity="1"
       id="g238"
       transform="matrix(0.35277777,0,0,0.35277777,14.721583,-28.326947)">
      <g
         id="use238"
         transform="translate(324.8418,530.73578)">
        <path
           d="M 2.765625,-1.078125 3.34375,-1.296875 2.609375,-5.3125 2.015625,-5.078125 2.28125,-3.71875 c 0.203125,1.03125 -0.171875,2.4375 -0.75,2.65625 C 1.203125,-0.9375 0.953125,-1 0.84375,-1.3125 0.765625,-1.5 0.671875,-1.78125 0.65625,-1.921875 L 0.25,-4.390625 -0.359375,-4.15625 0.09375,-1.625 c 0.03125,0.28125 0.078125,0.4375 0.1875,0.703125 0.171875,0.453125 0.625,0.671875 1.0625,0.5 C 1.96875,-0.65625 2.578125,-1.375 2.5625,-2.328125 L 2.59375,-2.3125 Z m 0,0"
           id="path435" />
      </g>
    </g>
    <g
       fill="#231f20"
       fill-opacity="1"
       id="g239"
       transform="matrix(0.35277777,0,0,0.35277777,14.721583,-28.326947)">
      <g
         id="use239"
         transform="translate(328.84369,529.18359)">
        <path
           d="m 2.046875,-3.96875 c 0.5,1.359375 0.078125,2.53125 -0.53125,2.796875 -0.375,0.171875 -0.75,-0.0625 -1,-0.609375 -0.5625,-1.25 -0.25,-2.296875 0.5,-2.640625 0.40625,-0.1875 0.921875,0.09375 1.03125,0.453125 z M 2.359375,-5.453125 1.765625,-5.1875 1.875,-4.734375 V -4.71875 C 1.578125,-4.96875 1.15625,-5 0.84375,-4.859375 c -1.140625,0.5 -1.53125,2.0625 -0.9375,3.390625 0.34375,0.78125 1.0625,1.125 1.625,0.875 0.625,-0.28125 0.9375,-1.078125 1,-1.390625 l 0.015625,0.015625 0.171875,0.75 0.609375,-0.265625 z m 0,0"
           id="path434" />
      </g>
    </g>
    <g
       fill="#231f20"
       fill-opacity="1"
       id="g240"
       transform="matrix(0.35277777,0,0,0.35277777,14.721583,-28.326947)">
      <g
         id="use240"
         transform="translate(332.77151,527.40277)">
        <path
           d="m 1.890625,-1.515625 c -0.125,0.125 -0.296875,0.28125 -0.484375,0.375 C 1.125,-1 0.9375,-1.1875 0.8125,-1.640625 L 0.109375,-4.0625 0.953125,-4.484375 0.84375,-4.90625 0,-4.484375 -0.328125,-5.65625 l -0.515625,0.546875 0.265625,0.921875 -0.453125,0.21875 0.109375,0.421875 0.4375,-0.21875 0.671875,2.359375 c 0.21875,0.75 0.65625,1.078125 1.296875,0.765625 0.21875,-0.109375 0.4375,-0.3125 0.640625,-0.53125 z m 0,0"
           id="path433" />
      </g>
    </g>
    <g
       fill="#231f20"
       fill-opacity="1"
       id="g241"
       transform="matrix(0.35277777,0,0,0.35277777,14.721583,-28.326947)">
      <g
         id="use241"
         transform="translate(335.16409,526.21832)">
        <path
           d="m 0.34375,-4.890625 c -1.1875,0.671875 -1.28125,2.15625 -0.703125,3.1875 0.390625,0.6875 1.265625,1.296875 2.28125,0.734375 1.03125,-0.578125 1.1875,-2.015625 0.5625,-3.125 -0.5,-0.90625 -1.4375,-1.1875 -2.140625,-0.796875 z m 0.171875,0.46875 C 1.25,-4.84375 1.765625,-4 1.90625,-3.75 2.40625,-2.859375 2.375,-1.78125 1.6875,-1.390625 0.953125,-0.984375 0.40625,-1.75 0.234375,-2.046875 c -0.46875,-0.84375 -0.5,-1.953125 0.28125,-2.375 z m 0,0"
           id="path432" />
      </g>
    </g>
    <g
       fill="#231f20"
       fill-opacity="1"
       id="g242"
       transform="matrix(0.35277777,0,0,0.35277777,14.721583,-28.326947)">
      <g
         id="use242"
         transform="translate(338.7832,524.17719)">
        <path
           d="M -0.515625,-4.375 -1.0625,-4.046875 0.40625,-0.25 0.96875,-0.609375 0.3125,-2.28125 C -0.109375,-3.421875 -0.015625,-4.0625 0.359375,-4.296875 0.546875,-4.40625 0.703125,-4.4375 0.78125,-4.453125 l 0.046875,-0.5625 C 0.625,-5.046875 0.4375,-5.09375 0.25,-4.984375 -0.140625,-4.734375 -0.203125,-4.375 -0.265625,-3.75 l -0.03125,-0.015625 z m 0,0"
           id="path431" />
      </g>
    </g>
    <g
       fill="#231f20"
       fill-opacity="1"
       id="g243"
       transform="matrix(0.35277777,0,0,0.35277777,14.721583,-28.326947)">
      <g
         id="use243"
         transform="translate(293.3613,466.668)">
        <path
           d="m 5.546875,0.28125 0.15625,0.4375 C 5.953125,1.375 5.453125,1.890625 5.125,2 4.03125,2.390625 3.53125,1.625 3.328125,1.125 L 3.265625,0.921875 2.75,1.03125 C 3.34375,2.625 4.46875,3.015625 5.390625,2.65625 6.4375,2.25 6.46875,1.25 6.234375,0.640625 L 5.8125,-0.46875 0.21875,0.546875 l 0.25,0.671875 z m 0,0"
           id="path43" />
      </g>
    </g>
    <g
       fill="#231f20"
       fill-opacity="1"
       id="g244"
       transform="matrix(0.35277777,0,0,0.35277777,14.721583,-28.326947)">
      <g
         id="use244"
         transform="translate(294.83981,470.54001)">
        <path
           d="m 4.390625,0.390625 -0.21875,-0.609375 -4,0.671875 0.21875,0.625 1.765625,-0.3125 C 3.375,0.578125 3.984375,0.8125 4.140625,1.234375 4.21875,1.4375 4.21875,1.59375 4.203125,1.671875 L 4.75,1.828125 C 4.828125,1.640625 4.890625,1.453125 4.8125,1.25 4.65625,0.828125 4.328125,0.703125 3.734375,0.5 V 0.46875 Z m 0,0"
           id="path42" />
      </g>
    </g>
    <g
       fill="#231f20"
       fill-opacity="1"
       id="g245"
       transform="matrix(0.35277777,0,0,0.35277777,14.721583,-28.326947)">
      <g
         id="use245"
         transform="translate(295.75589,473.04639)">
        <path
           d="M 4.171875,-0.1875 0.15625,0.453125 0.375,1.078125 4.40625,0.4375 Z M 5.125,0 C 5.234375,0.28125 5.609375,0.359375 5.84375,0.28125 5.953125,0.25 6.140625,0.09375 6.046875,-0.15625 5.96875,-0.390625 5.671875,-0.546875 5.375,-0.453125 5.28125,-0.421875 5.015625,-0.3125 5.125,0 Z m 0,0"
           id="path31" />
      </g>
    </g>
    <g
       fill="#231f20"
       fill-opacity="1"
       id="g246"
       transform="matrix(0.35277777,0,0,0.35277777,14.721583,-28.326947)">
      <g
         id="use246"
         transform="translate(296.37891,474.73489)">
        <path
           d="M 4.390625,0.484375 4.1875,-0.109375 0.15625,0.453125 0.359375,1.0625 1.8125,0.84375 C 3.375,0.625 4.203125,1.3125 4.328125,1.6875 4.5,2.171875 4.140625,2.296875 3.234375,2.4375 L 0.921875,2.75 1.140625,3.359375 2.59375,3.140625 C 4.15625,2.921875 4.984375,3.609375 5.109375,4 5.265625,4.46875 4.90625,4.59375 4.015625,4.734375 l -2.3125,0.3125 0.203125,0.609375 2.3125,-0.3125 C 5.640625,5.125 5.921875,4.765625 5.65625,3.96875 5.46875,3.390625 4.671875,2.96875 4.21875,2.890625 V 2.875 C 4.78125,2.734375 5.125,2.421875 4.921875,1.796875 4.703125,1.125 3.96875,0.734375 3.4375,0.609375 l 0.015625,-0.03125 z m 0,0"
           id="path30" />
      </g>
    </g>
    <g
       fill="#231f20"
       fill-opacity="1"
       id="g247"
       transform="matrix(0.35277777,0,0,0.35277777,14.721583,-28.326947)">
      <g
         id="use247"
         transform="translate(298.47461,480.99799)">
        <path
           d="M 1.609375,2.78125 C 1.4375,2.59375 1.109375,2.25 1,1.859375 0.75,1.078125 1.46875,0.796875 1.984375,0.640625 2.28125,1.9375 3.28125,3.046875 4.21875,2.765625 4.84375,2.5625 4.921875,2.015625 4.78125,1.578125 4.359375,0.25 2.625,-0.28125 1.484375,0.078125 0.640625,0.34375 0.1875,0.90625 0.4375,1.734375 0.59375,2.203125 0.859375,2.6875 1.28125,3.09375 Z M 2.453125,0.609375 C 3.25,0.53125 4.09375,1 4.25,1.515625 4.34375,1.796875 4.203125,2.0625 3.875,2.140625 3.390625,2.25 2.6875,1.6875 2.453125,0.609375 Z m 0,0"
           id="path24" />
      </g>
    </g>
    <g
       fill="#231f20"
       fill-opacity="1"
       id="g249"
       transform="matrix(0.35277777,0,0,0.35277777,14.721583,-28.326947)">
      <g
         id="use249"
         transform="translate(300.23831,486.63959)">
        <path
           d="M 7.296875,5.34375 7.109375,4.703125 C 5.4375,4.125 3.78125,3.578125 1.921875,3.046875 c 1.5,-0.78125 2.796875,-1.53125 4.09375,-2.28125 L 5.8125,0.03125 0.140625,0.53125 0.3125,1.125 C 1.75,1.015625 3.15625,0.890625 4.890625,0.640625 V 0.65625 C 3.328125,1.484375 2.078125,2.21875 0.8125,2.9375 L 0.890625,3.203125 C 2.5,3.734375 4.09375,4.265625 6.046875,4.796875 L 6.03125,4.8125 C 4.28125,4.921875 2.859375,5.046875 1.4375,5.171875 L 1.625,5.84375 Z m 0,0"
           id="path23" />
      </g>
    </g>
    <g
       fill="#231f20"
       fill-opacity="1"
       id="g250"
       transform="matrix(0.35277777,0,0,0.35277777,14.721583,-28.326947)">
      <g
         id="use250"
         transform="translate(302.08789,493.37061)">
        <path
           d="M 1.453125,2.859375 C 1.28125,2.671875 0.96875,2.296875 0.875,1.90625 0.671875,1.125 1.40625,0.875 1.953125,0.78125 2.171875,2.0625 3.09375,3.25 4.03125,3 4.671875,2.84375 4.796875,2.296875 4.6875,1.84375 4.34375,0.484375 2.640625,-0.109375 1.46875,0.171875 0.625,0.390625 0.125,0.90625 0.34375,1.75 c 0.109375,0.484375 0.359375,0.984375 0.75,1.421875 z M 2.40625,0.75 c 0.8125,-0.03125 1.625,0.484375 1.75,1.015625 C 4.234375,2.046875 4.078125,2.296875 3.75,2.359375 3.265625,2.4375 2.59375,1.84375 2.40625,0.75 Z m 0,0"
           id="path2" />
      </g>
    </g>
    <g
       fill="#231f20"
       fill-opacity="1"
       id="g251"
       transform="matrix(0.35277777,0,0,0.35277777,14.721583,-28.326947)">
      <g
         id="use251"
         transform="translate(302.9805,496.96341)">
        <path
           d="m 4.3125,0.921875 -0.140625,-0.625 -4.0625,0.171875 0.15625,0.640625 1.78125,-0.078125 C 3.28125,0.984375 3.84375,1.28125 3.9375,1.734375 4,1.9375 3.984375,2.09375 3.96875,2.171875 L 4.484375,2.375 C 4.5625,2.234375 4.671875,2.046875 4.625,1.828125 c -0.109375,-0.4375 -0.40625,-0.625 -1,-0.875 L 3.640625,0.9375 Z m 0,0"
           id="path704" />
      </g>
    </g>
    <g
       fill="#231f20"
       fill-opacity="1"
       id="g252"
       transform="matrix(0.35277777,0,0,0.35277777,14.721583,-28.326947)">
      <g
         id="use252"
         transform="translate(303.582,499.55621)">
        <path
           d="m 4.171875,0.34375 -4.0625,0.125 L 0.25,1.109375 4.3125,0.984375 Z M 5.09375,0.640625 C 5.15625,0.953125 5.5,1.0625 5.75,1.015625 5.859375,0.984375 6.0625,0.859375 6.015625,0.59375 5.953125,0.359375 5.6875,0.15625 5.375,0.234375 5.28125,0.25 5.015625,0.328125 5.09375,0.640625 Z m 0,0"
           id="path703" />
      </g>
    </g>
    <g
       fill="#231f20"
       fill-opacity="1"
       id="g253"
       transform="matrix(0.35277777,0,0,0.35277777,14.721583,-28.326947)">
      <g
         id="use253"
         transform="translate(303.9805,501.31491)">
        <path
           d="M 3.421875,2.890625 C 1.96875,3.0625 0.9375,2.390625 0.8125,1.75 0.71875,1.328125 1.015625,1.015625 1.609375,0.890625 2.96875,0.625 3.90625,1.1875 4.0625,1.984375 c 0.09375,0.4375 -0.265625,0.875 -0.640625,0.90625 z m 3.28125,0.59375 -0.125,-0.625 -2.375,0.015625 V 2.859375 C 4.5,2.640625 4.625,2.21875 4.5625,1.890625 4.3125,0.671875 2.859375,-0.0625 1.4375,0.234375 0.59375,0.40625 0.109375,1.03125 0.234375,1.625 c 0.125,0.671875 0.84375,1.15625 1.125,1.28125 V 2.9375 L 0.59375,2.921875 0.71875,3.5625 Z m 0,0"
           id="path702" />
      </g>
    </g>
    <g
       fill="#231f20"
       fill-opacity="1"
       id="g254"
       transform="matrix(0.35277777,0,0,0.35277777,14.721583,-28.326947)">
      <g
         id="use254"
         transform="translate(304.81641,505.54541)">
        <path
           d="M 4.15625,0.515625 0.09375,0.484375 0.203125,1.125 l 4.0625,0.03125 z m 0.90625,0.3125 c 0.046875,0.3125 0.40625,0.4375 0.65625,0.40625 C 5.8125,1.203125 6.03125,1.09375 5.984375,0.828125 5.9375,0.578125 5.671875,0.375 5.375,0.4375 5.28125,0.453125 5,0.515625 5.0625,0.828125 Z m 0,0"
           id="path701" />
      </g>
    </g>
    <g
       fill="#231f20"
       fill-opacity="1"
       id="g255"
       transform="matrix(0.35277777,0,0,0.35277777,14.721583,-28.326947)">
      <g
         id="use255"
         transform="translate(305.15039,507.3223)">
        <path
           d="M 3.296875,3.015625 C 1.84375,3.140625 0.84375,2.421875 0.75,1.78125 0.6875,1.359375 0.96875,1.0625 1.578125,0.96875 2.9375,0.75 3.859375,1.328125 3.984375,2.140625 4.0625,2.578125 3.6875,3 3.296875,3.015625 Z M 4.640625,3.71875 4.53125,3.0625 4.078125,3.046875 4.0625,3.03125 C 4.390625,2.8125 4.53125,2.421875 4.484375,2.078125 4.28125,0.859375 2.875,0.078125 1.4375,0.296875 0.59375,0.4375 0.0625,1.03125 0.15625,1.640625 0.265625,2.3125 0.96875,2.828125 1.234375,2.96875 L 1.21875,2.984375 0.46875,2.953125 0.5625,3.59375 Z m 0,0"
           id="path700" />
      </g>
    </g>
    <g
       fill="#231f20"
       fill-opacity="1"
       id="g256"
       transform="matrix(0.35277777,0,0,0.35277777,14.721583,-28.326947)">
      <g
         id="use256"
         transform="translate(305.82419,511.55811)">
        <path
           d="m 4.203125,1.359375 -0.078125,-0.625 -4.0625,-0.25 0.078125,0.625 1.546875,0.09375 C 2.796875,1.25 3.828125,2.015625 3.921875,2.65625 c 0.046875,0.375 -0.125,0.578125 -0.40625,0.625 C 3.3125,3.296875 3.03125,3.296875 2.859375,3.265625 L 0.375,3.0625 0.453125,3.71875 3.03125,3.90625 C 3.3125,3.921875 3.515625,3.953125 3.78125,3.921875 4.265625,3.859375 4.546875,3.40625 4.484375,2.953125 4.375,2 3.703125,1.578125 3.21875,1.296875 l 0.015625,-0.03125 z m 0,0"
           id="path699" />
      </g>
    </g>
    <g
       fill="#231f20"
       fill-opacity="1"
       id="g260"
       transform="matrix(0.35277777,0,0,0.35277777,14.721583,-28.326947)">
      <g
         id="use257"
         transform="translate(219.543,464.91461)">
        <path
           d="M 3.84375,-5.703125 C 2,-5.5 0.46875,-3.890625 0.4375,-1.890625 0.421875,-0.6875 1.1875,0.09375 2.359375,0.09375 c 1,0 1.859375,-0.84375 1.859375,-1.8125 0.015625,-1.1875 -0.75,-1.765625 -1.671875,-1.765625 -0.4375,0 -0.8125,0.125 -1.109375,0.296875 0.3125,-0.953125 1.171875,-1.78125 2.40625,-1.984375 z m -1.515625,5.25 c -0.546875,0 -1.0625,-0.421875 -1.0625,-1.1875 0,-0.875 0.40625,-1.28125 1.109375,-1.28125 0.671875,0 1.015625,0.546875 1.015625,1.171875 0,0.71875 -0.359375,1.296875 -1.0625,1.296875 z m 0,0"
           id="path698" />
      </g>
      <g
         id="use258"
         transform="translate(223.895,464.91461)">
        <path
           d="m 2.296875,0.09375 c 1.125,0 1.9375,-1.171875 1.9375,-3 0,-1.265625 -0.59375,-2.796875 -1.9375,-2.796875 -1.359375,0 -1.9375,1.53125 -1.9375,2.8125 0,1.8125 0.8125,2.984375 1.9375,2.984375 z m 0,-0.5625 C 1.625,-0.46875 1.1875,-1.25 1.1875,-2.90625 c 0,-1.453125 0.4375,-2.234375 1.109375,-2.234375 0.671875,0 1.109375,0.78125 1.109375,2.234375 0,1.65625 -0.4375,2.4375 -1.109375,2.4375 z m 0,0"
           id="path696" />
      </g>
      <g
         id="use259"
         transform="translate(228.24699,464.91461)">
        <path
           d="m 1.484375,-5.3125 c 0.40625,0 0.75,0.375 0.75,0.765625 0,0.390625 -0.359375,0.765625 -0.75,0.765625 -0.390625,0 -0.765625,-0.34375 -0.765625,-0.765625 0,-0.40625 0.34375,-0.765625 0.765625,-0.765625 z m 0,1.90625 c 0.625,0 1.140625,-0.515625 1.140625,-1.140625 0,-0.625 -0.515625,-1.15625 -1.140625,-1.15625 -0.625,0 -1.15625,0.546875 -1.15625,1.15625 0,0.625 0.53125,1.140625 1.15625,1.140625 z m 0,0"
           id="path694" />
      </g>
      <g
         id="use260"
         transform="translate(230.967,464.91461)" />
    </g>
    <g
       fill="#231f20"
       fill-opacity="1"
       id="g261"
       transform="matrix(0.35277777,0,0,0.35277777,14.721583,-28.326947)">
      <g
         id="use261"
         transform="translate(233.02299,464.91461)">
        <path
           d="m 3.421875,-5.59375 c -0.46875,1.5 -0.921875,3.015625 -1.375,4.71875 H 2.03125 c -0.4375,-1.71875 -0.875,-3.265625 -1.3125,-4.8125 L -0.015625,-5.515625 1.625,0 H 2.3125 C 2.765625,-1.484375 3.21875,-2.96875 3.65625,-4.625 H 3.6875 C 4.125,-2.96875 4.5625,-1.484375 5.015625,0 h 0.6875 L 7.4375,-5.5625 6.8125,-5.6875 C 6.34375,-4.140625 5.890625,-2.59375 5.4375,-0.875 H 5.421875 C 4.96875,-2.578125 4.515625,-4.09375 4.0625,-5.59375 Z m 0,0"
           id="path693" />
      </g>
    </g>
    <g
       fill="#231f20"
       fill-opacity="1"
       id="g262"
       transform="matrix(0.35277777,0,0,0.35277777,14.721583,-28.326947)">
      <g
         id="use262"
         transform="translate(239.60699,464.91461)">
        <path
           d="m 0.5625,1.40625 0.875,-1.5 c 0.390625,-0.671875 0,-0.828125 -0.1875,-0.828125 -0.3125,0 -0.390625,0.171875 -0.609375,0.75 L 0.125,1.234375 Z m 0,0"
           id="path692" />
      </g>
    </g>
    <g
       fill="#231f20"
       fill-opacity="1"
       id="g267"
       transform="matrix(0.35277777,0,0,0.35277777,14.721583,-28.326947)">
      <g
         id="use263"
         transform="translate(219.543,472.91461)">
        <path
           d="M 3.5,-5.59375 H 3.03125 l -2.875,3.625 v 0.359375 H 2.75 V 0 H 3.5 v -1.609375 h 0.671875 v -0.5625 H 3.5 Z m -2.484375,3.421875 1.71875,-2.1875 H 2.75 v 2.1875 z m 0,0"
           id="path691" />
      </g>
      <g
         id="use264"
         transform="translate(223.895,472.91461)">
        <path
           d="m 2.296875,0.09375 c 1.125,0 1.9375,-1.171875 1.9375,-3 0,-1.265625 -0.59375,-2.796875 -1.9375,-2.796875 -1.359375,0 -1.9375,1.53125 -1.9375,2.8125 0,1.8125 0.8125,2.984375 1.9375,2.984375 z m 0,-0.5625 C 1.625,-0.46875 1.1875,-1.25 1.1875,-2.90625 c 0,-1.453125 0.4375,-2.234375 1.109375,-2.234375 0.671875,0 1.109375,0.78125 1.109375,2.234375 0,1.65625 -0.4375,2.4375 -1.109375,2.4375 z m 0,0"
           id="path697" />
      </g>
      <g
         id="use265"
         transform="translate(228.24699,472.91461)">
        <path
           d="m 1.484375,-5.3125 c 0.40625,0 0.75,0.375 0.75,0.765625 0,0.390625 -0.359375,0.765625 -0.75,0.765625 -0.390625,0 -0.765625,-0.34375 -0.765625,-0.765625 0,-0.40625 0.34375,-0.765625 0.765625,-0.765625 z m 0,1.90625 c 0.625,0 1.140625,-0.515625 1.140625,-1.140625 0,-0.625 -0.515625,-1.15625 -1.140625,-1.15625 -0.625,0 -1.15625,0.546875 -1.15625,1.15625 0,0.625 0.53125,1.140625 1.15625,1.140625 z m 0,0"
           id="path695" />
      </g>
      <g
         id="use266"
         transform="translate(230.967,472.91461)" />
      <g
         id="use267"
         transform="translate(233.02299,472.91461)">
        <path
           d="M 5.578125,-5.59375 H 4.9375 v 4.453125 H 4.921875 c -0.375,-0.5625 -2.4375,-3 -3.671875,-4.453125 H 0.671875 V 0 H 1.3125 V -4.453125 H 1.328125 C 1.65625,-3.96875 3.75,-1.453125 4.96875,0 h 0.609375 z m 0,0"
           id="path690" />
      </g>
    </g>
  </g>
</svg>
