<?xml version="1.0" encoding="UTF-8" standalone="no"?>
<!-- Created with Inkscape (http://www.inkscape.org/) -->

<svg
   width="49.463299mm"
   height="24.115665mm"
   viewBox="0 0 49.463299 24.115665"
   version="1.1"
   id="svg1"
   inkscape:version="1.3.2 (091e20e, 2023-11-25)"
   sodipodi:docname="selection.svg"
   xmlns:inkscape="http://www.inkscape.org/namespaces/inkscape"
   xmlns:sodipodi="http://sodipodi.sourceforge.net/DTD/sodipodi-0.dtd"
   xmlns="http://www.w3.org/2000/svg"
   xmlns:svg="http://www.w3.org/2000/svg">
  <sodipodi:namedview
     id="namedview1"
     pagecolor="#ffffff"
     bordercolor="#000000"
     borderopacity="0.25"
     inkscape:showpageshadow="2"
     inkscape:pageopacity="0.0"
     inkscape:pagecheckerboard="0"
     inkscape:deskcolor="#d1d1d1"
     inkscape:document-units="mm"
     inkscape:zoom="0.2102413"
     inkscape:cx="92.750567"
     inkscape:cy="47.564393"
     inkscape:window-width="1312"
     inkscape:window-height="449"
     inkscape:window-x="0"
     inkscape:window-y="38"
     inkscape:window-maximized="0"
     inkscape:current-layer="layer1" />
  <defs
     id="defs1">
    <clipPath
       id="clip-0">
      <path
         clip-rule="nonzero"
         d="M 87.410156,324.44141 H 149 v 68.35937 H 87.410156 Z m 0,0"
         id="path83" />
    </clipPath>
    <clipPath
       id="clip-1">
      <path
         clip-rule="nonzero"
         d="m 110,353 h 45.76953 v 39.80078 H 110 Z m 0,0"
         id="path84" />
    </clipPath>
    <clipPath
       id="clip-2">
      <path
         clip-rule="nonzero"
         d="M 87.410156,339 H 127 v 31 H 87.410156 Z m 0,0"
         id="path85" />
    </clipPath>
    <clipPath
       id="clip-3">
      <path
         clip-rule="nonzero"
         d="M 87.410156,340 H 104 v 27 H 87.410156 Z m 0,0"
         id="path86" />
    </clipPath>
    <clipPath
       id="clip-4">
      <path
         clip-rule="nonzero"
         d="m 126,327 h 29.76953 v 34 H 126 Z m 0,0"
         id="path87" />
    </clipPath>
    <clipPath
       id="clip-5">
      <path
         clip-rule="nonzero"
         d="m 133,342 h 22.76953 v 23 H 133 Z m 0,0"
         id="path88" />
    </clipPath>
    <clipPath
       id="clip-6">
      <path
         clip-rule="nonzero"
         d="M 87.410156,324.44141 H 142 V 343 H 87.410156 Z m 0,0"
         id="path89" />
    </clipPath>
    <clipPath
       id="clip-7">
      <path
         clip-rule="nonzero"
         d="m 91,367 h 20 v 25.80078 H 91 Z m 0,0"
         id="path90" />
    </clipPath>
    <clipPath
       id="clip-8">
      <path
         clip-rule="nonzero"
         d="m 135,325 h 20.76953 v 26 H 135 Z m 0,0"
         id="path91" />
    </clipPath>
    <clipPath
       id="clip-9">
      <path
         clip-rule="nonzero"
         d="m 106,324.44141 h 21 V 341 h -21 z m 0,0"
         id="path92" />
    </clipPath>
    <clipPath
       id="clip-10">
      <path
         clip-rule="nonzero"
         d="M 87.410156,324.44141 H 155.76953 V 391 H 87.410156 Z m 0,0"
         id="path93" />
    </clipPath>
    <clipPath
       id="clip-11">
      <path
         clip-rule="nonzero"
         d="m 87.410156,330 h 68.359374 v 50 H 87.410156 Z m 0,0"
         id="path94" />
    </clipPath>
    <clipPath
       id="clip-12">
      <path
         clip-rule="nonzero"
         d="M 159.25781,324.44141 H 221 v 68.35937 h -61.74219 z m 0,0"
         id="path95" />
    </clipPath>
    <clipPath
       id="clip-13">
      <path
         clip-rule="nonzero"
         d="m 183,353 h 44.62109 v 39.80078 H 183 Z m 0,0"
         id="path96" />
    </clipPath>
    <clipPath
       id="clip-14">
      <path
         clip-rule="nonzero"
         d="M 159.25781,339 H 200 v 31 h -40.74219 z m 0,0"
         id="path97" />
    </clipPath>
    <clipPath
       id="clip-15">
      <path
         clip-rule="nonzero"
         d="m 199,327 h 28.62109 v 34 H 199 Z m 0,0"
         id="path98" />
    </clipPath>
    <clipPath
       id="clip-16">
      <path
         clip-rule="nonzero"
         d="M 159.25781,324.44141 H 215 V 343 h -55.74219 z m 0,0"
         id="path99" />
    </clipPath>
    <clipPath
       id="clip-17">
      <path
         clip-rule="nonzero"
         d="m 159.25781,324.44141 h 68.36328 V 391 h -68.36328 z m 0,0"
         id="path100" />
    </clipPath>
    <clipPath
       id="clip-18">
      <path
         clip-rule="nonzero"
         d="m 159.25781,330 h 68.36328 v 50 h -68.36328 z m 0,0"
         id="path101" />
    </clipPath>
  </defs>
  <g
     inkscape:label="Layer 1"
     inkscape:groupmode="layer"
     id="layer1"
     transform="translate(-80.433334,-136.525)">
    <path
       fill-rule="evenodd"
       fill="#dedede"
       fill-opacity="1"
       d="M 80.433334,136.525 H 104.549 v 24.11566 H 80.433334 Z m 0,0"
       id="path113"
       style="stroke-width:0.352778" />
    <g
       clip-path="url(#clip-0)"
       id="g114"
       transform="matrix(0.35277777,0,0,0.35277777,49.596974,22.06928)">
      <path
         fill="none"
         stroke-width="1.424"
         stroke-linecap="butt"
         stroke-linejoin="miter"
         stroke="#231f20"
         stroke-opacity="1"
         stroke-miterlimit="3.864"
         d="m -0.00195,0.001025 v -6.8125 c 0,-3.070313 -3.246094,-3.648438 -4.980469,-6.183594 -2.714843,-3.960937 -3.917968,-6.5 -6.589843,-10.503906 -4.40625,-6.632813 -6.230469,-10.636719 -10.859375,-17.269531 -3.960938,-5.695313 -8.144532,-7.296875 -14.421875,-10.148438 -9.253907,-4.183594 -13.660157,-7.742187 -22.785157,-12.28125"
         transform="matrix(1,0,0,-1,140.2832,321.2354)"
         id="path114" />
    </g>
    <g
       clip-path="url(#clip-1)"
       id="g115"
       transform="matrix(0.35277777,0,0,0.35277777,49.596974,22.06928)">
      <path
         fill="none"
         stroke-width="1.424"
         stroke-linecap="butt"
         stroke-linejoin="miter"
         stroke="#231f20"
         stroke-opacity="1"
         stroke-miterlimit="3.864"
         d="M -1.25e-5,0.0019375 C 2.804675,-1.603531 3.781237,-3.560563 6.589831,-5.162125 c 5.558594,-3.203125 10.054688,-3.117188 14.597656,-7.65625 5.207032,-5.207031 10.992188,-7.921875 10.992188,-15.265625 0,-3.160156 0.04297,-4.894531 0.04297,-8.054688"
         transform="matrix(1,0,0,-1,118.7422,361.291)"
         id="path115" />
    </g>
    <path
       fill="none"
       stroke-width="0.502356"
       stroke-linecap="butt"
       stroke-linejoin="miter"
       stroke="#231f20"
       stroke-opacity="1"
       stroke-miterlimit="3.864"
       d="m 93.181565,151.095 c -0.282498,0.58015 -0.469911,0.89434 -0.752409,1.44418 -0.205328,0.39274 -0.235644,0.94258 -0.691775,0.94258 -1.114833,0 -1.710145,-0.87919 -2.559017,-1.66467"
       id="path116" />
    <path
       fill="none"
       stroke-width="0.502356"
       stroke-linecap="butt"
       stroke-linejoin="miter"
       stroke="#231f20"
       stroke-opacity="1"
       stroke-miterlimit="3.864"
       d="m 92.33545,150.18411 c -0.581533,0.91089 -1.320161,1.82177 -1.963705,2.68442"
       id="path117" />
    <g
       clip-path="url(#clip-2)"
       id="g118"
       transform="matrix(0.35277777,0,0,0.35277777,49.596974,22.06928)">
      <path
         fill="none"
         stroke-width="1.424"
         stroke-linecap="butt"
         stroke-linejoin="miter"
         stroke="#231f20"
         stroke-opacity="1"
         stroke-miterlimit="3.864"
         d="M -1.25e-5,0.00149375 C -4.007825,1.603056 -10.503919,0.579619 -11.351575,4.806181 l 0.535156,3.652344 c -0.445312,2.847656 -2.359375,5.160156 -5.207031,5.160156 -7.34375,0 -11.484375,-0.132812 -18.828125,-0.175781"
         transform="matrix(1,0,0,-1,119.0547,361.3804)"
         id="path118" />
    </g>
    <g
       clip-path="url(#clip-3)"
       id="g119"
       transform="matrix(0.35277777,0,0,0.35277777,49.596974,22.06928)">
      <path
         fill="none"
         stroke-width="1.424"
         stroke-linecap="butt"
         stroke-linejoin="miter"
         stroke="#231f20"
         stroke-opacity="1"
         stroke-miterlimit="3.864"
         d="m 0.00193125,-0.001475 c 0,-2.800781 0.04296875,-4.359375 0.04296875,-7.164063 0,-1.644531 -0.980469,-2.714843 -2.535156,-3.335937"
         transform="matrix(1,0,0,-1,95.9551,348.2954)"
         id="path119" />
    </g>
    <g
       clip-path="url(#clip-4)"
       id="g120"
       transform="matrix(0.35277777,0,0,0.35277777,49.596974,22.06928)">
      <path
         fill="none"
         stroke-width="1.424"
         stroke-linecap="butt"
         stroke-linejoin="miter"
         stroke="#231f20"
         stroke-opacity="1"
         stroke-miterlimit="3.864"
         d="M -9.625e-4,-4.5e-4 C 9.522475,-6.320763 13.440444,-11.703575 23.31935,-17.445763"
         transform="matrix(1,0,0,-1,134.5869,335.6558)"
         id="path120" />
    </g>
    <g
       clip-path="url(#clip-5)"
       id="g121"
       transform="matrix(0.35277777,0,0,0.35277777,49.596974,22.06928)">
      <path
         fill="none"
         stroke-width="1.424"
         stroke-linecap="butt"
         stroke-linejoin="miter"
         stroke="#231f20"
         stroke-opacity="1"
         stroke-miterlimit="3.864"
         d="M 0.001925,0.00148125 C -3.783231,-3.783675 -7.341825,-3.959456 -11.568388,-7.119612"
         transform="matrix(1,0,0,-1,152.3887,350.0757)"
         id="path121" />
    </g>
    <path
       fill="none"
       stroke-width="0.502356"
       stroke-linecap="butt"
       stroke-linejoin="miter"
       stroke="#231f20"
       stroke-opacity="1"
       stroke-miterlimit="3.864"
       d="m 96.825098,149.77621 c -0.86403,0.56499 -1.06798,1.20854 -1.632975,2.07257"
       id="path122" />
    <g
       clip-path="url(#clip-6)"
       id="g123"
       transform="matrix(0.35277777,0,0,0.35277777,49.596974,22.06928)">
      <path
         fill="none"
         stroke-width="1.424"
         stroke-linecap="butt"
         stroke-linejoin="miter"
         stroke="#231f20"
         stroke-opacity="1"
         stroke-miterlimit="3.864"
         d="M -0.00191875,5.0625e-4 C -5.650356,0.445819 -8.501919,3.383319 -14.154263,3.383319 c -3.425781,0 -5.292968,-0.890625 -8.722656,-0.890625 -7.566406,0 -15.132812,2.402344 -16.644531,9.96875"
         transform="matrix(1,0,0,-1,134.0527,335.1216)"
         id="path123" />
    </g>
    <path
       fill="none"
       stroke-width="0.502356"
       stroke-linecap="butt"
       stroke-linejoin="miter"
       stroke="#231f20"
       stroke-opacity="1"
       stroke-miterlimit="3.864"
       d="m 91.54859,153.4349 c 0.566373,0.2825 1.634353,0.75241 1.634353,1.36564 0,0.64354 -0.09508,0.98943 -0.188791,1.63297"
       id="path124" />
    <g
       clip-path="url(#clip-7)"
       id="g125"
       transform="matrix(0.35277777,0,0,0.35277777,49.596974,22.06928)">
      <path
         fill="none"
         stroke-width="1.424"
         stroke-linecap="butt"
         stroke-linejoin="miter"
         stroke="#231f20"
         stroke-opacity="1"
         stroke-miterlimit="3.864"
         d="M -9.3125e-4,9.875e-4 C 1.557662,-3.1162 3.561569,-4.717762 3.561569,-8.186512 c 0,-1.46875 -1.335938,-2.003907 -2.492188,-2.851563"
         transform="matrix(1,0,0,-1,98.9814,374.8213)"
         id="path125" />
    </g>
    <g
       clip-path="url(#clip-8)"
       id="g126"
       transform="matrix(0.35277777,0,0,0.35277777,49.596974,22.06928)">
      <path
         fill="none"
         stroke-width="1.424"
         stroke-linecap="butt"
         stroke-linejoin="miter"
         stroke="#231f20"
         stroke-opacity="1"
         stroke-miterlimit="3.864"
         d="M -0.0019375,-1.25e-5 5.697281,4.628894 C 4.673844,7.16405 2.892594,8.011706 0.712906,9.613269"
         transform="matrix(1,0,0,-1,143.666,343.1328)"
         id="path126" />
    </g>
    <g
       clip-path="url(#clip-9)"
       id="g127"
       transform="matrix(0.35277777,0,0,0.35277777,49.596974,22.06928)">
      <path
         fill="none"
         stroke-width="1.424"
         stroke-linecap="butt"
         stroke-linejoin="miter"
         stroke="#231f20"
         stroke-opacity="1"
         stroke-miterlimit="3.864"
         d="m -9.5e-4,-0.001925 4.449219,9.4375"
         transform="matrix(1,0,0,-1,114.4697,332.4512)"
         id="path127" />
    </g>
    <g
       clip-path="url(#clip-10)"
       id="g128"
       transform="matrix(0.35277777,0,0,0.35277777,49.596974,22.06928)">
      <path
         fill="none"
         stroke-width="2.848"
         stroke-linecap="butt"
         stroke-linejoin="miter"
         stroke="#231f20"
         stroke-opacity="1"
         stroke-miterlimit="3.864"
         d="m 2.5e-5,-2.5e-5 c 4.628906,-4.140625 9.304687,-3.113281 15.488281,-3.738281 10.859375,-1.113281 17.667969,-1.113281 27.0625,-6.585938 3.066406,-1.78125 5.25,-2.40625 7.472656,-5.164062 3.207032,-3.960938 3.339844,-7.386719 6.234375,-11.570313 5.472657,-7.878906 11.4375,-10.460937 20.648438,-13.53125"
         transform="matrix(1,0,0,-1,81.8906,334.7656)"
         id="path128" />
    </g>
    <g
       clip-path="url(#clip-11)"
       id="g129"
       transform="matrix(0.35277777,0,0,0.35277777,49.596974,22.06928)">
      <path
         fill="none"
         stroke-width="0.712"
         stroke-linecap="butt"
         stroke-linejoin="miter"
         stroke="#ffffff"
         stroke-opacity="1"
         stroke-miterlimit="3.864"
         d="m 2.5e-5,-2.5e-5 c 4.628906,-4.140625 9.304687,-3.113281 15.488281,-3.738281 10.859375,-1.113281 17.667969,-1.113281 27.0625,-6.585938 3.066406,-1.78125 5.25,-2.40625 7.472656,-5.164062 3.207032,-3.960938 3.339844,-7.386719 6.234375,-11.570313 5.472657,-7.878906 11.4375,-10.460937 20.648438,-13.53125"
         transform="matrix(1,0,0,-1,81.8906,334.7656)"
         id="path129" />
    </g>
    <path
       fill-rule="evenodd"
       fill="#dedede"
       fill-opacity="1"
       d="m 105.77959,136.525 h 24.11704 v 24.11566 h -24.11704 z m 0,0"
       id="path130"
       style="stroke-width:0.352778" />
    <g
       clip-path="url(#clip-12)"
       id="g131"
       transform="matrix(0.35277777,0,0,0.35277777,49.596974,22.06928)">
      <path
         fill="none"
         stroke-width="1.424"
         stroke-linecap="butt"
         stroke-linejoin="miter"
         stroke="#231f20"
         stroke-opacity="1"
         stroke-miterlimit="3.864"
         d="m 0.0019375,0.001025 v -6.8125 c 0,-3.070313 -3.2500005,-3.648438 -4.9843755,-6.183594 -2.714843,-3.960937 -3.917968,-6.5 -6.589843,-10.503906 -4.40625,-6.632813 -6.230469,-10.636719 -10.859375,-17.269531 -3.960938,-5.695313 -8.144532,-7.296875 -14.421875,-10.148438 -9.253907,-4.183594 -13.660157,-7.742187 -22.785157,-12.28125"
         transform="matrix(1,0,0,-1,213.0215,321.2354)"
         id="path131" />
    </g>
    <g
       clip-path="url(#clip-13)"
       id="g132"
       transform="matrix(0.35277777,0,0,0.35277777,49.596974,22.06928)">
      <path
         fill="none"
         stroke-width="1.424"
         stroke-linecap="butt"
         stroke-linejoin="miter"
         stroke="#231f20"
         stroke-opacity="1"
         stroke-miterlimit="3.864"
         d="M -3.125e-5,0.0019375 C 2.804656,-1.603531 3.781219,-3.560563 6.589812,-5.162125 12.148406,-8.36525 16.6445,-8.279313 21.187469,-12.818375 26.3945,-18.025406 32.179656,-20.74025 32.179656,-28.084 c 0,-3.160156 0.04297,-4.894531 0.04297,-8.054688"
         transform="matrix(1,0,0,-1,191.4805,361.291)"
         id="path132" />
    </g>
    <g
       clip-path="url(#clip-14)"
       id="g133"
       transform="matrix(0.35277777,0,0,0.35277777,49.596974,22.06928)">
      <path
         fill="none"
         stroke-width="1.424"
         stroke-linecap="butt"
         stroke-linejoin="miter"
         stroke="#231f20"
         stroke-opacity="1"
         stroke-miterlimit="3.864"
         d="M -3.125e-5,0.00149375 C -4.007844,1.603056 -10.503937,0.579619 -11.351594,4.806181 l 0.535157,3.652344 c -0.445313,2.847656 -2.359375,5.160156 -5.207032,5.160156 -7.34375,0 -11.484375,-0.132812 -18.828125,-0.175781"
         transform="matrix(1,0,0,-1,191.793,361.3804)"
         id="path133" />
    </g>
    <g
       clip-path="url(#clip-15)"
       id="g134"
       transform="matrix(0.35277777,0,0,0.35277777,49.596974,22.06928)">
      <path
         fill="none"
         stroke-width="1.424"
         stroke-linecap="butt"
         stroke-linejoin="miter"
         stroke="#231f20"
         stroke-opacity="1"
         stroke-miterlimit="3.864"
         d="M -9.8125e-4,-4.5e-4 C 9.522456,-6.320763 13.440425,-11.703575 23.319331,-17.445763"
         transform="matrix(1,0,0,-1,207.3252,335.6558)"
         id="path134" />
    </g>
    <g
       clip-path="url(#clip-16)"
       id="g135"
       transform="matrix(0.35277777,0,0,0.35277777,49.596974,22.06928)">
      <path
         fill="none"
         stroke-width="1.424"
         stroke-linecap="butt"
         stroke-linejoin="miter"
         stroke="#231f20"
         stroke-opacity="1"
         stroke-miterlimit="3.864"
         d="M -0.0019375,5.0625e-4 C -5.650375,0.445819 -8.501937,3.383319 -14.150375,3.383319 c -3.429687,0 -5.296875,-0.890625 -8.726562,-0.890625 -7.566407,0 -15.132813,2.402344 -16.644532,9.96875"
         transform="matrix(1,0,0,-1,206.791,335.1216)"
         id="path135" />
    </g>
    <g
       clip-path="url(#clip-17)"
       id="g136"
       transform="matrix(0.35277777,0,0,0.35277777,49.596974,22.06928)">
      <path
         fill="none"
         stroke-width="2.848"
         stroke-linecap="butt"
         stroke-linejoin="miter"
         stroke="#231f20"
         stroke-opacity="1"
         stroke-miterlimit="3.864"
         d="M 6.25e-6,-2.5e-5 C 4.628912,-4.14065 9.304694,-3.113306 15.488287,-3.738306 c 10.859375,-1.113281 17.667969,-1.113281 27.0625,-6.585938 3.066407,-1.78125 5.25,-2.40625 7.472657,-5.164062 3.207031,-3.960938 3.339843,-7.386719 6.234375,-11.570313 5.472656,-7.878906 11.4375,-10.460937 20.648437,-13.53125"
         transform="matrix(1,0,0,-1,154.6289,334.7656)"
         id="path136" />
    </g>
    <g
       clip-path="url(#clip-18)"
       id="g137"
       transform="matrix(0.35277777,0,0,0.35277777,49.596974,22.06928)">
      <path
         fill="none"
         stroke-width="0.712"
         stroke-linecap="butt"
         stroke-linejoin="miter"
         stroke="#ffffff"
         stroke-opacity="1"
         stroke-miterlimit="3.864"
         d="M 6.25e-6,-2.5e-5 C 4.628912,-4.14065 9.304694,-3.113306 15.488287,-3.738306 c 10.859375,-1.113281 17.667969,-1.113281 27.0625,-6.585938 3.066407,-1.78125 5.25,-2.40625 7.472657,-5.164062 3.207031,-3.960938 3.339843,-7.386719 6.234375,-11.570313 5.472656,-7.878906 11.4375,-10.460937 20.648437,-13.53125"
         transform="matrix(1,0,0,-1,154.6289,334.7656)"
         id="path137" />
    </g>
  </g>
</svg>
