<?xml version="1.0" encoding="UTF-8" standalone="no"?>
<!-- Created with Inkscape (http://www.inkscape.org/) -->

<svg
   width="49.116039mm"
   height="23.902073mm"
   viewBox="0 0 49.116039 23.902073"
   version="1.1"
   id="svg1"
   inkscape:version="1.3.2 (091e20e, 2023-11-25)"
   sodipodi:docname="dimension_change.svg"
   xmlns:inkscape="http://www.inkscape.org/namespaces/inkscape"
   xmlns:sodipodi="http://sodipodi.sourceforge.net/DTD/sodipodi-0.dtd"
   xmlns="http://www.w3.org/2000/svg"
   xmlns:svg="http://www.w3.org/2000/svg">
  <sodipodi:namedview
     id="namedview1"
     pagecolor="#ffffff"
     bordercolor="#000000"
     borderopacity="0.25"
     inkscape:showpageshadow="2"
     inkscape:pageopacity="0.0"
     inkscape:pagecheckerboard="0"
     inkscape:deskcolor="#d1d1d1"
     inkscape:document-units="mm"
     inkscape:zoom="0.2102413"
     inkscape:cx="92.750567"
     inkscape:cy="47.564393"
     inkscape:window-width="1312"
     inkscape:window-height="449"
     inkscape:window-x="0"
     inkscape:window-y="38"
     inkscape:window-maximized="0"
     inkscape:current-layer="layer1" />
  <defs
     id="defs1">
    <clipPath
       id="clip-19">
      <path
         clip-rule="nonzero"
         d="m 304,324.44141 h 45 v 67.39453 h -45 z m 0,0"
         id="path102" />
    </clipPath>
    <clipPath
       id="clip-20">
      <path
         clip-rule="nonzero"
         d="m 283.0625,354 h 67.39844 v 21 H 283.0625 Z m 0,0"
         id="path103" />
    </clipPath>
    <clipPath
       id="clip-21">
      <path
         clip-rule="nonzero"
         d="m 321,324.44141 h 18 v 67.39453 h -18 z m 0,0"
         id="path104" />
    </clipPath>
    <clipPath
       id="clip-22">
      <path
         clip-rule="nonzero"
         d="M 283.0625,348 H 335 v 2 h -51.9375 z m 0,0"
         id="path105" />
    </clipPath>
    <clipPath
       id="clip-23">
      <path
         clip-rule="nonzero"
         d="m 293,324.44141 h 2 V 349 h -2 z m 0,0"
         id="path106" />
    </clipPath>
    <clipPath
       id="clip-24">
      <path
         clip-rule="nonzero"
         d="m 371,324.80078 h 51.28906 v 67.39453 H 371 Z m 0,0"
         id="path107" />
    </clipPath>
    <clipPath
       id="clip-25">
      <path
         clip-rule="nonzero"
         d="m 354.89062,355 h 67.39844 v 21 h -67.39844 z m 0,0"
         id="path108" />
    </clipPath>
    <clipPath
       id="clip-26">
      <path
         clip-rule="nonzero"
         d="M 354.89062,348 H 407 v 2 h -52.10938 z m 0,0"
         id="path109" />
    </clipPath>
    <clipPath
       id="clip-27">
      <path
         clip-rule="nonzero"
         d="m 365,324.80078 h 1 V 350 h -1 z m 0,0"
         id="path110" />
    </clipPath>
    <clipPath
       id="clip-28">
      <path
         clip-rule="nonzero"
         d="m 393,324.80078 h 17 v 67.39453 h -17 z m 0,0"
         id="path111" />
    </clipPath>
  </defs>
  <g
     inkscape:label="Layer 1"
     inkscape:groupmode="layer"
     id="layer1"
     transform="translate(-80.433333,-136.525)">
    <path
       fill-rule="evenodd"
       fill="#d3d3d3"
       fill-opacity="1"
       d="M 80.433333,136.525 H 104.21 v 23.77529 H 80.433333 Z m 0,0"
       id="path1982"
       style="stroke-width:0.352778" />
    <path
       fill-rule="evenodd"
       fill="#dbdadb"
       fill-opacity="1"
       stroke-width="0.251178"
       stroke-linecap="butt"
       stroke-linejoin="miter"
       stroke="#ffffff"
       stroke-opacity="1"
       stroke-miterlimit="3.864"
       d="m 82.57756,139.18737 v 2.32475 h 1.255392 v 0.75241 h 1.382172 v -1.69499 h -0.753786 v -1.00459 h 1.131369 v -1.12999 h -2.26136 v 0.75241 z m 0,0"
       id="path1983" />
    <path
       fill-rule="evenodd"
       fill="#dbdadb"
       fill-opacity="1"
       stroke-width="0.251178"
       stroke-linecap="butt"
       stroke-linejoin="miter"
       stroke="#ffffff"
       stroke-opacity="1"
       stroke-miterlimit="3.864"
       d="m 88.606477,143.58469 v 3.20256 h 0.753787 v 0.62839 h 1.129991 v -1.88516 h 1.255393 v -1.88378 h -1.255393 v -0.9412 h -0.879188 v 0.87919 z m 0,0"
       id="path1984" />
    <path
       fill-rule="evenodd"
       fill="#dbdadb"
       fill-opacity="1"
       stroke-width="0.251178"
       stroke-linecap="butt"
       stroke-linejoin="miter"
       stroke="#ffffff"
       stroke-opacity="1"
       stroke-miterlimit="3.864"
       d="m 84.210536,151.81157 v 1.69499 h -0.817177 v 0.94257 h 2.072569 v -0.75378 h 1.256771 v -2.63757 h -0.879188 l -0.250803,0.75379 z m 0,0"
       id="path1985" />
    <path
       fill-rule="evenodd"
       fill="#dbdadb"
       fill-opacity="1"
       stroke-width="0.251178"
       stroke-linecap="butt"
       stroke-linejoin="miter"
       stroke="#ffffff"
       stroke-opacity="1"
       stroke-miterlimit="3.864"
       d="m 94.259189,152.31456 h 3.327963 v 1.12999 h -1.06798 v 1.75837 h -2.072569 v -1.38217 H 93.12782 v -2.26136 h 1.005968 z m 0,0"
       id="path1986" />
    <path
       fill-rule="evenodd"
       fill="#dbdadb"
       fill-opacity="1"
       stroke-width="0.251178"
       stroke-linecap="butt"
       stroke-linejoin="miter"
       stroke="#ffffff"
       stroke-opacity="1"
       stroke-miterlimit="3.864"
       d="m 97.52514,145.97007 v 3.32934 h 1.632975 l 0.815799,0.8158 h 1.318786 v -3.45337 h -1.13 v 0.9412 h -1.004585 v -1.63297 z m 0,0"
       id="path1987" />
    <path
       fill-rule="evenodd"
       fill="#dbdadb"
       fill-opacity="1"
       stroke-width="0.251178"
       stroke-linecap="butt"
       stroke-linejoin="miter"
       stroke="#ffffff"
       stroke-opacity="1"
       stroke-miterlimit="3.864"
       d="m 97.022156,139.50156 v 2.51216 h 1.696365 v -1.12999 h 1.442809 v -1.31878 h -1.003215 v -1.25677 h -1.32016 v 1.00597 z m 0,0"
       id="path1988" />
    <g
       clip-path="url(#clip-19)"
       id="g1989"
       transform="matrix(0.35277777,0,0,0.35277777,-19.424825,22.06928)">
      <path
         fill-rule="evenodd"
         fill="#c3c2c2"
         fill-opacity="1"
         d="m 348.24219,395.72266 c -1.01953,-6.23047 -4.22657,-8.76954 -6.40625,-14.59766 -1.5586,-4.22656 -2.26953,-6.76563 -4.44922,-10.67969 -1.42578,-2.53906 -4.1875,-2.3164 -7.1211,-2.3164 -6.76562,0 -9.25781,6.58593 -16.02343,6.58593 -1.02344,0 -2.85157,-2.17968 -2.85157,-3.20312 0,-0.98047 0.0899,-1.06641 0.0899,-2.04688 0,-3.07031 -0.17578,-3.91797 -1.6875,-5.69922 l -0.98047,-2.13671 c 0,-1.42188 0.62109,-1.55469 0.62109,-2.98047 0,-1.5586 1.15625,-2.80078 1.78125,-4.22657 0.98047,-2.22656 0.67188,-4.54296 0.625,-6.76562 -0.0898,-4.09375 -5.96484,-4.09375 -5.96484,-9.07813 0,-5.74218 7.47656,-6.89843 7.47656,-12.64062 0,-1.24609 -0.89062,-3.47266 -0.89062,-4.71875 -0.043,0.44531 -0.71094,-0.13281 -0.71094,0.3125 0,1.82422 0.89062,2.75781 0.89062,4.58203 0,5.83203 -8.01171,6.8125 -8.01171,12.64063 0,1.91406 0.93359,3.07031 2.3125,4.44921 3.02734,1.51563 4.27343,3.875 4.27343,7.125 0,4.40625 -3.5625,6.36329 -3.5625,10.76954 0,2.84765 1.96094,4.09375 2.49219,6.85156 0.44922,2.13672 -0.35156,3.69531 0.53516,5.69922 0.93359,2.04687 2.89453,2.84765 5.16406,2.84765 6.00781,0 7.69922,-6.9414 13.70703,-6.9414 2.9375,0 5.29688,0.4414 6.94141,2.84765 1.82812,2.66797 1.16015,5.02735 2.14062,8.1875 0.71094,2.22657 2.71485,2.71485 3.38281,4.98438 0.71094,2.3164 0.17579,3.74219 0.17579,6.14062 0,1.33594 0.22265,2.1836 0.53515,3.47266 l 5.33985,0.0898 z m 0,0"
         id="path1989" />
    </g>
    <g
       clip-path="url(#clip-20)"
       id="g1990"
       transform="matrix(0.35277777,0,0,0.35277777,-19.424825,22.06928)">
      <path
         fill="none"
         stroke-width="0.712"
         stroke-linecap="butt"
         stroke-linejoin="miter"
         stroke="#231f20"
         stroke-opacity="1"
         stroke-miterlimit="3.864"
         d="M 9.5e-4,-0.00148125 H 19.227513 L 35.7822,6.764144 h 12.285156 l 5.339844,5.34375 h 22.433594"
         transform="matrix(1,0,0,-1,278.2803,370.7993)"
         id="path1990" />
    </g>
    <g
       clip-path="url(#clip-21)"
       id="g1991"
       transform="matrix(0.35277777,0,0,0.35277777,-19.424825,22.06928)">
      <path
         fill="none"
         stroke-width="0.712"
         stroke-linecap="butt"
         stroke-linejoin="miter"
         stroke="#231f20"
         stroke-opacity="1"
         stroke-miterlimit="3.864"
         d="M -1.25e-5,-9.3125e-4 V -42.903275 L -8.3672,-52.875931 v -24.921875"
         transform="matrix(1,0,0,-1,334.1797,319.7061)"
         id="path1991" />
    </g>
    <g
       clip-path="url(#clip-22)"
       id="g1992"
       transform="matrix(0.35277777,0,0,0.35277777,-19.424825,22.06928)">
      <path
         fill="none"
         stroke-width="0.712"
         stroke-linecap="butt"
         stroke-linejoin="miter"
         stroke="#231f20"
         stroke-opacity="1"
         stroke-miterlimit="3.864"
         d="M 9.5625e-4,0.00144375 H 57.145488"
         transform="matrix(1,0,0,-1,277.0342,348.7241)"
         id="path1992" />
    </g>
    <g
       clip-path="url(#clip-23)"
       id="g1993"
       transform="matrix(0.35277777,0,0,0.35277777,-19.424825,22.06928)">
      <path
         fill="none"
         stroke-width="0.712"
         stroke-linecap="butt"
         stroke-linejoin="miter"
         stroke="#231f20"
         stroke-opacity="1"
         stroke-miterlimit="3.864"
         d="M 9.3125e-4,-5e-4 V -28.305187"
         transform="matrix(1,0,0,-1,293.7686,320.062)"
         id="path1993" />
    </g>
    <path
       fill="none"
       stroke-width="0.251178"
       stroke-linecap="butt"
       stroke-linejoin="miter"
       stroke="#231f20"
       stroke-opacity="1"
       stroke-miterlimit="3.864"
       d="m 85.403916,145.02887 v 7.72391"
       id="path1994" />
    <path
       fill-rule="evenodd"
       fill="#d3d3d3"
       fill-opacity="1"
       d="m 105.7727,136.65177 h 23.77667 v 23.7753 H 105.7727 Z m 0,0"
       id="path1995"
       style="stroke-width:0.352778" />
    <path
       fill-rule="evenodd"
       fill="#231f20"
       fill-opacity="1"
       d="m 108.66244,140.47721 c 0,-0.46853 0.37896,-0.84887 0.8475,-0.84887 0.46853,0 0.84749,0.38034 0.84749,0.84887 0,0.46853 -0.37896,0.84749 -0.84749,0.84749 -0.46854,0 -0.8475,-0.37896 -0.8475,-0.84749"
       id="path1996"
       style="stroke-width:0.352778" />
    <path
       fill-rule="evenodd"
       fill="#231f20"
       fill-opacity="1"
       d="m 122.94994,140.44552 c 0,-0.46854 0.37896,-0.8475 0.8475,-0.8475 0.46853,0 0.84887,0.37896 0.84887,0.8475 0,0.46853 -0.38034,0.84749 -0.84887,0.84749 -0.46854,0 -0.8475,-0.37896 -0.8475,-0.84749"
       id="path1997"
       style="stroke-width:0.352778" />
    <path
       fill-rule="evenodd"
       fill="#231f20"
       fill-opacity="1"
       d="m 122.88655,148.73579 c 0,-0.46853 0.38034,-0.84749 0.8475,-0.84749 0.46853,0 0.84887,0.37896 0.84887,0.84749 0,0.46716 -0.38034,0.84749 -0.84887,0.84749 -0.46716,0 -0.8475,-0.38033 -0.8475,-0.84749"
       id="path1998"
       style="stroke-width:0.352778" />
    <path
       fill-rule="evenodd"
       fill="#231f20"
       fill-opacity="1"
       d="m 109.88614,153.00633 c 0,-0.46853 0.38034,-0.84749 0.84749,-0.84749 0.46854,0 0.84888,0.37896 0.84888,0.84749 0,0.46716 -0.38034,0.8475 -0.84888,0.8475 -0.46715,0 -0.84749,-0.38034 -0.84749,-0.8475"
       id="path1999"
       style="stroke-width:0.352778" />
    <g
       clip-path="url(#clip-24)"
       id="g2000"
       transform="matrix(0.35277777,0,0,0.35277777,-19.424825,22.06928)">
      <path
         fill="none"
         stroke-width="1"
         stroke-linecap="butt"
         stroke-linejoin="miter"
         stroke="#c3c2c2"
         stroke-opacity="1"
         stroke-miterlimit="3.864"
         d="M 9.875e-4,0.0019125 C 0.579113,-1.470744 1.426769,-2.314494 1.426769,-3.916056 c 0,-6.320313 -7.835938,-7.921875 -7.835938,-14.242188 0,-5.03125 6.765625,-6.007812 6.765625,-11.039062 0,-4.851563 -3.558593,-7.074219 -3.558593,-11.925781 0,-2.539063 1.957031,-3.5625 2.3125,-6.054688 0.535156,-3.691406 0.355468,-8.722656 4.09375,-8.722656 6.765625,0 8.902343,7.65625 15.664062,7.65625 5.742188,0 7.789063,-5.652344 9.792969,-11.039063 2.226562,-6.007812 4.273437,-9.253906 4.808594,-15.664062"
         transform="matrix(1,0,0,-1,383.5537,320.2441)"
         id="path2000" />
    </g>
    <g
       clip-path="url(#clip-25)"
       id="g2001"
       transform="matrix(0.35277777,0,0,0.35277777,-19.424825,22.06928)">
      <path
         fill="none"
         stroke-width="0.712"
         stroke-linecap="butt"
         stroke-linejoin="miter"
         stroke="#231f20"
         stroke-opacity="1"
         stroke-miterlimit="3.864"
         d="M -0.00193125,-9.5625e-4 H 19.228537 L 35.783225,6.764669 h 12.28125 l 5.34375,5.339843 h 22.429687"
         transform="matrix(1,0,0,-1,350.1074,371.1592)"
         id="path2001" />
    </g>
    <g
       clip-path="url(#clip-26)"
       id="g2002"
       transform="matrix(0.35277777,0,0,0.35277777,-19.424825,22.06928)">
      <path
         fill="none"
         stroke-width="0.712"
         stroke-linecap="butt"
         stroke-linejoin="miter"
         stroke="#231f20"
         stroke-opacity="1"
         stroke-miterlimit="3.864"
         d="M -0.001925,-0.0019375 H 57.146513"
         transform="matrix(1,0,0,-1,348.8613,349.084)"
         id="path2002" />
    </g>
    <g
       clip-path="url(#clip-27)"
       id="g2003"
       transform="matrix(0.35277777,0,0,0.35277777,-19.424825,22.06928)">
      <path
         fill="none"
         stroke-width="0.712"
         stroke-linecap="butt"
         stroke-linejoin="miter"
         stroke="#231f20"
         stroke-opacity="1"
         stroke-miterlimit="3.864"
         d="M -0.00195,2.5e-5 V -28.304662"
         transform="matrix(1,0,0,-1,365.5957,320.4219)"
         id="path2003" />
    </g>
    <path
       fill="none"
       stroke-width="0.251178"
       stroke-linecap="butt"
       stroke-linejoin="miter"
       stroke="#231f20"
       stroke-opacity="1"
       stroke-miterlimit="3.864"
       d="m 110.74191,145.15565 v 7.72528"
       id="path2004" />
    <path
       fill-rule="evenodd"
       fill="#231f20"
       fill-opacity="1"
       d="m 115.09926,145.28105 c 0,-0.46853 0.37896,-0.84749 0.84749,-0.84749 0.46854,0 0.84888,0.37896 0.84888,0.84749 0,0.46853 -0.38034,0.84749 -0.84888,0.84749 -0.46853,0 -0.84749,-0.37896 -0.84749,-0.84749"
       id="path2005"
       style="stroke-width:0.352778" />
    <g
       clip-path="url(#clip-28)"
       id="g2006"
       transform="matrix(0.35277777,0,0,0.35277777,-19.424825,22.06928)">
      <path
         fill="none"
         stroke-width="0.712"
         stroke-linecap="butt"
         stroke-linejoin="miter"
         stroke="#231f20"
         stroke-opacity="1"
         stroke-miterlimit="3.864"
         d="M 1.25e-5,-5.0625e-4 V -42.90285 l -8.3671875,-9.972656 v -24.921875"
         transform="matrix(1,0,0,-1,406.0078,320.0659)"
         id="path2006" />
    </g>
    <path
       fill-rule="evenodd"
       fill="#231f20"
       fill-opacity="1"
       d="m 120.06158,153.44593 c 0,-0.46854 0.37896,-0.8475 0.84749,-0.8475 0.46715,0 0.84749,0.37896 0.84749,0.8475 0,0.46853 -0.38034,0.84749 -0.84749,0.84749 -0.46853,0 -0.84749,-0.37896 -0.84749,-0.84749"
       id="path2007"
       style="stroke-width:0.352778" />
  </g>
</svg>
