<?xml version="1.0" encoding="UTF-8" standalone="no"?>
<!-- Created with Inkscape (http://www.inkscape.org/) -->

<svg
   width="49.580433mm"
   height="24.117048mm"
   viewBox="0 0 49.580433 24.117048"
   version="1.1"
   id="svg1"
   inkscape:version="1.3.2 (091e20e, 2023-11-25)"
   sodipodi:docname="simplification.svg"
   xmlns:inkscape="http://www.inkscape.org/namespaces/inkscape"
   xmlns:sodipodi="http://sodipodi.sourceforge.net/DTD/sodipodi-0.dtd"
   xmlns="http://www.w3.org/2000/svg"
   xmlns:svg="http://www.w3.org/2000/svg">
  <sodipodi:namedview
     id="namedview1"
     pagecolor="#ffffff"
     bordercolor="#000000"
     borderopacity="0.25"
     inkscape:showpageshadow="2"
     inkscape:pageopacity="0.0"
     inkscape:pagecheckerboard="0"
     inkscape:deskcolor="#d1d1d1"
     inkscape:document-units="mm"
     inkscape:zoom="0.2102413"
     inkscape:cx="92.750567"
     inkscape:cy="47.564393"
     inkscape:window-width="1312"
     inkscape:window-height="449"
     inkscape:window-x="0"
     inkscape:window-y="38"
     inkscape:window-maximized="0"
     inkscape:current-layer="layer1" />
  <defs
     id="defs1">
    <clipPath
       id="clip-0">
      <path
         clip-rule="nonzero"
         d="m 102,326.00391 h 65.99219 V 361 H 102 Z m 0,0"
         id="path84" />
    </clipPath>
    <clipPath
       id="clip-1">
      <path
         clip-rule="nonzero"
         d="M 99.628906,326.00391 H 161 V 392 H 99.628906 Z m 0,0"
         id="path85" />
    </clipPath>
    <clipPath
       id="clip-2">
      <path
         clip-rule="nonzero"
         d="m 99.628906,343 h 68.363284 v 51.36328 H 99.628906 Z m 0,0"
         id="path86" />
    </clipPath>
    <clipPath
       id="clip-3">
      <path
         clip-rule="nonzero"
         d="M 99.628906,326.00391 H 167.99219 V 391 H 99.628906 Z m 0,0"
         id="path87" />
    </clipPath>
    <clipPath
       id="clip-4">
      <path
         clip-rule="nonzero"
         d="m 99.628906,333 h 68.363284 v 48 H 99.628906 Z m 0,0"
         id="path88" />
    </clipPath>
    <clipPath
       id="clip-5">
      <path
         clip-rule="nonzero"
         d="M 171.80859,326.00391 H 234 V 394 h -62.19141 z m 0,0"
         id="path89" />
    </clipPath>
    <clipPath
       id="clip-6">
      <path
         clip-rule="nonzero"
         d="m 196,355 h 44.17187 v 39.36328 H 196 Z m 0,0"
         id="path90" />
    </clipPath>
    <clipPath
       id="clip-7">
      <path
         clip-rule="nonzero"
         d="M 171.80859,341 H 213 v 30 h -41.19141 z m 0,0"
         id="path91" />
    </clipPath>
    <clipPath
       id="clip-8">
      <path
         clip-rule="nonzero"
         d="m 212,329 h 28.17187 v 34 H 212 Z m 0,0"
         id="path92" />
    </clipPath>
    <clipPath
       id="clip-9">
      <path
         clip-rule="nonzero"
         d="m 172,326.00391 h 56 V 345 h -56 z m 0,0"
         id="path93" />
    </clipPath>
    <clipPath
       id="clip-10">
      <path
         clip-rule="nonzero"
         d="m 171.80859,326.00391 h 68.36328 V 393 h -68.36328 z m 0,0"
         id="path94" />
    </clipPath>
    <clipPath
       id="clip-11">
      <path
         clip-rule="nonzero"
         d="m 171.80859,332 h 68.36328 v 49 h -68.36328 z m 0,0"
         id="path95" />
    </clipPath>
  </defs>
  <g
     inkscape:label="Layer 1"
     inkscape:groupmode="layer"
     id="layer1"
     transform="translate(-80.168749,-136.525)">
    <path
       fill-rule="nonzero"
       fill="#dedede"
       fill-opacity="1"
       d="M 80.168749,136.525 H 104.2858 v 24.11567 H 80.168749 Z m 0,0"
       id="path107"
       style="stroke-width:0.352778" />
    <g
       clip-path="url(#clip-0)"
       id="g108"
       transform="matrix(0.35277777,0,0,0.35277777,45.021886,21.51945)">
      <path
         fill="none"
         stroke-width="1.07"
         stroke-linecap="butt"
         stroke-linejoin="miter"
         stroke="#231f20"
         stroke-opacity="1"
         stroke-miterlimit="3.864"
         d="M 0.00190625,-6.25e-6 C -0.201219,-2.406256 -0.334031,-3.7461 0.00190625,-6.15235 1.673781,-6.15235 2.8105,-5.953131 4.27925,-6.687506 c 0.9375,-0.46875 1.136719,-1.605469 2.140625,-1.871094 0.535156,-0.136719 1.136719,0.265625 1.605469,0 2.539062,-1.539062 3.410156,-4.28125 6.417969,-4.28125 3.480468,0 4.546875,4.011719 8.027343,4.011719 2.675782,0 3.746094,-2.40625 6.421875,-2.40625 1.066407,0 1.601563,0.535156 2.671875,0.535156 2.140625,0 2.675782,-2.140625 4.546875,-3.210937 2.542969,-1.402344 5.351563,0.06641 7.226563,-2.140625 0.464844,-0.601563 0.265625,-1.46875 0.800781,-2.140625 0.535156,-0.667969 1.402344,-0.800782 2.136719,-1.335938 1.207031,-0.871094 1.671875,-1.941406 2.945312,-2.675781 0.734375,-0.402344 1.46875,-0.332031 2.140625,-0.800781 1.203125,-0.804688 0.800782,-2.273438 1.605469,-3.476563 0.800781,-1.207031 2.339844,-0.539062 3.746094,-0.804687 2.402344,-0.46875 2.875,-2.941407 5.082031,-4.011719"
         transform="matrix(1,0,0,-1,108.627,323.5039)"
         id="path108" />
    </g>
    <g
       clip-path="url(#clip-1)"
       id="g109"
       transform="matrix(0.35277777,0,0,0.35277777,45.021886,21.51945)">
      <path
         fill="none"
         stroke-width="1.07"
         stroke-linecap="butt"
         stroke-linejoin="miter"
         stroke="#231f20"
         stroke-opacity="1"
         stroke-miterlimit="3.864"
         d="m 9.8125e-4,-0.001925 c 0,-2.738281 1.33593775,-4.210937 1.33593775,-6.953125 0,-2.207031 -2.609375,-2.339844 -4.277344,-3.746094 -1.472656,-1.203125 -3.144531,-1.136718 -4.28125,-2.675781 -1.003906,-1.335937 -0.335937,-2.605469 -0.535156,-4.277344 -0.402344,-3.613281 -2.808594,-5.417968 -5.886719,-7.222656 -1.269531,-0.734375 -0.601562,-2.34375 -0.800781,-3.746094 -0.269531,-1.804687 -0.402344,-3.144531 -1.605469,-4.546875 -0.871094,-1.003906 -2.273437,-0.402343 -3.210937,-1.339843 -1.269532,-1.269532 -0.601563,-2.742188 -0.800782,-4.546875 -0.203125,-2.003907 -2.007812,-2.941407 -4.011718,-3.210938 -1.472657,-0.199219 -2.207032,-1.335937 -2.679688,-2.671875 -0.265625,-0.9375 -0.0625,-2.410156 -1.066406,-2.410156 -1.472656,0 -2.277344,0.804687 -3.746094,0.804687 -1.40625,0 -2.207031,-0.9375 -3.210937,-1.875 -1.269532,-1.136718 -2.671875,-1.203125 -3.746094,-2.671875 -0.664063,-0.9375 -0.867188,-1.875 -1.871094,-2.410156 -1.738281,-0.933594 -3.078125,-0.46875 -5.082031,-0.800781 -1.738281,-0.265625 -2.941406,-0.9375 -3.746094,-2.40625 -0.464844,-0.871094 -0.332031,-1.808594 -1.066406,-2.410156 -1.207031,-1 -2.679688,-0.199219 -4.015625,-1.070313 -0.933594,-0.601562 -1.070313,-1.335937 -1.605469,-2.40625"
         transform="matrix(1,0,0,-1,153.2998,322.7012)"
         id="path109" />
    </g>
    <g
       clip-path="url(#clip-2)"
       id="g110"
       transform="matrix(0.35277777,0,0,0.35277777,45.021886,21.51945)">
      <path
         fill="none"
         stroke-width="1.07"
         stroke-linecap="butt"
         stroke-linejoin="miter"
         stroke="#231f20"
         stroke-opacity="1"
         stroke-miterlimit="3.864"
         d="M 0.00190625,0.001925 C 1.201125,-0.267606 1.806594,-0.533231 3.009719,-0.533231 h 5.285156 l 2.136719,0.535156 h 5.550781 c 1.273438,0 2.007813,0.53125 3.277344,0.53125 3.410156,0 7.492187,-1.136719 7.492187,-4.546875 0,-1.605469 -1.675781,-1.9375 -2.144531,-3.476562 -0.398437,-1.203125 0,-2.007813 -0.265625,-3.210938 4.882813,-0.800781 8.023438,0.402344 12.304688,-1.871094 1.941406,-1.003906 2.742187,-2.40625 4.546875,-3.746093 1.40625,-1.070313 2.8125,-0.601563 4.28125,-1.605469 1.605468,-1.136719 1.671875,-3.007813 3.476562,-3.746094 3.410156,-1.46875 5.351563,-2.203125 8.5625,-4.011719 1.738281,-0.933593 3.34375,-0.867187 4.8125,-2.136718 1.738281,-1.472657 1.070313,-4.148438 3.210938,-5.085938 1.605468,-0.734375 3.210937,-1.605469 3.210937,-3.410156 0,-1.539063 -0.269531,-2.339844 -0.269531,-3.878906 0,-1.671875 0.46875,-2.539063 0.804687,-4.210938"
         transform="matrix(1,0,0,-1,95.252,349.9863)"
         id="path110" />
    </g>
    <g
       clip-path="url(#clip-3)"
       id="g111"
       transform="matrix(0.35277777,0,0,0.35277777,45.021886,21.51945)">
      <path
         fill="none"
         stroke-width="2.675"
         stroke-linecap="butt"
         stroke-linejoin="miter"
         stroke="#231f20"
         stroke-opacity="1"
         stroke-miterlimit="3.864"
         d="m 4.375e-5,0.0019125 c 3.60937525,0 5.48437525,-0.8046875 9.09375025,-1.6054685 4.816406,-1.070313 7.488281,-1.136719 12.304687,-1.605469 7.558594,-0.734375 12.507813,0.601563 19.261719,-2.941406 2.070313,-1.074219 2.675781,-2.609375 4.011719,-4.550781 1.269531,-1.871094 2.742187,-2.472657 4.015625,-4.277344 2.804687,-4.011719 2.605469,-7.492188 5.882812,-11.238281 5.683594,-6.550782 10.765625,-8.757813 18.726563,-12.035157"
         transform="matrix(1,0,0,-1,96.5898,337.6816)"
         id="path111" />
    </g>
    <g
       clip-path="url(#clip-4)"
       id="g112"
       transform="matrix(0.35277777,0,0,0.35277777,45.021886,21.51945)">
      <path
         fill="none"
         stroke-width="0.856"
         stroke-linecap="butt"
         stroke-linejoin="miter"
         stroke="#ffffff"
         stroke-opacity="1"
         stroke-miterlimit="3.864"
         d="m 4.375e-5,0.0019125 c 3.60937525,0 5.48437525,-0.8046875 9.09375025,-1.6054685 4.816406,-1.070313 7.488281,-1.136719 12.304687,-1.605469 7.558594,-0.734375 12.507813,0.601563 19.261719,-2.941406 2.070313,-1.074219 2.675781,-2.609375 4.011719,-4.550781 1.269531,-1.871094 2.742187,-2.472657 4.015625,-4.277344 2.804687,-4.011719 2.605469,-7.492188 5.882812,-11.238281 5.683594,-6.550782 10.765625,-8.757813 18.726563,-12.035157"
         transform="matrix(1,0,0,-1,96.5898,337.6816)"
         id="path112" />
    </g>
    <path
       fill-rule="nonzero"
       fill="#dedede"
       fill-opacity="1"
       d="m 105.63214,136.525 h 24.11704 v 24.11567 h -24.11704 z m 0,0"
       id="path113"
       style="stroke-width:0.352778" />
    <g
       clip-path="url(#clip-5)"
       id="g114"
       transform="matrix(0.35277777,0,0,0.35277777,45.021886,21.51945)">
      <path
         fill="none"
         stroke-width="1.424"
         stroke-linecap="butt"
         stroke-linejoin="miter"
         stroke="#231f20"
         stroke-opacity="1"
         stroke-miterlimit="3.864"
         d="m 0.00191875,-0.001475 v -6.808594 c 0,-3.070312 -3.24999975,-3.648437 -4.98437475,-6.1875 -2.71875,-3.960937 -3.917969,-6.496094 -6.589844,-10.503906 -4.40625,-6.628906 -6.230469,-10.636719 -10.859375,-17.265625 -3.960938,-5.699219 -8.144531,-7.300781 -14.421875,-10.148438 -9.253906,-4.183593 -13.664063,-7.746093 -22.785156,-12.285156"
         transform="matrix(1,0,0,-1,225.5723,322.7954)"
         id="path114" />
    </g>
    <g
       clip-path="url(#clip-6)"
       id="g115"
       transform="matrix(0.35277777,0,0,0.35277777,45.021886,21.51945)">
      <path
         fill="none"
         stroke-width="1.424"
         stroke-linecap="butt"
         stroke-linejoin="miter"
         stroke="#231f20"
         stroke-opacity="1"
         stroke-miterlimit="3.864"
         d="M -5e-5,3.75e-5 C 2.804637,-1.601525 3.7812,-3.562463 6.585887,-5.164025 c 5.5625,-3.203125 10.058594,-3.113281 14.597657,-7.652344 5.207031,-5.207031 10.996093,-7.921875 10.996093,-15.265625 0,-3.160156 0.04297,-4.898437 0.04297,-8.058594"
         transform="matrix(1,0,0,-1,204.0313,362.8516)"
         id="path115" />
    </g>
    <g
       clip-path="url(#clip-7)"
       id="g116"
       transform="matrix(0.35277777,0,0,0.35277777,45.021886,21.51945)">
      <path
         fill="none"
         stroke-width="1.424"
         stroke-linecap="butt"
         stroke-linejoin="miter"
         stroke="#231f20"
         stroke-opacity="1"
         stroke-miterlimit="3.864"
         d="M 0.00195,-0.00100625 C -4.005863,1.604462 -10.501956,0.577119 -11.349613,4.807587 l 0.535157,3.648438 c -0.445313,2.847656 -2.359375,5.164062 -5.207032,5.164062 -7.34375,0 -11.484375,-0.136718 -18.828125,-0.179687"
         transform="matrix(1,0,0,-1,204.3418,362.9404)"
         id="path116" />
    </g>
    <g
       clip-path="url(#clip-8)"
       id="g117"
       transform="matrix(0.35277777,0,0,0.35277777,45.021886,21.51945)">
      <path
         fill="none"
         stroke-width="1.424"
         stroke-linecap="butt"
         stroke-linejoin="miter"
         stroke="#231f20"
         stroke-opacity="1"
         stroke-miterlimit="3.864"
         d="M 0,9.5625e-4 C 9.523438,-6.319356 13.441406,-11.706075 23.320312,-17.444356"
         transform="matrix(1,0,0,-1,219.875,337.2158)"
         id="path117" />
    </g>
    <g
       clip-path="url(#clip-9)"
       id="g118"
       transform="matrix(0.35277777,0,0,0.35277777,45.021886,21.51945)">
      <path
         fill="none"
         stroke-width="1.424"
         stroke-linecap="butt"
         stroke-linejoin="miter"
         stroke="#231f20"
         stroke-opacity="1"
         stroke-miterlimit="3.864"
         d="M -9.5625e-4,0.0019125 C -5.6533,0.443319 -8.500956,3.384725 -14.1533,3.384725 c -3.425781,0 -5.296875,-0.894531 -8.722656,-0.894531 -7.566407,0 -15.132813,2.40625 -16.644532,9.972656"
         transform="matrix(1,0,0,-1,219.3408,336.6816)"
         id="path118" />
    </g>
    <g
       clip-path="url(#clip-10)"
       id="g119"
       transform="matrix(0.35277777,0,0,0.35277777,45.021886,21.51945)">
      <path
         fill="none"
         stroke-width="2.848"
         stroke-linecap="butt"
         stroke-linejoin="miter"
         stroke="#231f20"
         stroke-opacity="1"
         stroke-miterlimit="3.864"
         d="M -1.25e-5,9.8125e-4 C 4.628894,-4.139644 9.300769,-3.116206 15.488269,-3.7373 c 10.859375,-1.113281 17.667969,-1.113281 27.058594,-6.589844 3.070312,-1.777344 5.253906,-2.402344 7.476562,-5.160156 3.207031,-3.960938 3.339844,-7.390625 6.234375,-11.574219 5.472656,-7.875 11.433594,-10.457031 20.648438,-13.527344"
         transform="matrix(1,0,0,-1,167.1797,336.3252)"
         id="path119" />
    </g>
    <g
       clip-path="url(#clip-11)"
       id="g120"
       transform="matrix(0.35277777,0,0,0.35277777,45.021886,21.51945)">
      <path
         fill="none"
         stroke-width="0.712"
         stroke-linecap="butt"
         stroke-linejoin="miter"
         stroke="#ffffff"
         stroke-opacity="1"
         stroke-miterlimit="3.864"
         d="M -1.25e-5,9.8125e-4 C 4.628894,-4.139644 9.300769,-3.116206 15.488269,-3.7373 c 10.859375,-1.113281 17.667969,-1.113281 27.058594,-6.589844 3.070312,-1.777344 5.253906,-2.402344 7.476562,-5.160156 3.207031,-3.960938 3.339844,-7.390625 6.234375,-11.574219 5.472656,-7.875 11.433594,-10.457031 20.648438,-13.527344"
         transform="matrix(1,0,0,-1,167.1797,336.3252)"
         id="path120" />
    </g>
  </g>
</svg>
