<?xml version="1.0" encoding="UTF-8" standalone="no"?>
<!-- Created with Inkscape (http://www.inkscape.org/) -->

<svg
   width="36.03759mm"
   height="36.100471mm"
   viewBox="0 0 36.03759 36.100471"
   version="1.1"
   id="svg1"
   inkscape:version="1.3.2 (091e20e, 2023-11-25)"
   sodipodi:docname="sphere_tissot.svg"
   xmlns:inkscape="http://www.inkscape.org/namespaces/inkscape"
   xmlns:sodipodi="http://sodipodi.sourceforge.net/DTD/sodipodi-0.dtd"
   xmlns="http://www.w3.org/2000/svg"
   xmlns:svg="http://www.w3.org/2000/svg">
  <sodipodi:namedview
     id="namedview1"
     pagecolor="#ffffff"
     bordercolor="#000000"
     borderopacity="0.25"
     inkscape:showpageshadow="2"
     inkscape:pageopacity="0.0"
     inkscape:pagecheckerboard="0"
     inkscape:deskcolor="#d1d1d1"
     inkscape:document-units="mm"
     inkscape:zoom="0.2102413"
     inkscape:cx="68.96837"
     inkscape:cy="66.590151"
     inkscape:window-width="1312"
     inkscape:window-height="449"
     inkscape:window-x="0"
     inkscape:window-y="38"
     inkscape:window-maximized="0"
     inkscape:current-layer="layer1" />
  <defs
     id="defs1">
    <clipPath
       id="clip-0">
      <path
         clip-rule="nonzero"
         d="m 314,227 h 55 v 103 h -55 z m 0,0"
         id="path106" />
    </clipPath>
    <clipPath
       id="clip-1">
      <path
         clip-rule="nonzero"
         d="m 344.22656,232.26172 c -6.05469,2.79687 -11.53125,6.77734 -16.07422,11.66015 -24.35547,26.1875 -14.62109,69.25782 18.75391,82.40625 5.95703,2.34766 12.35156,3.5625 18.75391,3.5625 6.40234,0 12.79687,-1.21484 18.7539,-3.5625 33.41406,-13.16406 43.08985,-56.23046 18.73047,-82.43359 -4.53125,-4.87109 -10.00781,-8.84375 -16.05078,-11.63281 -6.73438,-3.10547 -14.03125,-4.64063 -21.43359,-4.70313 -7.40235,0.0625 -14.69922,1.59766 -21.4336,4.70313"
         id="path107" />
    </clipPath>
    <clipPath
       id="clip-2">
      <path
         clip-rule="nonzero"
         d="m 318,227 h 51 v 103 h -51 z m 0,0"
         id="path108" />
    </clipPath>
    <clipPath
       id="clip-3">
      <path
         clip-rule="nonzero"
         d="m 344.22656,232.26172 c -6.05469,2.79687 -11.53125,6.77734 -16.07422,11.66015 -24.35547,26.1875 -14.62109,69.25782 18.75391,82.40625 5.95703,2.34766 12.35156,3.5625 18.75391,3.5625 6.40234,0 12.79687,-1.21484 18.7539,-3.5625 33.41406,-13.16406 43.08985,-56.23046 18.73047,-82.43359 -4.53125,-4.87109 -10.00781,-8.84375 -16.05078,-11.63281 -6.73438,-3.10547 -14.03125,-4.64063 -21.43359,-4.70313 -7.40235,0.0625 -14.69922,1.59766 -21.4336,4.70313"
         id="path109" />
    </clipPath>
    <clipPath
       id="clip-4">
      <path
         clip-rule="nonzero"
         d="m 336,227 h 33 v 103 h -33 z m 0,0"
         id="path110" />
    </clipPath>
    <clipPath
       id="clip-5">
      <path
         clip-rule="nonzero"
         d="m 344.22656,232.26172 c -6.05469,2.79687 -11.53125,6.77734 -16.07422,11.66015 -24.35547,26.1875 -14.62109,69.25782 18.75391,82.40625 5.95703,2.34766 12.35156,3.5625 18.75391,3.5625 6.40234,0 12.79687,-1.21484 18.7539,-3.5625 33.41406,-13.16406 43.08985,-56.23046 18.73047,-82.43359 -4.53125,-4.87109 -10.00781,-8.84375 -16.05078,-11.63281 -6.73438,-3.10547 -14.03125,-4.64063 -21.43359,-4.70313 -7.40235,0.0625 -14.69922,1.59766 -21.4336,4.70313"
         id="path111" />
    </clipPath>
    <clipPath
       id="clip-6">
      <path
         clip-rule="nonzero"
         d="m 365,227 h 1 v 103 h -1 z m 0,0"
         id="path112" />
    </clipPath>
    <clipPath
       id="clip-7">
      <path
         clip-rule="nonzero"
         d="m 344.22656,232.26172 c -6.05469,2.79687 -11.53125,6.77734 -16.07422,11.66015 -24.35547,26.1875 -14.62109,69.25782 18.75391,82.40625 5.95703,2.34766 12.35156,3.5625 18.75391,3.5625 6.40234,0 12.79687,-1.21484 18.7539,-3.5625 33.41406,-13.16406 43.08985,-56.23046 18.73047,-82.43359 -4.53125,-4.87109 -10.00781,-8.84375 -16.05078,-11.63281 -6.73438,-3.10547 -14.03125,-4.64063 -21.43359,-4.70313 -7.40235,0.0625 -14.69922,1.59766 -21.4336,4.70313"
         id="path113" />
    </clipPath>
    <clipPath
       id="clip-8">
      <path
         clip-rule="nonzero"
         d="m 362,227 h 33 v 103 h -33 z m 0,0"
         id="path114" />
    </clipPath>
    <clipPath
       id="clip-9">
      <path
         clip-rule="nonzero"
         d="m 344.22656,232.26172 c -6.05469,2.79687 -11.53125,6.77734 -16.07422,11.66015 -24.35547,26.1875 -14.62109,69.25782 18.75391,82.40625 5.95703,2.34766 12.35156,3.5625 18.75391,3.5625 6.40234,0 12.79687,-1.21484 18.7539,-3.5625 33.41406,-13.16406 43.08985,-56.23046 18.73047,-82.43359 -4.53125,-4.87109 -10.00781,-8.84375 -16.05078,-11.63281 -6.73438,-3.10547 -14.03125,-4.64063 -21.43359,-4.70313 -7.40235,0.0625 -14.69922,1.59766 -21.4336,4.70313"
         id="path115" />
    </clipPath>
    <clipPath
       id="clip-10">
      <path
         clip-rule="nonzero"
         d="m 362,227 h 51 v 103 h -51 z m 0,0"
         id="path116" />
    </clipPath>
    <clipPath
       id="clip-11">
      <path
         clip-rule="nonzero"
         d="m 344.22656,232.26172 c -6.05469,2.79687 -11.53125,6.77734 -16.07422,11.66015 -24.35547,26.1875 -14.62109,69.25782 18.75391,82.40625 5.95703,2.34766 12.35156,3.5625 18.75391,3.5625 6.40234,0 12.79687,-1.21484 18.7539,-3.5625 33.41406,-13.16406 43.08985,-56.23046 18.73047,-82.43359 -4.53125,-4.87109 -10.00781,-8.84375 -16.05078,-11.63281 -6.73438,-3.10547 -14.03125,-4.64063 -21.43359,-4.70313 -7.40235,0.0625 -14.69922,1.59766 -21.4336,4.70313"
         id="path117" />
    </clipPath>
    <clipPath
       id="clip-12">
      <path
         clip-rule="nonzero"
         d="m 362,227 h 55 v 103 h -55 z m 0,0"
         id="path118" />
    </clipPath>
    <clipPath
       id="clip-13">
      <path
         clip-rule="nonzero"
         d="m 344.22656,232.26172 c -6.05469,2.79687 -11.53125,6.77734 -16.07422,11.66015 -24.35547,26.1875 -14.62109,69.25782 18.75391,82.40625 5.95703,2.34766 12.35156,3.5625 18.75391,3.5625 6.40234,0 12.79687,-1.21484 18.7539,-3.5625 33.41406,-13.16406 43.08985,-56.23046 18.73047,-82.43359 -4.53125,-4.87109 -10.00781,-8.84375 -16.05078,-11.63281 -6.73438,-3.10547 -14.03125,-4.64063 -21.43359,-4.70313 -7.40235,0.0625 -14.69922,1.59766 -21.4336,4.70313"
         id="path119" />
    </clipPath>
    <clipPath
       id="clip-14">
      <path
         clip-rule="nonzero"
         d="m 339,322 h 53 v 2 h -53 z m 0,0"
         id="path120" />
    </clipPath>
    <clipPath
       id="clip-15">
      <path
         clip-rule="nonzero"
         d="m 344.22656,232.26172 c -6.05469,2.79687 -11.53125,6.77734 -16.07422,11.66015 -24.35547,26.1875 -14.62109,69.25782 18.75391,82.40625 5.95703,2.34766 12.35156,3.5625 18.75391,3.5625 6.40234,0 12.79687,-1.21484 18.7539,-3.5625 33.41406,-13.16406 43.08985,-56.23046 18.73047,-82.43359 -4.53125,-4.87109 -10.00781,-8.84375 -16.05078,-11.63281 -6.73438,-3.10547 -14.03125,-4.64063 -21.43359,-4.70313 -7.40235,0.0625 -14.69922,1.59766 -21.4336,4.70313"
         id="path121" />
    </clipPath>
    <clipPath
       id="clip-16">
      <path
         clip-rule="nonzero"
         d="m 321,304 h 90 v 1 h -90 z m 0,0"
         id="path122" />
    </clipPath>
    <clipPath
       id="clip-17">
      <path
         clip-rule="nonzero"
         d="m 344.22656,232.26172 c -6.05469,2.79687 -11.53125,6.77734 -16.07422,11.66015 -24.35547,26.1875 -14.62109,69.25782 18.75391,82.40625 5.95703,2.34766 12.35156,3.5625 18.75391,3.5625 6.40234,0 12.79687,-1.21484 18.7539,-3.5625 33.41406,-13.16406 43.08985,-56.23046 18.73047,-82.43359 -4.53125,-4.87109 -10.00781,-8.84375 -16.05078,-11.63281 -6.73438,-3.10547 -14.03125,-4.64063 -21.43359,-4.70313 -7.40235,0.0625 -14.69922,1.59766 -21.4336,4.70313"
         id="path123" />
    </clipPath>
    <clipPath
       id="clip-18">
      <path
         clip-rule="nonzero"
         d="m 321,252 h 90 v 2 h -90 z m 0,0"
         id="path124" />
    </clipPath>
    <clipPath
       id="clip-19">
      <path
         clip-rule="nonzero"
         d="m 344.22656,232.26172 c -6.05469,2.79687 -11.53125,6.77734 -16.07422,11.66015 -24.35547,26.1875 -14.62109,69.25782 18.75391,82.40625 5.95703,2.34766 12.35156,3.5625 18.75391,3.5625 6.40234,0 12.79687,-1.21484 18.7539,-3.5625 33.41406,-13.16406 43.08985,-56.23046 18.73047,-82.43359 -4.53125,-4.87109 -10.00781,-8.84375 -16.05078,-11.63281 -6.73438,-3.10547 -14.03125,-4.64063 -21.43359,-4.70313 -7.40235,0.0625 -14.69922,1.59766 -21.4336,4.70313"
         id="path125" />
    </clipPath>
    <clipPath
       id="clip-20">
      <path
         clip-rule="nonzero"
         d="m 339,234 h 53 v 1 h -53 z m 0,0"
         id="path126" />
    </clipPath>
    <clipPath
       id="clip-21">
      <path
         clip-rule="nonzero"
         d="m 344.22656,232.26172 c -6.05469,2.79687 -11.53125,6.77734 -16.07422,11.66015 -24.35547,26.1875 -14.62109,69.25782 18.75391,82.40625 5.95703,2.34766 12.35156,3.5625 18.75391,3.5625 6.40234,0 12.79687,-1.21484 18.7539,-3.5625 33.41406,-13.16406 43.08985,-56.23046 18.73047,-82.43359 -4.53125,-4.87109 -10.00781,-8.84375 -16.05078,-11.63281 -6.73438,-3.10547 -14.03125,-4.64063 -21.43359,-4.70313 -7.40235,0.0625 -14.69922,1.59766 -21.4336,4.70313"
         id="path127" />
    </clipPath>
    <clipPath
       id="clip-22">
      <path
         clip-rule="nonzero"
         d="m 314,278 h 103 v 1 H 314 Z m 0,0"
         id="path128" />
    </clipPath>
    <clipPath
       id="clip-23">
      <path
         clip-rule="nonzero"
         d="m 344.22656,232.26172 c -6.05469,2.79687 -11.53125,6.77734 -16.07422,11.66015 -24.35547,26.1875 -14.62109,69.25782 18.75391,82.40625 5.95703,2.34766 12.35156,3.5625 18.75391,3.5625 6.40234,0 12.79687,-1.21484 18.7539,-3.5625 33.41406,-13.16406 43.08985,-56.23046 18.73047,-82.43359 -4.53125,-4.87109 -10.00781,-8.84375 -16.05078,-11.63281 -6.73438,-3.10547 -14.03125,-4.64063 -21.43359,-4.70313 -7.40235,0.0625 -14.69922,1.59766 -21.4336,4.70313"
         id="path129" />
    </clipPath>
    <clipPath
       id="clip-24">
      <path
         clip-rule="nonzero"
         d="m 347,227 h 18 v 8 h -18 z m 0,0"
         id="path130" />
    </clipPath>
    <clipPath
       id="clip-25">
      <path
         clip-rule="nonzero"
         d="m 344.22656,232.26172 c -6.05469,2.79687 -11.53125,6.77734 -16.07422,11.66015 -24.35547,26.1875 -14.62109,69.25782 18.75391,82.40625 5.95703,2.34766 12.35156,3.5625 18.75391,3.5625 6.40234,0 12.79687,-1.21484 18.7539,-3.5625 33.41406,-13.16406 43.08985,-56.23046 18.73047,-82.43359 -4.53125,-4.87109 -10.00781,-8.84375 -16.05078,-11.63281 -6.73438,-3.10547 -14.03125,-4.64063 -21.43359,-4.70313 -7.40235,0.0625 -14.69922,1.59766 -21.4336,4.70313"
         id="path131" />
    </clipPath>
    <clipPath
       id="clip-26">
      <path
         clip-rule="nonzero"
         d="m 356,231 h 5 v 2 h -5 z m 0,0"
         id="path132" />
    </clipPath>
    <clipPath
       id="clip-27">
      <path
         clip-rule="nonzero"
         d="m 344.22656,232.26172 c -6.05469,2.79687 -11.53125,6.77734 -16.07422,11.66015 -24.35547,26.1875 -14.62109,69.25782 18.75391,82.40625 5.95703,2.34766 12.35156,3.5625 18.75391,3.5625 6.40234,0 12.79687,-1.21484 18.7539,-3.5625 33.41406,-13.16406 43.08985,-56.23046 18.73047,-82.43359 -4.53125,-4.87109 -10.00781,-8.84375 -16.05078,-11.63281 -6.73438,-3.10547 -14.03125,-4.64063 -21.43359,-4.70313 -7.40235,0.0625 -14.69922,1.59766 -21.4336,4.70313"
         id="path133" />
    </clipPath>
    <clipPath
       id="clip-28">
      <path
         clip-rule="nonzero"
         d="m 362,235 h 5 v 5 h -5 z m 0,0"
         id="path134" />
    </clipPath>
    <clipPath
       id="clip-29">
      <path
         clip-rule="nonzero"
         d="m 344.22656,232.26172 c -6.05469,2.79687 -11.53125,6.77734 -16.07422,11.66015 -24.35547,26.1875 -14.62109,69.25782 18.75391,82.40625 5.95703,2.34766 12.35156,3.5625 18.75391,3.5625 6.40234,0 12.79687,-1.21484 18.7539,-3.5625 33.41406,-13.16406 43.08985,-56.23046 18.73047,-82.43359 -4.53125,-4.87109 -10.00781,-8.84375 -16.05078,-11.63281 -6.73438,-3.10547 -14.03125,-4.64063 -21.43359,-4.70313 -7.40235,0.0625 -14.69922,1.59766 -21.4336,4.70313"
         id="path135" />
    </clipPath>
    <clipPath
       id="clip-30">
      <path
         clip-rule="nonzero"
         d="m 359,236 h 4 v 3 h -4 z m 0,0"
         id="path136" />
    </clipPath>
    <clipPath
       id="clip-31">
      <path
         clip-rule="nonzero"
         d="m 344.22656,232.26172 c -6.05469,2.79687 -11.53125,6.77734 -16.07422,11.66015 -24.35547,26.1875 -14.62109,69.25782 18.75391,82.40625 5.95703,2.34766 12.35156,3.5625 18.75391,3.5625 6.40234,0 12.79687,-1.21484 18.7539,-3.5625 33.41406,-13.16406 43.08985,-56.23046 18.73047,-82.43359 -4.53125,-4.87109 -10.00781,-8.84375 -16.05078,-11.63281 -6.73438,-3.10547 -14.03125,-4.64063 -21.43359,-4.70313 -7.40235,0.0625 -14.69922,1.59766 -21.4336,4.70313"
         id="path137" />
    </clipPath>
    <clipPath
       id="clip-32">
      <path
         clip-rule="nonzero"
         d="m 336,238 h 4 v 4 h -4 z m 0,0"
         id="path138" />
    </clipPath>
    <clipPath
       id="clip-33">
      <path
         clip-rule="nonzero"
         d="m 344.22656,232.26172 c -6.05469,2.79687 -11.53125,6.77734 -16.07422,11.66015 -24.35547,26.1875 -14.62109,69.25782 18.75391,82.40625 5.95703,2.34766 12.35156,3.5625 18.75391,3.5625 6.40234,0 12.79687,-1.21484 18.7539,-3.5625 33.41406,-13.16406 43.08985,-56.23046 18.73047,-82.43359 -4.53125,-4.87109 -10.00781,-8.84375 -16.05078,-11.63281 -6.73438,-3.10547 -14.03125,-4.64063 -21.43359,-4.70313 -7.40235,0.0625 -14.69922,1.59766 -21.4336,4.70313"
         id="path139" />
    </clipPath>
    <clipPath
       id="clip-34">
      <path
         clip-rule="nonzero"
         d="m 371,244 h 1 v 3 h -1 z m 0,0"
         id="path140" />
    </clipPath>
    <clipPath
       id="clip-35">
      <path
         clip-rule="nonzero"
         d="m 344.22656,232.26172 c -6.05469,2.79687 -11.53125,6.77734 -16.07422,11.66015 -24.35547,26.1875 -14.62109,69.25782 18.75391,82.40625 5.95703,2.34766 12.35156,3.5625 18.75391,3.5625 6.40234,0 12.79687,-1.21484 18.7539,-3.5625 33.41406,-13.16406 43.08985,-56.23046 18.73047,-82.43359 -4.53125,-4.87109 -10.00781,-8.84375 -16.05078,-11.63281 -6.73438,-3.10547 -14.03125,-4.64063 -21.43359,-4.70313 -7.40235,0.0625 -14.69922,1.59766 -21.4336,4.70313"
         id="path141" />
    </clipPath>
    <clipPath
       id="clip-36">
      <path
         clip-rule="nonzero"
         d="m 374,247 h 3 v 2 h -3 z m 0,0"
         id="path142" />
    </clipPath>
    <clipPath
       id="clip-37">
      <path
         clip-rule="nonzero"
         d="m 344.22656,232.26172 c -6.05469,2.79687 -11.53125,6.77734 -16.07422,11.66015 -24.35547,26.1875 -14.62109,69.25782 18.75391,82.40625 5.95703,2.34766 12.35156,3.5625 18.75391,3.5625 6.40234,0 12.79687,-1.21484 18.7539,-3.5625 33.41406,-13.16406 43.08985,-56.23046 18.73047,-82.43359 -4.53125,-4.87109 -10.00781,-8.84375 -16.05078,-11.63281 -6.73438,-3.10547 -14.03125,-4.64063 -21.43359,-4.70313 -7.40235,0.0625 -14.69922,1.59766 -21.4336,4.70313"
         id="path143" />
    </clipPath>
    <clipPath
       id="clip-38">
      <path
         clip-rule="nonzero"
         d="m 382,248 h 3 v 2 h -3 z m 0,0"
         id="path144" />
    </clipPath>
    <clipPath
       id="clip-39">
      <path
         clip-rule="nonzero"
         d="m 344.22656,232.26172 c -6.05469,2.79687 -11.53125,6.77734 -16.07422,11.66015 -24.35547,26.1875 -14.62109,69.25782 18.75391,82.40625 5.95703,2.34766 12.35156,3.5625 18.75391,3.5625 6.40234,0 12.79687,-1.21484 18.7539,-3.5625 33.41406,-13.16406 43.08985,-56.23046 18.73047,-82.43359 -4.53125,-4.87109 -10.00781,-8.84375 -16.05078,-11.63281 -6.73438,-3.10547 -14.03125,-4.64063 -21.43359,-4.70313 -7.40235,0.0625 -14.69922,1.59766 -21.4336,4.70313"
         id="path145" />
    </clipPath>
    <clipPath
       id="clip-40">
      <path
         clip-rule="nonzero"
         d="m 315,266 h 22 v 54 h -22 z m 0,0"
         id="path146" />
    </clipPath>
    <clipPath
       id="clip-41">
      <path
         clip-rule="nonzero"
         d="m 344.22656,232.26172 c -6.05469,2.79687 -11.53125,6.77734 -16.07422,11.66015 -24.35547,26.1875 -14.62109,69.25782 18.75391,82.40625 5.95703,2.34766 12.35156,3.5625 18.75391,3.5625 6.40234,0 12.79687,-1.21484 18.7539,-3.5625 33.41406,-13.16406 43.08985,-56.23046 18.73047,-82.43359 -4.53125,-4.87109 -10.00781,-8.84375 -16.05078,-11.63281 -6.73438,-3.10547 -14.03125,-4.64063 -21.43359,-4.70313 -7.40235,0.0625 -14.69922,1.59766 -21.4336,4.70313"
         id="path147" />
    </clipPath>
    <clipPath
       id="clip-42">
      <path
         clip-rule="nonzero"
         d="m 319,233 h 24 v 25 h -24 z m 0,0"
         id="path148" />
    </clipPath>
    <clipPath
       id="clip-43">
      <path
         clip-rule="nonzero"
         d="m 344.22656,232.26172 c -6.05469,2.79687 -11.53125,6.77734 -16.07422,11.66015 -24.35547,26.1875 -14.62109,69.25782 18.75391,82.40625 5.95703,2.34766 12.35156,3.5625 18.75391,3.5625 6.40234,0 12.79687,-1.21484 18.7539,-3.5625 33.41406,-13.16406 43.08985,-56.23046 18.73047,-82.43359 -4.53125,-4.87109 -10.00781,-8.84375 -16.05078,-11.63281 -6.73438,-3.10547 -14.03125,-4.64063 -21.43359,-4.70313 -7.40235,0.0625 -14.69922,1.59766 -21.4336,4.70313"
         id="path149" />
    </clipPath>
    <clipPath
       id="clip-44">
      <path
         clip-rule="nonzero"
         d="m 326,278 h 2 v 3 h -2 z m 0,0"
         id="path150" />
    </clipPath>
    <clipPath
       id="clip-45">
      <path
         clip-rule="nonzero"
         d="m 344.22656,232.26172 c -6.05469,2.79687 -11.53125,6.77734 -16.07422,11.66015 -24.35547,26.1875 -14.62109,69.25782 18.75391,82.40625 5.95703,2.34766 12.35156,3.5625 18.75391,3.5625 6.40234,0 12.79687,-1.21484 18.7539,-3.5625 33.41406,-13.16406 43.08985,-56.23046 18.73047,-82.43359 -4.53125,-4.87109 -10.00781,-8.84375 -16.05078,-11.63281 -6.73438,-3.10547 -14.03125,-4.64063 -21.43359,-4.70313 -7.40235,0.0625 -14.69922,1.59766 -21.4336,4.70313"
         id="path151" />
    </clipPath>
    <clipPath
       id="clip-46">
      <path
         clip-rule="nonzero"
         d="m 397,289 h 7 v 12 h -7 z m 0,0"
         id="path152" />
    </clipPath>
    <clipPath
       id="clip-47">
      <path
         clip-rule="nonzero"
         d="m 344.22656,232.26172 c -6.05469,2.79687 -11.53125,6.77734 -16.07422,11.66015 -24.35547,26.1875 -14.62109,69.25782 18.75391,82.40625 5.95703,2.34766 12.35156,3.5625 18.75391,3.5625 6.40234,0 12.79687,-1.21484 18.7539,-3.5625 33.41406,-13.16406 43.08985,-56.23046 18.73047,-82.43359 -4.53125,-4.87109 -10.00781,-8.84375 -16.05078,-11.63281 -6.73438,-3.10547 -14.03125,-4.64063 -21.43359,-4.70313 -7.40235,0.0625 -14.69922,1.59766 -21.4336,4.70313"
         id="path153" />
    </clipPath>
    <clipPath
       id="clip-48">
      <path
         clip-rule="nonzero"
         d="m 336,319 h 3 v 2 h -3 z m 0,0"
         id="path154" />
    </clipPath>
    <clipPath
       id="clip-49">
      <path
         clip-rule="nonzero"
         d="m 344.22656,232.26172 c -6.05469,2.79687 -11.53125,6.77734 -16.07422,11.66015 -24.35547,26.1875 -14.62109,69.25782 18.75391,82.40625 5.95703,2.34766 12.35156,3.5625 18.75391,3.5625 6.40234,0 12.79687,-1.21484 18.7539,-3.5625 33.41406,-13.16406 43.08985,-56.23046 18.73047,-82.43359 -4.53125,-4.87109 -10.00781,-8.84375 -16.05078,-11.63281 -6.73438,-3.10547 -14.03125,-4.64063 -21.43359,-4.70313 -7.40235,0.0625 -14.69922,1.59766 -21.4336,4.70313"
         id="path155" />
    </clipPath>
    <clipPath
       id="clip-50">
      <path
         clip-rule="nonzero"
         d="m 346,324 h 41 v 6 h -41 z m 0,0"
         id="path156" />
    </clipPath>
    <clipPath
       id="clip-51">
      <path
         clip-rule="nonzero"
         d="m 344.22656,232.26172 c -6.05469,2.79687 -11.53125,6.77734 -16.07422,11.66015 -24.35547,26.1875 -14.62109,69.25782 18.75391,82.40625 5.95703,2.34766 12.35156,3.5625 18.75391,3.5625 6.40234,0 12.79687,-1.21484 18.7539,-3.5625 33.41406,-13.16406 43.08985,-56.23046 18.73047,-82.43359 -4.53125,-4.87109 -10.00781,-8.84375 -16.05078,-11.63281 -6.73438,-3.10547 -14.03125,-4.64063 -21.43359,-4.70313 -7.40235,0.0625 -14.69922,1.59766 -21.4336,4.70313"
         id="path157" />
    </clipPath>
    <clipPath
       id="clip-52">
      <path
         clip-rule="nonzero"
         d="m 350,228 h 66 v 80 h -66 z m 0,0"
         id="path158" />
    </clipPath>
    <clipPath
       id="clip-53">
      <path
         clip-rule="nonzero"
         d="m 344.22656,232.26172 c -6.05469,2.79687 -11.53125,6.77734 -16.07422,11.66015 -24.35547,26.1875 -14.62109,69.25782 18.75391,82.40625 5.95703,2.34766 12.35156,3.5625 18.75391,3.5625 6.40234,0 12.79687,-1.21484 18.7539,-3.5625 33.41406,-13.16406 43.08985,-56.23046 18.73047,-82.43359 -4.53125,-4.87109 -10.00781,-8.84375 -16.05078,-11.63281 -6.73438,-3.10547 -14.03125,-4.64063 -21.43359,-4.70313 -7.40235,0.0625 -14.69922,1.59766 -21.4336,4.70313"
         id="path159" />
    </clipPath>
    <clipPath
       id="clip-54">
      <path
         clip-rule="nonzero"
         d="m 392,241 h 7 v 8 h -7 z m 0,0"
         id="path160" />
    </clipPath>
    <clipPath
       id="clip-55">
      <path
         clip-rule="nonzero"
         d="m 344.22656,232.26172 c -6.05469,2.79687 -11.53125,6.77734 -16.07422,11.66015 -24.35547,26.1875 -14.62109,69.25782 18.75391,82.40625 5.95703,2.34766 12.35156,3.5625 18.75391,3.5625 6.40234,0 12.79687,-1.21484 18.7539,-3.5625 33.41406,-13.16406 43.08985,-56.23046 18.73047,-82.43359 -4.53125,-4.87109 -10.00781,-8.84375 -16.05078,-11.63281 -6.73438,-3.10547 -14.03125,-4.64063 -21.43359,-4.70313 -7.40235,0.0625 -14.69922,1.59766 -21.4336,4.70313"
         id="path161" />
    </clipPath>
  </defs>
  <g
     inkscape:label="Layer 1"
     inkscape:groupmode="layer"
     id="layer1"
     transform="translate(-87.047915,-130.43958)">
    <path
       fill-rule="nonzero"
       fill="#d3d3d3"
       fill-opacity="1"
       d="m 105.06736,130.43958 c -2.61138,0.0221 -5.185555,0.56362 -7.561295,1.65916 -2.13596,0.9853 -4.067968,2.3909 -5.670627,4.11344 -8.592069,9.23837 -5.157996,24.43262 6.615962,29.0711 2.10151,0.8282 4.35736,1.25677 6.61596,1.25677 2.25861,0 4.51445,-0.42857 6.61596,-1.25677 11.78774,-4.64399 15.20114,-19.83686 6.6077,-29.08074 -1.59853,-1.71841 -3.53054,-3.11988 -5.66236,-4.1038 -2.37574,-1.09554 -4.94992,-1.63711 -7.5613,-1.65916"
       id="path217"
       style="stroke-width:0.352778" />
    <g
       clip-path="url(#clip-0)"
       id="g219"
       transform="matrix(0.35277777,0,0,0.35277777,-23.929413,50.16197)">
      <g
         clip-path="url(#clip-1)"
         id="g218">
        <path
           fill="none"
           stroke-width="0.551"
           stroke-linecap="butt"
           stroke-linejoin="miter"
           stroke="#ffffff"
           stroke-opacity="1"
           stroke-miterlimit="3.864"
           d="M -4.375e-5,-5.25e-4 C -7.070356,0.061975 -14.050825,1.460412 -20.539106,4.304162 -52.2227,18.194787 -61.1602,59.308069 -38.293013,85.101037 c 4.464844,5.035157 9.914063,9.167969 15.96875,12.105469 7.007813,3.398434 14.5625,4.992184 22.32421925,5.125004"
           transform="matrix(1,0,0,-1,365.6602,329.8901)"
           id="path218" />
      </g>
    </g>
    <g
       clip-path="url(#clip-2)"
       id="g221"
       transform="matrix(0.35277777,0,0,0.35277777,-23.929413,50.16197)">
      <g
         clip-path="url(#clip-3)"
         id="g220">
        <path
           fill="none"
           stroke-width="0.551"
           stroke-linecap="butt"
           stroke-linejoin="miter"
           stroke="#ffffff"
           stroke-opacity="1"
           stroke-miterlimit="3.864"
           d="M -4.375e-5,-5.25e-4 C -4.902388,0.0580687 -9.718794,0.933069 -14.289106,2.73385 c -39.230469,15.433594 -39.914063,78.96875 -1.785157,96.113281 5.144532,2.312499 10.46875,3.289059 16.07421925,3.484379"
           transform="matrix(1,0,0,-1,365.6602,329.8901)"
           id="path219" />
      </g>
    </g>
    <g
       clip-path="url(#clip-4)"
       id="g223"
       transform="matrix(0.35277777,0,0,0.35277777,-23.929413,50.16197)">
      <g
         clip-path="url(#clip-5)"
         id="g222">
        <path
           fill="none"
           stroke-width="0.551"
           stroke-linecap="butt"
           stroke-linejoin="miter"
           stroke="#ffffff"
           stroke-opacity="1"
           stroke-miterlimit="3.864"
           d="M -4.375e-5,-5.25e-4 C -11.207075,0.3901 -17.632856,12.386194 -20.914106,21.698694 c -6.644532,18.847656 -6.496094,43.035156 1.011718,61.617187 3.527344,8.734375 9.632813,18.300779 19.90234425,19.015629"
           transform="matrix(1,0,0,-1,365.6602,329.8901)"
           id="path221" />
      </g>
    </g>
    <g
       clip-path="url(#clip-6)"
       id="g225"
       transform="matrix(0.35277777,0,0,0.35277777,-23.929413,50.16197)">
      <g
         clip-path="url(#clip-7)"
         id="g224">
        <path
           fill="none"
           stroke-width="0.551"
           stroke-linecap="butt"
           stroke-linejoin="miter"
           stroke="#ffffff"
           stroke-opacity="1"
           stroke-miterlimit="3.864"
           d="M -4.375e-5,-5.25e-4 V 102.33151"
           transform="matrix(1,0,0,-1,365.6602,329.8901)"
           id="path223" />
      </g>
    </g>
    <g
       clip-path="url(#clip-8)"
       id="g227"
       transform="matrix(0.35277777,0,0,0.35277777,-23.929413,50.16197)">
      <g
         clip-path="url(#clip-9)"
         id="g226">
        <path
           fill="none"
           stroke-width="0.551"
           stroke-linecap="butt"
           stroke-linejoin="miter"
           stroke="#ffffff"
           stroke-opacity="1"
           stroke-miterlimit="3.864"
           d="M -4.375e-5,-5.25e-4 C 11.206987,0.3901 17.632769,12.386194 20.914019,21.698694 27.55855,40.54635 27.410112,64.73385 19.9023,83.315881 16.374956,92.050256 10.269487,101.61666 -4.375e-5,102.33151"
           transform="matrix(1,0,0,-1,365.6602,329.8901)"
           id="path225" />
      </g>
    </g>
    <g
       clip-path="url(#clip-10)"
       id="g229"
       transform="matrix(0.35277777,0,0,0.35277777,-23.929413,50.16197)">
      <g
         clip-path="url(#clip-11)"
         id="g228">
        <path
           fill="none"
           stroke-width="0.551"
           stroke-linecap="butt"
           stroke-linejoin="miter"
           stroke="#ffffff"
           stroke-opacity="1"
           stroke-miterlimit="3.864"
           d="M -4.375e-5,-5.25e-4 C 4.9023,0.0580687 9.718706,0.933069 14.289019,2.73385 53.519487,18.167444 54.203081,81.7026 16.074175,98.847131 10.929644,101.15963 5.605425,102.13619 -4.375e-5,102.33151"
           transform="matrix(1,0,0,-1,365.6602,329.8901)"
           id="path227" />
      </g>
    </g>
    <g
       clip-path="url(#clip-12)"
       id="g231"
       transform="matrix(0.35277777,0,0,0.35277777,-23.929413,50.16197)">
      <g
         clip-path="url(#clip-13)"
         id="g230">
        <path
           fill="none"
           stroke-width="0.551"
           stroke-linecap="butt"
           stroke-linejoin="miter"
           stroke="#ffffff"
           stroke-opacity="1"
           stroke-miterlimit="3.864"
           d="M -4.375e-5,-5.25e-4 C 7.074175,0.061975 14.050737,1.460412 20.539019,4.304162 c 31.683593,13.890625 40.621093,55.003907 17.753906,80.796875 -4.464844,5.035157 -9.914063,9.167969 -15.96875,12.105469 -7.007813,3.398434 -14.5625,4.992184 -22.32421875,5.125004"
           transform="matrix(1,0,0,-1,365.6602,329.8901)"
           id="path229" />
      </g>
    </g>
    <g
       clip-path="url(#clip-14)"
       id="g233"
       transform="matrix(0.35277777,0,0,0.35277777,-23.929413,50.16197)">
      <g
         clip-path="url(#clip-15)"
         id="g232">
        <path
           fill="none"
           stroke-width="0.551"
           stroke-linecap="butt"
           stroke-linejoin="miter"
           stroke="#ffffff"
           stroke-opacity="1"
           stroke-miterlimit="3.864"
           d="M 0.001025,4.375e-5 H 51.165088"
           transform="matrix(1,0,0,-1,340.0771,323.0352)"
           id="path231" />
      </g>
    </g>
    <g
       clip-path="url(#clip-16)"
       id="g235"
       transform="matrix(0.35277777,0,0,0.35277777,-23.929413,50.16197)">
      <g
         clip-path="url(#clip-17)"
         id="g234">
        <path
           fill="none"
           stroke-width="0.551"
           stroke-linecap="butt"
           stroke-linejoin="miter"
           stroke="#ffffff"
           stroke-opacity="1"
           stroke-miterlimit="3.864"
           d="M -0.00194375,0.0019125 H 88.623056"
           transform="matrix(1,0,0,-1,321.3496,304.3066)"
           id="path233" />
      </g>
    </g>
    <g
       clip-path="url(#clip-18)"
       id="g237"
       transform="matrix(0.35277777,0,0,0.35277777,-23.929413,50.16197)">
      <g
         clip-path="url(#clip-19)"
         id="g236">
        <path
           fill="none"
           stroke-width="0.551"
           stroke-linecap="butt"
           stroke-linejoin="miter"
           stroke="#ffffff"
           stroke-opacity="1"
           stroke-miterlimit="3.864"
           d="M -0.00194375,-2.5e-5 H 88.623056"
           transform="matrix(1,0,0,-1,321.3496,253.1406)"
           id="path235" />
      </g>
    </g>
    <g
       clip-path="url(#clip-20)"
       id="g239"
       transform="matrix(0.35277777,0,0,0.35277777,-23.929413,50.16197)">
      <g
         clip-path="url(#clip-21)"
         id="g238">
        <path
           fill="none"
           stroke-width="0.551"
           stroke-linecap="butt"
           stroke-linejoin="miter"
           stroke="#ffffff"
           stroke-opacity="1"
           stroke-miterlimit="3.864"
           d="M 0.001025,-0.0014625 H 51.165088"
           transform="matrix(1,0,0,-1,340.0771,234.4126)"
           id="path237" />
      </g>
    </g>
    <g
       clip-path="url(#clip-22)"
       id="g241"
       transform="matrix(0.35277777,0,0,0.35277777,-23.929413,50.16197)">
      <g
         clip-path="url(#clip-23)"
         id="g240">
        <path
           fill="none"
           stroke-width="0.551"
           stroke-linecap="butt"
           stroke-linejoin="miter"
           stroke="#ffffff"
           stroke-opacity="1"
           stroke-miterlimit="3.864"
           d="M 0.00194375,9.4375e-4 H 107.38476"
           transform="matrix(1,0,0,-1,312.5254,278.7236)"
           id="path239" />
      </g>
    </g>
    <g
       clip-path="url(#clip-24)"
       id="g243"
       transform="matrix(0.35277777,0,0,0.35277777,-23.929413,50.16197)">
      <g
         clip-path="url(#clip-25)"
         id="g242">
        <path
           fill-rule="nonzero"
           fill="#a7a6a6"
           fill-opacity="1"
           d="m 353.54297,231.93359 -0.23047,0.0195 -0.25391,0.0898 0.0859,-0.0859 -0.17969,0.10938 -0.13281,-0.043 0.41406,-0.16407 -0.1289,-0.0391 -0.0508,0.0625 -0.25,0.1211 -0.0977,-0.0312 -0.12109,0.14453 -0.26172,-0.043 -0.10547,0.0781 -0.26953,0.0117 -0.14453,0.15625 -0.3125,-0.0117 -0.1875,0.28907 -0.39844,0.0352 0.21875,0.0586 -0.20313,0.16406 -0.20312,-0.0664 0.0351,0.13672 -0.13281,-0.0195 -0.0742,0.0664 -0.0586,-0.0312 0.043,0.0703 -0.14844,-0.0664 -0.0352,0.13672 -0.11328,-0.0469 -0.0703,0.0195 -0.0703,0.14843 -0.29297,0.0547 -0.17578,-0.0195 -0.33594,0.42188 -1.07031,0.70703 -0.66016,0.0156 0.59375,-0.49609 -1.11328,0.16406 0.92969,-1.07031 1.03125,-0.57813 -0.90235,0.25782 0.58204,-0.42579 0.71875,-0.14843 -0.48047,-0.0977 1.40625,-0.35937 -1.33594,0.3164 0.53516,-0.34375 0.83203,-0.0352 -0.69922,-0.0234 1.03906,-0.22656 -0.8125,0.125 1.00781,-0.13672 -0.40625,-0.13282 1.72657,-0.53515 -0.38672,-0.1875 0.66015,0.0391 0.6836,-0.52344 -0.83203,0.1836 0.60937,-0.14453 -0.35547,0.0625 0.41406,-0.10547 -0.0898,-0.0195 0.22656,-0.0117 -0.0859,-0.008 0.37109,-0.1289 -0.0859,-0.0156 0.29688,-0.0781 0.0586,-0.0742 0.44531,-0.15625 -0.28906,0.0469 0.46875,-0.10937 0.11719,-0.11719 0.49219,-0.21484 -0.73047,-0.0156 0.58203,-0.19922 0.74609,-0.0898 0.38672,-0.18359 0.93359,-0.11328 0.94922,-0.16016 -0.28906,0.0156 0.20313,-0.043 0.88281,-0.11719 -0.25781,0.0547 0.27343,-0.0547 0.125,0.004 0.6875,-0.10937 -0.19922,0.0781 0.42188,-0.0977 0.30078,0.0625 0.54297,-0.0195 0.54297,-0.1211 0.42969,0.0117 -0.33594,-0.0391 1.42578,-0.0625 0.50391,0.0352 -1.15625,0.0547 1.35546,0.0195 -1.59765,0.10938 0.95703,-0.0391 0.35937,-0.0117 -0.80859,0.21094 0.96094,-0.16016 -0.11719,0.0352 h 0.25391 l 0.21093,-0.0547 0.31641,-0.0117 0.28516,0.043 -1.46485,0.14453 0.69532,0.008 -1.75,0.47656 0.5,0.14454 -0.85938,0.0234 0.18359,0.3086 -0.73046,0.0508 0.54687,0.16015 -0.66797,-0.0234 0.0195,0.27734 h -1.61718 l 0.0469,0.27734 0.38281,0.55079 -1.22265,-0.47657 0.46093,0.24219 -1.32421,0.25391 1.73437,0.12109 -0.53516,0.13672 -0.17578,-0.0156 0.008,0.0586 -0.63672,0.17578 -0.58203,0.10547 -1.45704,-0.0273 -0.24218,0.25391 -0.375,0.0586 -0.83203,0.38672 -0.1875,0.0703 -0.32422,-0.0234 z m 0,0"
           id="path241" />
      </g>
    </g>
    <g
       clip-path="url(#clip-26)"
       id="g245"
       transform="matrix(0.35277777,0,0,0.35277777,-23.929413,50.16197)">
      <g
         clip-path="url(#clip-27)"
         id="g244">
        <path
           fill-rule="nonzero"
           fill="#a7a6a6"
           fill-opacity="1"
           d="m 357.44531,232.79297 -0.64062,-0.39063 0.99609,-0.21875 -0.95312,-0.0195 0.78125,-0.33984 0.30078,0.46484 0.17187,-0.15625 0.1211,0.0391 0.13281,-0.0703 0.0664,-0.15234 0.23047,0.1289 0.0977,-0.12109 h 0.30469 l 0.0625,0.15234 0.0508,-0.1875 0.19531,0.0898 0.21484,-0.10938 0.15625,0.0469 0.25391,-0.16016 0.66406,0.38672 -0.17187,0.0742 -0.0234,0.0273 0.16797,0.0469 -0.27734,0.0156 0.17578,0.043 -0.32422,0.043 -0.0937,0.15625 h -0.33985 l -1.23046,0.36328 z m 0,0"
           id="path243" />
      </g>
    </g>
    <g
       clip-path="url(#clip-28)"
       id="g247"
       transform="matrix(0.35277777,0,0,0.35277777,-23.929413,50.16197)">
      <g
         clip-path="url(#clip-29)"
         id="g246">
        <path
           fill-rule="nonzero"
           fill="#a7a6a6"
           fill-opacity="1"
           d="m 363.33984,235.03516 h 0.91797 l -0.63672,0.53515 1.16797,-0.0469 -0.96875,0.77343 0.77344,0.0586 0.45703,0.66015 0.34375,0.0781 0.26563,0.35937 0.0703,0.0977 -0.0703,0.0273 0.96093,0.5625 -0.75,0.56641 -0.0781,0.40234 -0.96094,-0.10156 -0.33203,0.11328 -0.23047,0.1211 -0.57031,-0.0937 -0.125,0.2539 h -0.78906 l -0.10938,0.15235 -0.28125,-0.10157 0.48047,-0.25781 1.46875,-0.65234 -1.0625,0.0469 -0.16406,-0.64843 1.08593,-0.25782 -0.0898,-0.86328 -1.08984,0.0664 0.19531,-0.71485 -0.51172,0.48438 z m 0,0"
           id="path245" />
      </g>
    </g>
    <g
       clip-path="url(#clip-30)"
       id="g249"
       transform="matrix(0.35277777,0,0,0.35277777,-23.929413,50.16197)">
      <g
         clip-path="url(#clip-31)"
         id="g248">
        <path
           fill-rule="nonzero"
           fill="#a7a6a6"
           fill-opacity="1"
           d="m 362.39453,237.28516 -0.21484,1.01953 -1.23438,0.32031 -0.69531,0.082 -0.28906,-0.40234 0.98828,-0.26563 -0.5586,-0.76172 1.57032,-0.49218 z m 0,0"
           id="path247" />
      </g>
    </g>
    <g
       clip-path="url(#clip-32)"
       id="g251"
       transform="matrix(0.35277777,0,0,0.35277777,-23.929413,50.16197)">
      <g
         clip-path="url(#clip-33)"
         id="g250">
        <path
           fill-rule="nonzero"
           fill="#a7a6a6"
           fill-opacity="1"
           d="m 339.42969,238.625 -0.16797,0.16797 -0.10938,-0.0391 -0.0547,0.16015 -1.23047,0.875 0.18359,0.30078 0.78516,-0.14843 -1.01172,1.04687 0.60547,-0.34766 -0.85157,0.875 0.24219,-0.7539 -0.94922,0.625 0.45703,-0.65625 -1.32421,0.19922 0.12109,-0.14844 0.70703,-0.38672 -0.26953,-0.0234 0.26953,-0.13672 -0.10937,0.12891 0.44921,-0.34375 0.0391,0.10938 v -0.0898 l 0.082,-0.10547 0.21094,-0.14453 0.0469,0.0469 0.17188,-0.21094 0.66406,-0.44922 0.53906,-0.39453 0.4375,-0.17578 z m 0,0"
           id="path249" />
      </g>
    </g>
    <g
       clip-path="url(#clip-34)"
       id="g253"
       transform="matrix(0.35277777,0,0,0.35277777,-23.929413,50.16197)">
      <g
         clip-path="url(#clip-35)"
         id="g252">
        <path
           fill-rule="nonzero"
           fill="#a7a6a6"
           fill-opacity="1"
           d="m 371.84375,244.98828 -0.0547,1.61719 -0.64453,-1.26953 z m 0,0"
           id="path251" />
      </g>
    </g>
    <g
       clip-path="url(#clip-36)"
       id="g255"
       transform="matrix(0.35277777,0,0,0.35277777,-23.929413,50.16197)">
      <g
         clip-path="url(#clip-37)"
         id="g254">
        <path
           fill-rule="nonzero"
           fill="#a7a6a6"
           fill-opacity="1"
           d="m 376.47656,247.04687 -0.13281,1.13672 -0.42188,-0.0977 -0.21093,-0.20313 -0.35547,-0.0586 -0.44531,-0.23438 -0.36719,-0.0508 -0.1875,-0.17578 0.17187,-0.26953 0.39063,-0.0234 0.33984,0.17578 z m 0,0"
           id="path253" />
      </g>
    </g>
    <g
       clip-path="url(#clip-38)"
       id="g257"
       transform="matrix(0.35277777,0,0,0.35277777,-23.929413,50.16197)">
      <g
         clip-path="url(#clip-39)"
         id="g256">
        <path
           fill-rule="nonzero"
           fill="#a7a6a6"
           fill-opacity="1"
           d="m 384.16797,249.14453 -0.008,0.21875 -0.79688,0.0625 -1.02344,-0.25781 -0.0273,-0.24219 0.0742,-0.0469 0.46094,0.24218 0.95703,0.0117 0.0742,0.16797 z m 0,0"
           id="path255" />
      </g>
    </g>
    <g
       clip-path="url(#clip-40)"
       id="g259"
       transform="matrix(0.35277777,0,0,0.35277777,-23.929413,50.16197)">
      <g
         clip-path="url(#clip-41)"
         id="g258">
        <path
           fill-rule="nonzero"
           fill="#a7a6a6"
           fill-opacity="1"
           d="m 316.30078,271.01562 0.0312,0.66016 0.0352,-0.55859 0.39843,-0.79297 0.13282,-0.64844 0.0586,-0.33594 0.24219,-0.49609 1.02344,-0.62891 -0.23047,0.26563 -0.0312,0.72656 -0.28516,0.79297 0.0273,0.67578 0.27344,-1.53906 0.61719,-0.55469 0.0664,-0.67187 0.28515,1.32812 1.01953,0.57031 1.3711,-0.6289 0.24218,1.15625 -0.42968,0.76562 0.69922,0.0312 0.55468,1.03125 -0.18359,0.8711 0.60547,0.80078 1.53515,0.11718 0.66016,-0.0898 0.59766,1.26172 0.0742,-0.17969 0.0547,0.26953 -0.0312,-0.41797 0.22657,0.44532 0.11328,1.65234 0.44531,0.33984 0.0391,0.44922 -0.82812,1.11328 -0.32032,1.11719 -0.42578,0.23828 1.02344,-0.60937 0.0859,0.77344 h 0.74609 l -0.1289,0.80078 0.41015,-0.80078 1.25391,-0.95313 1.39453,0.92188 -0.0742,1.38281 0.23047,-0.41406 0.0625,-0.3125 0.15625,-0.0586 -0.0937,0.39844 0.53516,-0.44531 0.74609,0.41797 0.26172,-0.0899 0.41015,0.25391 0.82813,-0.14844 1.08594,0.75781 0.96484,1.09766 1.26563,0.25 0.52343,1.57031 0.0469,0.16016 -0.0274,1.05078 -0.19921,0.73437 -0.42969,0.36719 0.11719,0.11719 -0.34375,0.66016 -0.57813,0.46484 0.11328,0.16016 -0.1289,0.20703 -0.0742,-0.0586 L 334.83203,290 h -0.52344 l 0.0859,0.88672 h -0.11328 l 0.17969,0.14453 0.3125,1.66797 0.12109,1.5664 -0.24219,0.46875 0.16016,1.17969 -0.41797,1.33985 0.16016,0.62109 -0.41407,0.30469 -0.0351,0.46875 -0.58985,0.0547 -0.10546,-0.26171 0.0117,0.21875 h -0.74218 l -0.11719,0.15234 0.16016,0.14844 -0.45313,0.26172 0.0547,0.17578 -0.53906,0.0273 -0.59766,0.93359 0.0469,0.26954 -0.0312,-0.0664 -0.16796,-0.0117 -0.14063,0.0781 0.27344,0.1914 -0.13281,0.22656 0.16015,0.3086 -0.11719,-0.14844 0.4961,0.87891 0.2539,0.84375 0.0352,0.23437 -0.23828,0.65235 0.0898,1.4375 -0.21875,0.71093 0.0937,-1.30859 -0.5,-0.33594 0.28516,0.60156 -0.0977,-0.11328 0.11328,0.33203 -0.15234,0.19141 0.0547,0.39063 0.3164,0.96875 -0.0937,0.44531 -1.55078,0.5664 -1,-1.52734 0.71485,1.49219 0.89453,0.63281 0.20703,0.47266 0.41016,0.2539 0.28515,0.41797 0.10156,1.11719 -1.25,0.22266 1.04688,1.38281 -0.83203,0.0234 1.39844,1.17578 -0.3711,0.0351 0.3711,0.21485 0.0781,0.42187 0.5,0.67578 0.19922,0.19922 0.082,0.61719 1.27734,0.84375 0.88282,1.55469 0.22265,0.0742 0.38672,0.53125 -0.0312,-0.0664 0.4375,0.33594 -0.0859,0.0351 0.11329,-0.008 0.61328,0.42188 -0.004,0.53906 -0.19141,-0.28906 -0.082,0.20703 -0.125,-0.32032 -0.0703,0.19532 -0.66797,-0.66407 0.008,0.14844 -1.41406,-1.03515 0.19531,0.0547 -0.28906,-0.17968 0.14063,0.0547 -0.14453,-0.12109 -0.11329,-0.0391 0.0625,-0.0391 -0.23437,-0.14453 -0.043,-0.0781 -0.23828,-0.20313 0.16797,0.22266 -0.37891,-0.33984 0.0156,-0.0391 -0.13282,-0.0703 -0.0547,-0.12891 -0.36719,-0.22656 0.22656,-0.0117 -0.97656,-0.72265 -0.28906,-0.10157 -0.27735,-0.51562 0.53125,0.45312 -1.03515,-1.27343 h -0.0195 l -0.32813,-0.23438 -0.0977,-0.20312 -0.28515,-0.2461 -0.12891,-0.23047 -0.32422,-0.33593 h 0.0625 l -0.21484,-0.17578 -0.0195,-0.0781 0.1875,0.17578 -0.28516,-0.32031 -0.10937,-0.0312 -0.1875,-0.35547 0.13281,0.19922 -0.20313,-0.13281 0.0703,0.21093 -0.0742,-0.0351 -0.11719,-0.1211 -0.28516,-0.30078 -0.55468,-0.8164 -0.34375,-0.48047 -1.09375,-1.32031 v -0.13282 l -0.19532,-0.26953 0.0117,-0.0508 -0.32422,-0.51562 -0.043,-0.13282 -0.125,-0.15625 -0.14454,-0.35156 -0.41406,-0.69922 -0.13672,-0.34375 -0.29297,-0.4375 -0.13671,-0.33594 -0.96485,-1.54687 -0.19922,-0.55078 -0.44922,-0.72656 -0.16406,-0.48438 -0.23437,-0.53906 0.0117,-0.0391 -0.1836,-0.34375 -0.0195,-0.14454 -0.21875,-0.54687 -0.30859,-0.77734 -0.59375,-1.42188 -0.0937,-0.082 -0.13672,-0.35547 0.0273,-0.13672 -0.39844,-1.21094 -0.23828,-0.52734 -0.29687,-0.91016 -0.31641,-0.78515 -0.1289,-0.36719 -0.44532,-0.55078 -0.49609,-0.79688 -1.00781,-1.20312 -0.4961,-1.03516 -0.13672,-0.63672 -0.45703,-1.1914 -0.22265,-0.66797 -0.0703,-0.32031 -0.22265,-0.71875 -0.19531,-0.82032 -0.125,-0.53125 -0.41016,-1.60546 -0.25,-0.67969 0.0156,-0.3125 -0.0859,-0.39844 -0.0586,-0.46094 -0.0195,-0.34375 0.082,-0.82812 0.0312,-1.20703 -0.16406,0.26953 -0.0312,-1.14453 0.0898,-0.35938 -0.0351,-0.23828 0.0625,-0.38672 0.004,-0.68359 0.1836,-0.25391 0.0312,-0.28125 -0.0352,-0.17969 0.0859,-0.11718 0.0234,-0.61328 0.15625,-0.13282 0.0273,-0.40234 0.17578,-0.76953 -0.0703,-0.0899 0.0547,-0.20703 0.0273,-1.11328 0.0781,-0.20703 -0.004,-0.40234 0.0664,-0.33985 -0.0352,-0.58984 0.11719,-1.16406 -0.19532,-0.33985 -0.0156,0.0469 -0.32813,1.4414 -0.22656,-0.6914 0.0195,-1.64844 0.1836,-1.02344 0.26953,-1.66015 0.0937,-0.63282 z m 0,0"
           id="path257" />
      </g>
    </g>
    <g
       clip-path="url(#clip-42)"
       id="g261"
       transform="matrix(0.35277777,0,0,0.35277777,-23.929413,50.16197)">
      <g
         clip-path="url(#clip-43)"
         id="g260">
        <path
           fill-rule="nonzero"
           fill="#a7a6a6"
           fill-opacity="1"
           d="m 337.26562,234.79687 c 6.51563,-1.67187 0.54297,1.00391 0.54297,1.00391 l -0.004,0.004 h -0.004 l -0.008,0.008 -0.0586,0.0391 -0.0625,0.043 0.0274,-0.0156 -0.0274,0.0156 -1.27734,0.92578 0.29297,-0.0859 -0.21094,0.15235 -0.47265,0.32812 -0.26563,0.21094 -0.37891,0.28516 -0.23828,0.16797 -0.40625,0.35937 -0.11328,0.0664 -0.77734,0.8164 0.42969,-0.38672 0.21875,-0.14453 -0.28516,0.26563 0.22656,-0.16406 0.16016,-0.16016 0.39062,-0.25391 0.48438,-0.42578 0.57031,-0.42578 0.24219,-0.19141 0.26562,-0.24218 0.98828,-0.51172 1.20704,-0.78125 0.82031,-0.65625 0.26172,-0.16016 0.64062,-0.34375 0.30469,-0.14844 -0.0312,-0.008 0.39062,-0.21484 0.20704,-0.1211 -0.10547,0.0195 0.64453,-0.32032 0.0898,-0.0781 0.46875,-0.26172 0.19141,0.25391 -0.23438,0.35546 -0.85547,0.36719 -0.64453,0.69141 -0.75,0.36719 0.8086,-0.38282 0.16797,0.125 0.52343,-0.32422 0.11719,-0.008 0.008,-0.0547 0.25782,-0.15234 0.043,0.0469 0.13672,-0.16016 0.13282,-0.0156 0.44531,-0.26562 0.004,0.0508 -0.0586,0.0391 -0.21094,0.082 v 0.0352 l 0.12891,-0.0352 -0.31641,0.20704 h 0.0742 l -0.15625,0.0625 0.0664,0.043 -0.31641,0.125 0.0899,0.0977 -0.48438,0.23438 0.34375,-0.0859 -0.25781,0.125 -0.25,0.10937 0.32422,-0.0937 -0.21094,0.11719 0.13672,-0.0156 -0.17578,0.16796 -0.23047,0.0547 0.008,0.19141 -0.32422,0.14844 -0.0664,0.0898 -0.0547,-0.0508 -0.75391,0.85937 0.625,0.21485 -0.49609,0.18359 -1.15235,0.51172 1.24219,-0.51172 0.0234,0.55469 -0.52344,0.52344 -0.875,0.4414 -0.60937,0.0937 -0.39844,0.28125 -0.64844,0.3125 -1.07812,-0.0664 -0.50782,0.0273 -0.78906,0.53906 -0.32812,0.0859 -0.91797,0.62109 -0.0899,-0.17968 0.0703,0.1875 -1.16407,0.82812 0.32422,-0.16406 1.48047,-0.96875 1.03125,-0.3711 -0.15625,0.44922 -0.95312,0.29688 0.37109,0.16015 -0.86328,1.16016 0.55078,-0.0273 -0.0664,0.38281 -0.85937,0.34766 h -0.23438 l -0.15234,0.17968 0.0703,-0.15625 -0.17968,0.0703 -0.15625,0.1914 -0.53516,0.36719 -0.24609,0.14844 0.34765,-0.60938 1.30078,-0.60156 -0.4375,0.0117 0.47266,-0.45703 -0.72656,0.50781 -0.42188,0.0547 -0.29687,0.32422 -0.39453,0.20312 -0.0117,-0.0977 -0.15625,0.16016 0.1289,-0.21094 -0.40234,0.36328 -0.21094,0.11719 0.0899,-0.11719 -0.16407,0.16016 0.10938,-0.15234 -0.125,0.16015 h -0.0937 l -0.51172,0.44532 -0.13281,0.13281 -0.83985,0.90234 -0.2539,0.1211 -0.53907,0.21484 -0.39453,0.33984 -0.96484,1.0625 0.54297,-0.72265 -0.17578,0.13672 -0.66797,0.93359 -0.28906,0.30469 -0.57032,0.625 0.49219,-0.58985 0.17188,-0.36328 0.67187,-0.76172 -0.91406,1.06641 0.28125,-0.51172 0.0625,-0.082 -0.41016,0.51172 -0.4375,0.76562 -0.043,-0.16406 -0.16015,0.54688 -0.33203,0.55078 0.40234,-0.67188 -0.53125,0.55078 v 0.24219 l -0.26172,0.0625 -0.20703,0.47266 -0.86328,0.76172 -1.1875,1.375 -0.66797,0.99218 -0.0781,0.125 -0.38671,0.75 -0.39844,0.8711 -0.23828,0.47265 0.28515,-0.57812 0.0469,-0.14453 -0.71485,1.58203 -0.77734,1.33984 0.0703,-0.17578 -0.004,0.0664 0.34375,-0.99219 0.12109,-0.1875 -0.10547,0.16016 0.0664,-0.14454 0.1289,-0.23828 -0.10156,0.13282 0.23438,-0.54297 0.15625,-0.23828 0.0625,-0.17188 -0.13282,0.26172 0.0469,-0.12891 0.44922,-0.80078 -0.33203,-1.8789 c 0,0 9.85156,-15.65625 16.36718,-17.33204"
           id="path259" />
      </g>
    </g>
    <g
       clip-path="url(#clip-44)"
       id="g263"
       transform="matrix(0.35277777,0,0,0.35277777,-23.929413,50.16197)">
      <g
         clip-path="url(#clip-45)"
         id="g262">
        <path
           fill-rule="nonzero"
           fill="#a7a6a6"
           fill-opacity="1"
           d="m 327.39844,278.96094 -1.13282,1.39843 -0.13281,-1.45703 z m 0,0"
           id="path261" />
      </g>
    </g>
    <g
       clip-path="url(#clip-46)"
       id="g265"
       transform="matrix(0.35277777,0,0,0.35277777,-23.929413,50.16197)">
      <g
         clip-path="url(#clip-47)"
         id="g264">
        <path
           fill-rule="nonzero"
           fill="#a7a6a6"
           fill-opacity="1"
           d="m 398.23437,297.78125 0.44922,-0.53906 0.69922,-1.0625 -0.0351,-0.15235 0.1289,-0.26562 -0.0703,-0.32422 0.0703,-0.30859 -0.0469,-0.26954 0.0742,-0.67968 0.57812,-1.19532 0.52734,-0.21484 0.19141,0.10156 0.0859,-0.23047 0.3164,-0.0703 0.12891,0.22656 -0.008,-0.28515 0.41797,-0.375 -0.0508,0.30469 0.17578,-0.0859 -0.0547,-0.23047 0.3125,-0.44531 -0.0937,0.38672 0.3125,-0.47266 0.082,0.17187 -0.11328,-0.30078 0.17969,-0.28906 0.0391,0.15625 0.0273,-0.57812 0.19141,0.1875 0.36719,-0.39063 0.17968,-0.47656 -0.082,-0.33203 0.38672,-0.42578 -0.0703,0.25 0.28516,0.69531 -0.11329,1.48828 0.0352,0.48828 -0.51953,0.20313 -0.12891,1.11328 -0.30468,0.35547 -0.1836,0.7539 -0.78515,1.53125 0.004,0.0547 -0.1914,0.32422 -0.21094,0.45703 -0.0156,0.0156 h 0.0117 l 0.004,0.0117 -0.11328,0.19532 -0.0391,0.11328 -0.35156,0.62109 -0.15234,0.28906 -0.13672,0.32813 -0.11328,0.20703 -0.0391,0.0937 -0.14844,0.26172 -0.10156,0.23047 -0.10938,0.16406 h -0.0273 l 0.0117,0.0117 -0.11719,0.1914 h -0.0156 v 0.0274 l -0.1875,0.3125 -0.0195,0.0547 -0.0625,0.0781 -0.0117,0.0273 h -0.0156 l -0.0156,0.0703 -1.72656,-0.0274 -0.0547,-0.5039 0.25,-0.625 -0.0742,-0.61328 z m 0,0"
           id="path263" />
      </g>
    </g>
    <g
       clip-path="url(#clip-48)"
       id="g267"
       transform="matrix(0.35277777,0,0,0.35277777,-23.929413,50.16197)">
      <g
         clip-path="url(#clip-49)"
         id="g266">
        <path
           fill-rule="nonzero"
           fill="#a7a6a6"
           fill-opacity="1"
           d="m 336.75781,319.39844 0.38672,0.25 0.0117,0.0625 0.64844,0.36328 0.68359,0.32422 0.3125,0.0586 -0.55078,0.12109 -0.83984,-0.1914 0.48828,-0.0274 -1.40625,-0.89843 z m 0,0"
           id="path265" />
      </g>
    </g>
    <g
       clip-path="url(#clip-50)"
       id="g269"
       transform="matrix(0.35277777,0,0,0.35277777,-23.929413,50.16197)">
      <g
         clip-path="url(#clip-51)"
         id="g268">
        <path
           fill-rule="nonzero"
           fill="#a7a6a6"
           fill-opacity="1"
           d="m 350.71875,328.60156 0.125,-0.90625 -0.0156,-0.004 -0.043,-0.0117 -0.0274,-0.008 -0.39844,-0.12109 0.57422,0.10938 0.94141,0.17578 -0.17578,-0.22657 -2.8125,-0.98437 0.12109,-0.0234 -0.1875,-0.10937 -0.24219,-0.0586 0.0352,-0.0156 -0.38672,-0.15235 0.0234,-0.0234 -0.27734,-0.082 -0.23438,-0.15235 h -0.16016 l -0.34765,-0.16797 -1.16016,-1.11328 0.53906,-0.1914 1.03516,1.01562 0.12109,0.41016 0.95704,0.40625 0.0859,-0.0469 h 0.12891 l 0.0234,0.0703 0.20703,0.0469 0.0508,0.0547 0.56641,0.15625 0.74218,0.30078 0.19141,0.0273 0.16016,0.10156 0.10156,-0.004 0.38281,0.16015 0.31641,0.082 0.043,0.0742 h 0.16796 l 0.28907,0.10547 0.082,0.0703 h 0.1289 l 0.26172,0.0976 0.008,-0.0351 0.23828,0.12109 -0.32422,-0.0586 0.32812,0.10156 0.13672,0.008 0.25781,0.0937 -0.1289,-0.008 0.21484,0.043 0.0977,0.0508 0.15234,0.0156 -0.23047,0.33594 0.66407,0.21484 1.57421,0.30079 0.48829,0.1289 0.3789,0.0391 0.3711,0.0899 1.02734,0.14453 0.95703,0.0977 0.98438,0.0976 0.53515,0.0664 0.97656,-0.33203 -0.42578,-0.13672 0.0274,-0.0547 -1.08985,-0.0703 -0.42187,-0.17578 0.60547,-0.25391 -0.125,-0.0664 0.26953,-0.008 -0.16797,-0.0351 1.34766,-0.14844 -0.13672,-0.0469 0.24609,-0.13672 0.81641,-0.15234 -0.80078,-0.0391 0.78515,-0.67188 1.62891,-0.16797 0.0312,0.20704 1.71094,0.0234 0.84375,-0.1914 1.21484,-0.0899 0.22266,-0.10937 0.29687,0.0898 0.0547,-0.12109 0.86328,0.19922 0.30859,-0.13282 1.6211,-0.0976 1.34765,0.17187 0.64063,-0.0664 0.13672,-0.004 0.11328,-0.0234 0.21094,-0.0195 0.15234,0.004 0.1875,-0.0352 0.17187,-0.0156 0.29688,-0.0508 0.46484,-0.0234 0.69922,-0.15625 0.62891,-0.2461 0.41406,0.47657 1.42969,-0.46875 1.74609,-0.28907 0.26172,-0.125 0.27344,0.10157 0.375,-0.10157 -0.13672,-0.0351 0.14844,-0.082 0.41797,0.0703 0.99609,-0.41406 0.28906,0.3789 1.1211,0.25 0.33984,-0.004 -0.69922,0.30859 -0.3125,0.0859 0.12109,-0.0117 -0.2539,0.0586 -0.0195,0.0469 -0.15235,0.008 -0.27734,0.10547 -0.0898,0.0703 -0.15235,0.0156 -0.25781,0.0976 -0.49609,0.3125 0.49609,-0.14843 0.35937,-0.14844 0.76954,-0.16797 0.28515,-0.10156 0.35938,-0.0937 0.87109,-0.31641 c 0,0 3.34375,-0.26562 0.96875,4.19922 -2.37109,4.46484 -34.61328,-1.80469 -34.61328,-1.80469"
           id="path267" />
      </g>
    </g>
    <g
       clip-path="url(#clip-52)"
       id="g271"
       transform="matrix(0.35277777,0,0,0.35277777,-23.929413,50.16197)">
      <g
         clip-path="url(#clip-53)"
         id="g270">
        <path
           fill-rule="nonzero"
           fill="#a7a6a6"
           fill-opacity="1"
           d="m 414.11719,258.97266 -1.06641,0.51562 0.1875,0.58203 0.22266,0.56641 0.1914,0.60156 -0.0586,-0.125 0.0742,0.19531 0.0195,0.19532 -0.043,-0.0859 0.0469,0.0742 0.10156,0.44922 0.1875,0.71875 0.15625,1.0625 0.125,0.41015 -0.0703,0.17188 0.10156,0.5039 -0.0742,-0.21875 0.0625,0.27344 -0.0625,-0.15625 -0.008,0.17188 0.30468,1.29296 0.19922,0.65235 -0.0742,-0.14844 0.10157,0.24609 0.27734,1.77735 0.0508,0.11719 0.25,1.76953 -0.34765,0.66406 -0.15625,-0.47266 -0.20704,-0.91015 -0.043,-0.23438 -0.51954,-1.54687 -0.24218,-0.72657 0.0234,-0.0312 h -0.0273 l -0.17187,-0.67968 -0.12891,-0.31641 -0.12109,-0.40625 -0.14844,-0.27344 v -0.043 l -0.10156,-0.19921 -0.10157,-0.27344 0.0508,0.0273 -0.0625,-0.0703 -0.0156,-0.043 -0.0195,-0.12891 -0.0195,0.0274 -0.14453,-0.31641 -0.17188,-0.45703 -0.29297,-0.91016 -0.23828,-0.55078 0.0469,0.0156 -0.0781,-0.11328 -0.0391,-0.10157 h 0.0312 l -0.0937,-0.16796 -0.043,-0.28125 -0.0664,-0.14063 0.0117,0.18359 -0.0781,-0.22656 h 0.0742 l -0.27735,-0.51953 -0.20312,-0.78125 -0.28516,-0.51172 0.0273,-0.30469 -0.12109,0.0664 -0.0508,-0.26172 h -0.0586 l 0.0117,-0.23437 0.13672,0.88281 -0.21875,0.40625 -1,-1.31641 0.1836,-0.66015 -0.88672,-0.54297 -0.92578,-1.10156 -1.82032,-0.0664 -1.70312,-0.34766 -0.25,-0.12109 -0.39453,-0.70703 -0.27344,-0.3711 -0.22656,-0.0547 -0.24219,0.34375 -0.79297,0.0547 -0.8789,-0.73046 -0.72657,-0.35157 -0.51953,-0.78515 -0.69531,-0.6875 -0.8125,-0.0117 -0.31641,-0.0391 0.71875,1.14062 0.51172,0.73438 0.24219,0.0664 0.74609,0.70313 0.13282,0.28125 -0.0234,0.23828 0.79687,1.00781 -0.20312,-1.12891 0.4414,1.23829 1.57032,0.39453 0.0976,-0.1211 0.0234,-0.15234 -0.0977,-0.0508 0.082,0.0117 -0.0312,-0.23047 0.17187,-0.32422 -0.0195,-0.30859 0.12109,-0.14844 -0.0508,-0.35938 h 0.10547 -0.0469 l -0.0234,-0.13281 0.70703,1.51563 0.42578,0.46093 0.8125,0.32813 0.61328,0.80859 0.125,0.0156 0.0899,0.26172 -0.043,1.49609 -0.12891,0.0156 -0.0586,-0.18359 -0.0625,0.33594 0.30078,1.05078 -0.39453,0.18359 -0.0274,0.69141 -0.41406,0.0859 V 263.75 h -0.47656 l -0.4375,0.32812 -0.33203,0.3125 0.082,0.5586 -1.375,0.84765 -0.27735,0.51954 -1.08203,0.51953 -0.60937,0.0859 -0.28516,0.51172 -0.93359,0.0547 -0.26953,-0.50781 -0.0352,-0.39063 -0.16797,-0.24609 -0.10547,-0.375 -0.13281,-0.44531 -0.24609,-0.24219 0.125,-0.0312 -0.20703,-0.95703 -0.49219,-0.91406 -0.86719,-0.97657 -0.55078,-0.98437 -0.74609,-0.48828 -0.52735,-0.625 -0.32031,-0.67969 0.0273,-0.39844 -0.7539,-1.13672 -0.76953,-0.47656 -0.36719,-0.6875 -0.46485,-0.45703 -0.0742,-0.22656 -0.15235,-0.0703 -0.0273,-0.0664 -0.17969,-0.23828 -0.17969,-0.17188 -0.0625,-0.10937 -0.14062,-0.10547 -0.0625,-0.0664 -0.0274,-0.0898 -0.0547,-0.082 -0.0625,-0.0273 -0.0781,-0.0781 -0.0586,-0.0781 -0.0274,-0.0664 -0.11328,-0.11719 -0.0234,-0.0156 -0.10157,-0.11718 -0.0664,-0.0391 0.0195,-0.0391 -0.42578,-0.0273 -0.0586,-1.00391 -0.043,-0.14453 -0.0234,1.42578 -0.85547,-0.64453 -0.58203,-0.80469 -0.1875,-0.32422 -0.0664,0.3086 0.23438,0.21094 0.0937,0.26953 0.26171,0.32812 0.63672,0.5625 0.50391,0.95313 0.0625,0.0273 0.34766,0.49219 0.20703,0.23047 0.17187,0.26562 0.23828,0.3125 0.0195,0.0391 0.0312,0.0274 0.0312,0.082 0.0586,0.0508 0.0625,0.10938 0.043,0.0273 -0.008,0.0547 0.57813,0.48828 -0.22656,-0.0274 0.25781,0.66797 1.07422,0.91016 0.43359,0.80078 -0.125,0.0273 0.19531,0.41797 0.45313,1.41407 0.92187,0.70703 0.48047,0.85156 0.29688,0.88281 0.20703,0.40235 0.22656,0.375 0.0508,-0.35938 0.26563,0.45703 0.70703,0.28906 0.43359,0.60547 0.41016,0.33203 0.0273,-0.0273 0.10547,0.32031 0.10547,-0.0156 0.21094,0.33203 0.10547,0.0586 0.0273,-0.10156 0.0977,0.17578 -0.23047,1.01563 0.48047,0.0312 1.16797,0.94922 0.47265,-0.41016 0.4375,0.17578 0.50781,-0.4375 1.50391,-0.29297 0.32031,-0.42187 0.5625,1.35937 -0.26953,0.11719 0.0703,0.78906 -0.27343,1.08985 -0.13672,0.21875 0.008,0.17968 -0.3125,1.40235 -0.54297,1.49609 -0.1914,0.33984 -0.082,0.17969 -0.12109,0.17969 -0.25391,0.44531 -0.2539,0.35547 -0.0352,0.0742 -0.043,0.0469 -0.11718,0.19141 -0.75391,0.64063 -0.82031,0.95312 -1.00782,1.38281 -0.27734,0.6836 -0.16016,0.26953 h -0.30078 l 0.0469,0.29687 -0.53125,0.33985 -0.0625,0.52343 -0.6836,1.2461 -0.35937,1.23047 0.46875,0.84375 -0.26953,0.72265 h 0.14062 l -0.15625,0.44141 0.14063,0.53125 -0.0234,0.99609 0.46094,0.38282 0.12109,0.17187 -0.26953,0.55859 0.0234,1.26563 -0.17969,0.17187 0.11719,0.0156 -0.20313,1.02734 0.008,0.34766 0.13281,-0.14453 -0.0117,0.25781 -0.26953,0.375 -0.65625,1.11719 -1.29688,0.64062 -0.95703,0.59766 0.0625,0.15234 -0.51172,0.6211 -0.10547,0.0859 -0.29296,0.043 -0.53516,0.54688 -0.28906,0.22656 -0.17188,-0.21094 0.10547,0.21094 -0.19922,0.55859 0.23438,0.33204 -0.0899,1.03906 -0.0156,0.26172 0.16406,-0.26172 -0.33984,1.32812 -0.0859,0.2461 -0.41016,0.43359 -1.37109,0.53906 -0.33203,0.24219 -0.22266,1 -0.71094,1.33203 -0.85937,0.63672 -0.22656,0.23438 -0.0899,0.1289 -0.0117,0.0391 h -0.0234 l -0.0156,0.0274 0.0469,-0.0156 -0.0156,0.0156 -0.16406,0.14062 -0.48828,0.58985 -0.35156,0.33203 -0.5,0.30469 -1.30469,1.01953 -1.06641,0.53515 -0.54687,0.0117 -0.5,0.14844 -0.1836,0.17187 -1.48437,-0.14843 -0.60547,0.28125 -0.91016,0.0625 -0.40625,0.25781 -1.0625,-0.48047 0.15625,-0.34375 -0.28125,-0.64844 0.33985,-0.14843 0.10937,-0.55469 -0.51172,-1.1836 -0.17968,-0.98437 -0.19141,-0.39063 -0.75,-1 -0.10156,-0.48828 -0.0508,-0.29297 -0.043,-0.46875 0.0781,-0.5625 -0.21484,-0.74609 0.0781,-0.82031 0.10547,-0.3711 -0.0859,-0.32812 -0.67968,-1.19141 -0.12891,-0.55468 -0.43359,-0.91407 -0.57422,-0.85937 0.0195,-0.70703 0.0469,-1.21485 0.38282,-0.57422 0.39062,-1.5 0.84766,-0.8125 0.3125,-0.60937 0.0195,-0.98047 -0.61328,-1.40625 0.35547,-0.30859 0.0117,-0.3086 -0.44532,-1.0039 -0.0195,-0.29297 -0.45703,-0.72656 0.8125,-0.22266 -0.85156,-0.0586 -0.14844,-0.67969 -0.72266,-0.94922 -0.11718,-0.0898 -0.082,-0.17969 -0.25,-0.20703 -0.0117,-0.0899 -0.12891,-0.13281 -0.21875,-0.22266 -0.30469,-0.23828 -0.16015,-0.17968 0.3789,0.0586 -0.44922,-0.11719 -0.30859,-0.46094 0.23438,0.17969 -0.2461,-0.19531 -0.23437,-0.55078 0.51172,0.34375 -0.25,-0.0469 -0.21875,-0.23828 -0.27735,-0.59375 0.95313,-1.45703 0.0117,-1.20703 -0.0742,-1.58984 -1.03516,-0.59375 -0.35156,-0.16016 0.10547,0.38281 -0.5586,0.043 -0.10547,-0.17578 -0.23046,0.17578 -0.19532,-0.21875 -0.0117,0.28125 -0.0742,-0.25391 0.0312,0.3125 -0.25391,-0.41406 0.13672,0.42969 -0.1211,-0.22266 -0.0273,0.23828 -0.13672,-0.15234 -0.26172,0.17969 -0.0156,-0.17969 -0.11719,0.21094 -0.73437,-1.45313 -0.20704,0.13282 -0.57812,-0.54688 -0.87109,-0.0469 0.30859,-0.17579 -0.92969,0.22266 -0.96094,0.13281 -0.38281,0.10157 -1.0664,0.42968 -1.12891,0.47657 -0.72656,0.30859 -0.90235,-0.30859 0.22657,-0.0742 -0.85938,-0.0312 -0.16406,-0.043 -0.71094,0.0742 -0.45703,-0.0586 0.28125,0.0859 -0.78516,0.10547 -1.44922,0.59375 -1.38671,-0.59375 -1.0625,-0.99219 -0.375,-0.11719 0.0156,-0.12109 -0.53125,-0.26562 -0.0937,-0.19141 -0.87109,-0.41406 0.27734,-0.19141 -0.23828,-0.16406 -0.42969,-0.10156 0.0742,-0.17579 -0.33203,-0.35546 0.19922,0.11718 0.15234,-0.27734 -0.23437,0.14844 -0.0625,-0.26563 0.21484,-0.0312 -0.26562,-0.16015 0.0117,-0.28125 -0.35546,-0.12891 0.0469,-0.39844 -0.26172,-0.21875 -0.11719,0.12891 -0.4375,-0.37891 0.16016,-0.35156 -0.18359,0.21875 -0.0117,-0.28906 -0.22266,0.17187 -0.0195,-0.16015 -0.375,-0.37891 0.4375,-0.51172 -1.42578,-0.30469 1.14453,-0.44922 -1.12891,-0.17578 1.23047,-0.35937 -1.04687,-0.11719 -0.72656,-1.01172 0.92578,-1.10547 0.51953,-1.44922 -0.0274,-1.0039 -0.24609,-0.39453 0.21094,-0.11328 0.1289,-0.58594 -0.63281,-0.46094 0.21875,-0.98437 0.19141,-0.26172 0.1875,-0.0547 0.71484,-1.25781 -0.20312,0.16015 0.96484,-0.82812 0.46875,-1.19531 0.76563,-0.45313 0.39843,-0.74219 0.23047,-0.22265 1.09766,-0.27735 1.0664,-0.79297 0.52344,-0.66015 -0.0703,-0.94531 0.51562,-0.8711 0.6211,-0.53906 1.21094,-0.49609 0.57421,-0.79688 0.64063,-0.65625 0.48437,0.51172 0.99219,0.0234 0.27735,-0.1836 0.0625,0.21875 0.48828,0.0391 1.60547,-0.54688 0.68359,-0.44531 1.41406,-0.25 1.3125,-0.0703 0.40625,0.1914 0.625,-0.20312 0.15625,-0.1211 1.53125,0.10938 1.69531,-0.10938 -0.32812,0.69532 0.58594,0.64062 -0.73047,0.78125 1.21094,0.74219 0.62109,0.25 0.67187,-0.0625 1.45704,0.39062 0.67578,0.82032 1.08984,0.17968 1.55078,0.61328 0.47266,-0.53906 -0.24219,-0.89844 1.02734,-0.58984 1.03125,0.23828 0.22657,0.36328 1.1914,0.13672 0.17578,0.24219 0.14454,0.11328 0.38671,-0.0859 0.75,0.125 0.52344,0.21485 1.06641,0.26953 0.46875,-0.33203 0.21094,0.0117 0.13671,-0.125 0.26954,-0.15235 0.57812,0.0508 0.25391,0.19141 -0.26563,-0.19141 -0.0195,0.17578 0.79297,0.11719 -0.11328,0.0859 0.8789,-0.22656 0.0703,-1.33594 0.0781,-1.14844 -0.41797,-0.93359 -0.2539,-0.71875 -1.63282,0.65625 -1.30078,-0.59766 h -0.26562 l 0.043,0.46485 -0.42578,0.0625 -1.60547,-0.41016 0.52343,-0.25 h -0.69531 l 0.1836,-0.16406 -0.48438,-0.27344 0.0937,-0.21094 -0.72656,-0.22265 0.53906,-0.12891 -1.01172,-1.03906 0.26563,-0.30469 1.38672,0.0234 -0.21094,-0.10157 0.0898,-0.082 0.53516,-0.0547 -0.61719,-0.17969 0.0195,-0.16797 0.27735,0.0312 1.01953,0.0117 0.48828,-0.44531 1.20703,-0.17579 0.31641,0.25391 0.42578,0.0234 0.35937,0.28906 1.14844,0.22266 0.48047,-0.13282 0.45312,0.13282 0.46875,-0.39063 0.004,-0.22265 -0.50391,-0.57422 -0.99609,-0.44532 -0.96875,-0.57031 -1.44141,-0.57812 0.65235,-0.53125 -0.65625,-0.39063 0.60547,-0.27344 h -0.53516 l -0.48828,0.14844 -0.84375,0.42188 1.21484,0.71875 -1.20703,0.3789 -0.9375,-0.60937 0.48047,-0.33594 -1.14453,-0.21484 -0.35547,-0.58985 -0.4375,1.25391 -0.15625,0.93359 0.17969,1.15625 0.84765,0.66016 -1.42968,0.64453 -0.26563,-0.46484 -1.42578,0.0117 -0.64063,0.16796 0.3125,1.11329 1.13672,0.45312 -0.73828,0.44531 0.5586,0.8086 -0.38672,-0.26172 -0.16407,0.22656 -0.26562,-0.38281 -0.25781,0.14453 -0.16016,-0.44922 -0.4375,-0.28516 0.62109,-0.25781 0.70313,0.0469 -0.60156,-0.21094 -0.78125,0.10547 -0.3711,-0.34766 0.24219,-0.1289 -0.56641,-0.20704 -0.3164,-0.27734 -0.83594,-1.46484 -0.55078,-0.41797 -1.14063,-0.33985 0.48047,0.10938 -0.63281,-0.36719 -0.59766,-0.0664 -0.60937,-0.44141 0.22266,-0.0547 -0.76172,-0.65234 -0.5625,-0.1875 -0.85938,0.0937 0.23438,0.78125 0.86718,0.42578 0.37891,0.56641 0.54688,0.39843 0.93359,0.10938 -0.0273,0.32031 1.44531,0.52734 0.41797,0.35157 -1.23438,0.0234 -0.0195,1.51563 -0.59375,-1.46875 h -0.26172 l -0.41406,-0.43359 -0.5,-0.0898 -0.28125,-0.30078 -0.42969,0.0195 -1.07031,-0.71875 -0.34766,-0.0664 -0.82031,-1.05469 -1.60937,0.15234 -0.0625,0.0195 -0.0312,0.0117 -0.73438,0.44531 -0.75,-0.19531 -0.0117,-0.13281 -0.0976,0.12109 -0.11719,-0.12109 0.0742,0.13281 -0.60157,-0.13281 -0.39453,0.73047 0.0195,0.36719 -0.75,0.41015 -0.72656,0.15625 -0.66015,0.73438 -0.082,0.70312 0.082,0.21875 -0.46875,0.32813 -0.0391,0.375 -0.66406,0.16797 -0.35547,0.46093 -1.6289,0.0117 -0.70704,0.40625 h -0.0117 l -1.38672,-0.73828 h -1.05469 l -0.27344,-1.08203 0.81641,-1.39453 -0.0117,-0.81641 -0.24219,-0.72265 0.94922,-0.46485 0.52344,0.1836 0.78125,-0.1211 0.86719,0.1875 h 1.75781 l 0.49219,-0.8164 -0.0234,-0.55469 0.36328,0.34375 -0.46094,-0.4375 0.16406,-0.0117 -0.0742,-0.37109 -0.61719,-0.31641 -0.008,-0.26563 0.26171,0.0312 -0.48046,-0.0508 0.10156,-0.12109 -0.19531,-0.082 -0.26563,0.10156 0.008,-0.16797 -0.73437,-0.0312 -0.20703,-0.14062 0.27343,-0.0508 -0.15625,-0.12891 0.22657,0.0234 -0.34375,-0.12891 0.93359,-0.20703 0.30469,0.21484 0.44531,-0.11718 0.34375,0.0391 -0.31641,-0.64063 1.11329,0.23047 1.42968,-1 0.44532,-0.16015 0.66796,-0.875 1.29688,-0.14454 1.35156,-0.15625 -0.75781,-0.71484 -0.44922,-0.84766 0.82422,-0.22656 -0.78906,0.11328 0.98437,-0.44531 -0.16406,1.44922 0.85156,0.44922 1.76953,0.11328 -0.0508,-0.0703 -0.004,-0.0352 0.91406,-0.17187 0.13281,-0.14844 0.81641,-0.14453 0.29297,0.10156 -0.23438,-0.0781 0.14453,0.17188 0.50391,-0.008 0.67187,-0.25 -0.52734,-1.1211 1.31641,-0.0156 -1.00782,-0.9336 1.78125,-0.12109 0.69141,-0.21875 -1.15625,-0.26562 -1.73828,0.33984 -0.83203,-0.34375 -0.7461,-0.92578 0.87891,-0.85938 -0.72656,-0.32422 -0.6211,-0.0156 -0.15625,0.0547 0.19922,0.0586 -0.25781,0.082 0.17578,0.0664 -0.11328,0.12109 0.31641,0.14844 -0.14844,0.25391 -0.39063,0.0898 -0.1914,0.23437 -0.10938,0.0898 -0.22265,-0.0977 0.24218,0.16406 -0.26172,0.0469 1.39063,1.1875 -1.26563,0.10547 1.125,0.16797 -0.87109,0.23047 0.375,1.23046 -1.10156,0.375 -0.23828,-0.0234 0.0664,-0.14453 -0.40234,-0.31641 0.1875,0.0312 -0.0352,-0.19531 -0.72656,-0.51563 -0.0156,-0.30078 -0.16016,0.0469 -0.14453,-0.0469 V 234.875 l -0.51953,-0.41016 -1.59766,0.83594 -0.76172,-0.66406 0.76563,-0.44531 -0.84766,-0.0664 1.03516,-0.25391 -1.0586,0.0586 0.6211,-0.32813 -0.75,-0.13281 0.67968,-0.30078 1.69532,-0.34766 -0.73438,0.008 0.86719,-1.08593 0.99219,-0.88672 1.53515,-0.5 0.53907,-0.043 0.46875,0.0703 0.75,0.17578 0.14843,0.15235 0.30469,0.0312 -0.0898,-0.0898 0.40234,0.0664 0.0156,0.0547 -0.21485,0.004 0.32422,0.0312 0.10156,0.004 0.125,0.0977 -0.008,0.0625 0.0703,-0.1211 0.60547,0.0508 1.04297,0.26953 0.12109,0.0195 0.41016,0.082 -0.0898,-0.0469 0.40234,0.14063 0.14844,0.0117 0.375,0.17578 -0.33985,0.39843 -1.23046,-0.16406 -1.04297,-0.22265 1.10937,0.34375 0.9336,0.61328 0.3164,0.082 0.90625,0.20312 -0.875,-0.52734 1.41016,0.25 -0.75391,-0.41016 1.04297,-0.0898 -1.20312,-0.73047 0.13671,-0.17187 0.39844,0.375 0.92578,0.16796 -0.0625,-0.67187 1.53125,0.17187 0.1211,-0.30078 1.17968,0.3086 -0.42187,-0.20703 -0.11328,-0.0117 -0.48438,-0.17969 -0.16797,-0.004 -0.85156,-0.35937 -0.3125,-0.0859 -1.02344,-0.45312 0.30469,-0.008 0.91406,0.33985 0.57422,0.17187 1.48438,0.57813 0.5,0.16015 0.55859,0.25782 0.2461,0.3164 0.8125,0.20703 -0.88282,-0.51172 -0.84765,-0.34375 -0.0469,-0.0859 1.32422,0.46875 -1.17969,-0.44141 -0.48828,-0.0742 -1.0039,-0.39453 -0.90625,-0.29297 -0.41797,-0.19531 -0.62891,-0.20703 1.11719,0.35937 0.7539,0.19532 -0.71875,-0.19922 -0.53906,-0.22657 0.78125,0.1875 1.36719,0.47657 -0.20703,-0.0703 -0.66016,-0.23437 -0.40625,-0.14453 -0.8789,-0.25 -0.87891,-0.26953 -0.10938,-0.082 0.78125,0.23046 -1.49609,-0.42968 0.61719,-0.73047 c 32.69922,9.34375 34.38672,30.33594 34.38672,30.33594"
           id="path269" />
      </g>
    </g>
    <g
       clip-path="url(#clip-54)"
       id="g273"
       transform="matrix(0.35277777,0,0,0.35277777,-23.929413,50.16197)">
      <g
         clip-path="url(#clip-55)"
         id="g272">
        <path
           fill-rule="nonzero"
           fill="#a7a6a6"
           fill-opacity="1"
           d="m 398.52734,247.68359 -0.95312,0.4375 -0.6875,-0.46484 -0.58985,-0.17578 -0.4414,-0.5625 -0.0977,-1.24219 -0.57031,-0.29297 -0.9375,-0.78515 -1.02344,-0.78125 -0.28125,-0.55079 -0.36328,-0.22265 -0.375,-0.19141 0.19531,-1.15234 0.39453,-0.46875 1.16407,0.51172 0.51953,0.59375 -0.24219,0.51562 -0.56641,-0.0352 0.42579,0.23828 0.68359,0.67578 0.79687,0.28515 0.33985,0.63672 0.51172,0.46875 -0.32813,-0.43359 1.08203,0.44531 -0.54297,0.39453 0.42969,0.46485 -0.15625,-0.16797 0.30078,0.0312 0.0742,0.20703 0.19531,0.10547 h -0.22656 l 0.14844,0.22656 -0.0586,-0.125 0.51562,0.3125 z m 0,0"
           id="path271" />
      </g>
    </g>
    <path
       fill="none"
       stroke-width="0.157339"
       stroke-linecap="round"
       stroke-linejoin="round"
       stroke="#4f4c4c"
       stroke-opacity="1"
       stroke-miterlimit="3.864"
       d="m 98.277767,164.10643 c -0.578775,-0.37069 -1.205783,-0.69453 -1.874131,-0.86541 -1.361502,-0.34726 -0.529167,0.51126 0.0028,0.86541 0.567752,0.37759 1.212674,0.69453 1.874132,0.86403 0.152962,0.0386 0.913639,0.19982 0.713824,-0.20257 -0.143316,-0.28663 -0.464399,-0.48507 -0.71658,-0.66146 z m 0,0"
       id="path273" />
    <path
       fill="none"
       stroke-width="0.157339"
       stroke-linecap="round"
       stroke-linejoin="round"
       stroke="#4f4c4c"
       stroke-opacity="1"
       stroke-miterlimit="3.864"
       d="m 92.556153,157.50012 c -0.312815,-0.58016 -0.728983,-1.18236 -1.327051,-1.49793 -1.180979,-0.62425 -0.813043,0.96462 -0.545703,1.49793 0.290766,0.58015 0.740006,1.18649 1.327051,1.49654 0.71658,0.37897 0.942578,-0.26596 0.784103,-0.87643 -0.0565,-0.21773 -0.144694,-0.41754 -0.2384,-0.62011 z m 0,0"
       id="path274" />
    <path
       fill="none"
       stroke-width="0.157339"
       stroke-linecap="round"
       stroke-linejoin="round"
       stroke="#4f4c4c"
       stroke-opacity="1"
       stroke-miterlimit="3.864"
       d="m 90.461535,148.47535 c -0.0813,-2.435 -1.872754,-2.38677 -1.872754,0 0,2.38538 1.79145,2.43361 1.872754,0 z m 0,0"
       id="path275" />
    <path
       fill="none"
       stroke-width="0.157339"
       stroke-linecap="round"
       stroke-linejoin="round"
       stroke="#4f4c4c"
       stroke-opacity="1"
       stroke-miterlimit="3.864"
       d="m 92.556153,139.4492 c 0.09371,-0.20257 0.181901,-0.40239 0.2384,-0.62012 0.158475,-0.61047 -0.06752,-1.25539 -0.784103,-0.87643 -0.587045,0.31006 -1.036285,0.91639 -1.327051,1.49655 -0.26734,0.5333 -0.635276,2.12218 0.545703,1.4993 0.598068,-0.31695 1.014236,-0.91915 1.327051,-1.4993 z m 0,0"
       id="path276" />
    <path
       fill="none"
       stroke-width="0.157339"
       stroke-linecap="round"
       stroke-linejoin="round"
       stroke="#4f4c4c"
       stroke-opacity="1"
       stroke-miterlimit="3.864"
       d="m 98.277767,132.84288 c 0.252181,-0.17639 0.573265,-0.37483 0.716581,-0.66146 0.199815,-0.40239 -0.560862,-0.24116 -0.713824,-0.20119 -0.661459,0.16812 -1.306381,0.48507 -1.874132,0.86265 -0.531923,0.35415 -1.364258,1.21405 -0.0028,0.86541 0.668348,-0.17088 1.295356,-0.49472 1.874131,-0.86541 z m 0,0"
       id="path277" />
    <path
       fill="none"
       stroke-width="0.157339"
       stroke-linecap="round"
       stroke-linejoin="round"
       stroke="#4f4c4c"
       stroke-opacity="1"
       stroke-miterlimit="3.864"
       d="m 102.26581,164.10643 c -0.60909,-0.62425 -1.57234,-0.93706 -2.432235,-0.93706 -0.549837,0 -1.365636,0.30041 -0.808908,0.93706 0.556727,0.63941 1.609553,0.93431 2.429483,0.93431 0.59531,0 1.29949,-0.28112 0.81166,-0.93431 z m 0,0"
       id="path278" />
    <path
       fill="none"
       stroke-width="0.157339"
       stroke-linecap="round"
       stroke-linejoin="round"
       stroke="#4f4c4c"
       stroke-opacity="1"
       stroke-miterlimit="3.864"
       d="m 98.961275,157.50012 c -0.28801,-0.81856 -0.986676,-1.49518 -1.872754,-1.60818 -0.972895,-0.12402 -1.641244,0.66973 -1.368392,1.60818 0.531923,1.83968 3.770312,2.38125 3.241146,0 z m 0,0"
       id="path279" />
    <path
       fill="none"
       stroke-width="0.157339"
       stroke-linecap="round"
       stroke-linejoin="round"
       stroke="#4f4c4c"
       stroke-opacity="1"
       stroke-miterlimit="3.864"
       d="m 97.751357,148.47535 c -0.14056,-2.49425 -3.241146,-2.41019 -3.241146,0 0,2.41019 3.100586,2.49287 3.241146,0 z m 0,0"
       id="path280" />
    <path
       fill="none"
       stroke-width="0.157339"
       stroke-linecap="round"
       stroke-linejoin="round"
       stroke="#4f4c4c"
       stroke-opacity="1"
       stroke-miterlimit="3.864"
       d="m 98.961275,139.4492 c 0.529166,-2.38125 -2.709223,-1.83968 -3.241146,0 -0.272852,0.93844 0.395497,1.73219 1.368392,1.60817 0.886078,-0.113 1.584744,-0.78962 1.872754,-1.60817 z m 0,0"
       id="path281" />
    <path
       fill="none"
       stroke-width="0.157339"
       stroke-linecap="round"
       stroke-linejoin="round"
       stroke="#4f4c4c"
       stroke-opacity="1"
       stroke-miterlimit="3.864"
       d="m 102.26581,132.84288 c 0.48783,-0.65319 -0.21635,-0.93431 -0.81166,-0.93431 -0.81993,0 -1.872756,0.2949 -2.429483,0.93431 -0.556728,0.63665 0.259071,0.93706 0.808908,0.93706 0.859895,0 1.823145,-0.31281 2.432235,-0.93706 z m 0,0"
       id="path282" />
    <path
       fill="none"
       stroke-width="0.157339"
       stroke-linecap="round"
       stroke-linejoin="round"
       stroke="#4f4c4c"
       stroke-opacity="1"
       stroke-miterlimit="3.864"
       d="m 107.02694,164.10643 c -0.16261,-1.31051 -3.75102,-1.1796 -3.74276,0 0.007,1.18098 3.56361,1.30225 3.74276,0 z m 0,0"
       id="path283" />
    <path
       fill="none"
       stroke-width="0.157339"
       stroke-linecap="round"
       stroke-linejoin="round"
       stroke="#4f4c4c"
       stroke-opacity="1"
       stroke-miterlimit="3.864"
       d="m 107.02694,157.50012 c -0.15572,-2.10427 -3.74551,-2.14699 -3.74276,0 0.003,2.1456 3.58152,2.10013 3.74276,0 z m 0,0"
       id="path284" />
    <path
       fill="none"
       stroke-width="0.157339"
       stroke-linecap="round"
       stroke-linejoin="round"
       stroke="#4f4c4c"
       stroke-opacity="1"
       stroke-miterlimit="3.864"
       d="m 107.02694,148.47535 c -0.16537,-2.51217 -3.74276,-2.41433 -3.74276,0 0,2.41294 3.57739,2.51078 3.74276,0 z m 0,0"
       id="path285" />
    <path
       fill="none"
       stroke-width="0.157339"
       stroke-linecap="round"
       stroke-linejoin="round"
       stroke="#4f4c4c"
       stroke-opacity="1"
       stroke-miterlimit="3.864"
       d="m 107.02694,139.4492 c -0.16124,-2.10013 -3.74,-2.14561 -3.74276,0 -0.003,2.14836 3.58704,2.10564 3.74276,0 z m 0,0"
       id="path286" />
    <path
       fill="none"
       stroke-width="0.157339"
       stroke-linecap="round"
       stroke-linejoin="round"
       stroke="#4f4c4c"
       stroke-opacity="1"
       stroke-miterlimit="3.864"
       d="m 107.02694,132.84288 c -0.17915,-1.30225 -3.73587,-1.1796 -3.74276,0 -0.008,1.1796 3.58015,1.31051 3.74276,0 z m 0,0"
       id="path287" />
    <path
       fill="none"
       stroke-width="0.157339"
       stroke-linecap="round"
       stroke-linejoin="round"
       stroke="#4f4c4c"
       stroke-opacity="1"
       stroke-miterlimit="3.864"
       d="m 111.28645,164.10643 c 0.49609,-0.65319 -0.20809,-0.93706 -0.80891,-0.93706 -0.81856,0 -1.87689,0.29352 -2.43224,0.93706 -0.54708,0.63666 0.26596,0.93431 0.81167,0.93431 0.85989,0 1.81901,-0.31419 2.42948,-0.93431 z m 0,0"
       id="path288" />
    <path
       fill="none"
       stroke-width="0.157339"
       stroke-linecap="round"
       stroke-linejoin="round"
       stroke="#4f4c4c"
       stroke-opacity="1"
       stroke-miterlimit="3.864"
       d="m 114.59098,157.50012 c 0.53468,-2.38263 -2.7106,-1.8452 -3.24114,0 -0.2701,0.93706 0.39687,1.72943 1.36839,1.60541 0.88608,-0.11162 1.58337,-0.78962 1.87275,-1.60541 z m 0,0"
       id="path289" />
    <path
       fill="none"
       stroke-width="0.157339"
       stroke-linecap="round"
       stroke-linejoin="round"
       stroke="#4f4c4c"
       stroke-opacity="1"
       stroke-miterlimit="3.864"
       d="m 115.8009,148.47535 c -0.14194,-2.49425 -3.24252,-2.41019 -3.24252,0 0,2.41019 3.10058,2.49287 3.24252,0 z m 0,0"
       id="path290" />
    <path
       fill="none"
       stroke-width="0.157339"
       stroke-linecap="round"
       stroke-linejoin="round"
       stroke="#4f4c4c"
       stroke-opacity="1"
       stroke-miterlimit="3.864"
       d="m 114.59098,139.4492 c -0.28938,-0.8158 -0.98667,-1.4938 -1.87275,-1.60542 -0.97152,-0.12264 -1.63849,0.66835 -1.36839,1.60542 0.53054,1.84519 3.77582,2.38262 3.24114,0 z m 0,0"
       id="path291" />
    <path
       fill="none"
       stroke-width="0.157339"
       stroke-linecap="round"
       stroke-linejoin="round"
       stroke="#4f4c4c"
       stroke-opacity="1"
       stroke-miterlimit="3.864"
       d="m 111.28645,132.84288 c -0.61047,-0.62012 -1.56959,-0.93431 -2.42948,-0.93431 -0.54571,0 -1.35875,0.29765 -0.81167,0.93431 0.55535,0.64492 1.61368,0.93706 2.43224,0.93706 0.60082,0 1.305,-0.28249 0.80891,-0.93706 z m 0,0"
       id="path292" />
    <path
       fill="none"
       stroke-width="0.157339"
       stroke-linecap="round"
       stroke-linejoin="round"
       stroke="#4f4c4c"
       stroke-opacity="1"
       stroke-miterlimit="3.864"
       d="m 113.90472,164.10643 c 0.25356,-0.17639 0.5774,-0.37482 0.72072,-0.66283 0.20257,-0.40377 -0.565,-0.24116 -0.71658,-0.20258 -0.66422,0.1695 -1.30914,0.48645 -1.87689,0.86541 -0.52917,0.35416 -1.35186,1.20854 -0.001,0.86403 0.66835,-0.17087 1.29398,-0.49471 1.87413,-0.86403 z m 0,0"
       id="path293" />
    <path
       fill="none"
       stroke-width="0.157339"
       stroke-linecap="round"
       stroke-linejoin="round"
       stroke="#4f4c4c"
       stroke-opacity="1"
       stroke-miterlimit="3.864"
       d="m 119.62634,157.50012 c 0.0951,-0.20258 0.18327,-0.40377 0.23977,-0.62012 0.15986,-0.61185 -0.0661,-1.25815 -0.7841,-0.87781 -0.58704,0.30868 -1.03628,0.91639 -1.32705,1.49793 -0.26596,0.53192 -0.63252,2.11804 0.5457,1.49654 0.59807,-0.31557 1.01424,-0.91777 1.32568,-1.49654 z m 0,0"
       id="path294" />
    <path
       fill="none"
       stroke-width="0.157339"
       stroke-linecap="round"
       stroke-linejoin="round"
       stroke="#4f4c4c"
       stroke-opacity="1"
       stroke-miterlimit="3.864"
       d="m 121.72096,148.47535 c -0.0799,-2.435 -1.87138,-2.38677 -1.87138,0 0,2.38538 1.79145,2.43361 1.87138,0 z m 0,0"
       id="path295" />
    <path
       fill="none"
       stroke-width="0.157339"
       stroke-linecap="round"
       stroke-linejoin="round"
       stroke="#4f4c4c"
       stroke-opacity="1"
       stroke-miterlimit="3.864"
       d="m 119.62634,139.4492 c -0.31144,-0.57878 -0.72761,-1.18098 -1.32568,-1.49655 -1.17822,-0.6215 -0.81166,0.96462 -0.5457,1.49655 0.29077,0.58153 0.74001,1.18924 1.32705,1.4993 0.71796,0.37896 0.94396,-0.26734 0.7841,-0.87781 -0.0565,-0.21773 -0.14469,-0.41754 -0.23977,-0.62149 z m 0,0"
       id="path296" />
    <path
       fill="none"
       stroke-width="0.157339"
       stroke-linecap="round"
       stroke-linejoin="round"
       stroke="#4f4c4c"
       stroke-opacity="1"
       stroke-miterlimit="3.864"
       d="m 113.90472,132.84288 c -0.58015,-0.36932 -1.20578,-0.69316 -1.87413,-0.86265 -1.35048,-0.34589 -0.52779,0.50849 10e-4,0.86265 0.56775,0.37896 1.21267,0.69591 1.87689,0.86541 0.15158,0.04 0.91915,0.20119 0.71658,-0.20258 -0.14332,-0.28801 -0.46716,-0.48644 -0.72072,-0.66283 z m 0,0"
       id="path297" />
  </g>
</svg>
